<?xml version="1.0" standalone="no"?>
<!DOCTYPE svg PUBLIC "-//W3C//DTD SVG 1.1//EN" "http://www.w3.org/Graphics/SVG/1.1/DTD/svg11.dtd" >
<svg xmlns="http://www.w3.org/2000/svg" xmlns:xlink="http://www.w3.org/1999/xlink" version="1.1">
<metadata>
Created by FontForge 20150318 at Wed Jun  3 11:42:48 2015
 By uniteet7
Copyright (c) 1992-2011 by Apple Inc. All rights reserved.
</metadata>
<defs>
<font id="Thonburi" horiz-adv-x="1706" >
  <font-face 
    font-family="Thonburi"
    font-weight="400"
    font-stretch="normal"
    units-per-em="2560"
    panose-1="0 0 4 0 0 0 0 0 0 0"
    ascent="2048"
    descent="-512"
    x-height="1396"
    cap-height="1940"
    bbox="-1760 -1141 3537 3068"
    underline-thickness="156"
    underline-position="-6"
    unicode-range="U+0008-FEFF"
  />
<missing-glyph horiz-adv-x="1280" 
d="M160 0v2429h960v-2429h-960zM320 160h640v2109h-640v-2109z" />
    <glyph glyph-name="fi" unicode="fi" horiz-adv-x="1533" 
d="M524 0h-233v1203h-203v193h203v65q0 304 128.5 430.5t334.5 126.5q77 0 196 -18v-190q-97 13 -156 13q-113 0 -191.5 -55t-78.5 -263v-109h824v-1396h-233v1203h-591v-1203z" />
    <glyph glyph-name="fl" unicode="fl" horiz-adv-x="1533" 
d="M291 1396v62q0 178 53.5 300t166.5 191t319 69q231 0 518 -45v-1973h-233v1780q-180 43 -295 43q-147 0 -221.5 -80t-74.5 -240v-107h407v-193h-407v-1203h-233v1203h-203v193h203z" />
    <glyph glyph-name=".notdef" horiz-adv-x="1280" 
d="M160 0v2429h960v-2429h-960zM320 160h640v2109h-640v-2109z" />
    <glyph glyph-name=".null" horiz-adv-x="0" 
 />
    <glyph glyph-name=".null" horiz-adv-x="0" 
 />
    <glyph glyph-name=".null" horiz-adv-x="0" 
 />
    <glyph glyph-name="nonmarkingreturn" unicode="&#x9;" horiz-adv-x="315" 
 />
    <glyph glyph-name="nonmarkingreturn" unicode="&#xd;" horiz-adv-x="315" 
 />
    <glyph glyph-name="space" unicode=" " horiz-adv-x="850" 
 />
    <glyph glyph-name="exclam" unicode="!" horiz-adv-x="776" 
d="M506 0h-233v233h233v-233zM486 485h-191l-62 1455h310z" />
    <glyph glyph-name="quotedbl" unicode="&#x22;" horiz-adv-x="1280" 
d="M454 1241h-160l-61 777h272zM993 1241h-159l-53 777h267z" />
    <glyph glyph-name="numbersign" unicode="#" 
d="M360 0h-184l137 514h-235v175h282l140 532h-422v175h473l147 544h180l-144 -544h472l147 544h186l-150 -544h240v-175h-291l-142 -532h433v-175h-476l-140 -514h-185l141 514h-469zM548 689h470l143 532h-472z" />
    <glyph glyph-name="dollar" unicode="$" 
d="M979 -194h-194v194q-346 20 -471 164t-125 319v12h252v-12q0 -113 64.5 -185t279.5 -98v673l-77 30q-269 108 -360.5 227.5t-91.5 287.5q0 132 57 241.5t167.5 180.5t304.5 95v199h194v-199q277 -20 373.5 -132.5t96.5 -238.5v-13h-251v13q0 69 -56 113t-163 62v-684
l106 -37q126 -49 229.5 -119.5t143.5 -161.5t40 -189q0 -123 -57.5 -241.5t-164 -198.5t-297.5 -108v-194zM785 1126v615q-152 -26 -219 -115.5t-67 -201.5q0 -91 50.5 -154.5t186.5 -124.5zM979 803v-597q112 14 165.5 57t82 110.5t28.5 140.5q0 91 -49.5 153.5
t-166.5 112.5z" />
    <glyph glyph-name="percent" unicode="%" horiz-adv-x="2318" 
d="M78 1358q0 267 125.5 424.5t310.5 157.5t310.5 -157.5t125.5 -424.5q0 -268 -125.5 -425t-310.5 -157t-310.5 157t-125.5 425zM291 1358q0 -177 61 -292.5t162 -115.5q99 0 161.5 115.5t62.5 292.5q0 176 -62.5 291.5t-162.5 115.5t-161 -115.5t-61 -291.5zM344 0
l1379 1940h221l-1358 -1940h-242zM1368 581q0 268 125.5 425.5t310.5 157.5t310.5 -157t125.5 -426q0 -267 -125.5 -424t-310.5 -157t-310.5 157t-125.5 424zM1580 581q0 -177 62 -291.5t162 -114.5t161 114.5t61 291.5t-61 292.5t-161 115.5t-162 -115.5t-62 -292.5z" />
    <glyph glyph-name="ampersand" unicode="&#x26;" horiz-adv-x="1861" 
d="M1259 158q-125 -113 -251.5 -165t-278.5 -52q-191 0 -330.5 78.5t-220 218.5t-80.5 297q0 199 130.5 375t335.5 281q-14 23 -20 33q-85 134 -109 187.5t-35 100.5t-11 89q0 99 60 196.5t162.5 149t233.5 51.5q189 0 297.5 -99.5t108.5 -233.5q0 -152 -106.5 -297
t-271.5 -240q210 -360 427 -638q64 94 95 207t31 331v68h233v-30q0 -440 -233 -735q100 -125 310 -331h-337q-46 46 -93 101zM773 1303q131 73 198 170.5t67 170.5q0 40 -26 83t-77.5 66t-100.5 23q-98 0 -147 -65t-49 -132q0 -34 10.5 -74.5t26.5 -78.5t74 -127
q7 -11 24 -36zM664 1024q-154 -80 -239 -211.5t-85 -268.5q0 -113 54.5 -206.5t158 -147.5t201.5 -54q67 0 157 29t229 146q-85 105 -226 309t-250 404z" />
    <glyph glyph-name="quotesingle" unicode="'" horiz-adv-x="776" 
d="M474 1241h-168l-92 777h349z" />
    <glyph glyph-name="parenleft" unicode="(" horiz-adv-x="1144" 
d="M979 2056q-218 -230 -313 -415.5t-145.5 -406.5t-50.5 -439q0 -217 50.5 -438.5t145.5 -407t313 -414.5h-194q-161 140 -300.5 357.5t-200.5 447.5t-61 455t61 455t200.5 447.5t300.5 358.5h194z" />
    <glyph glyph-name="parenright" unicode=")" horiz-adv-x="1144" 
d="M165 -465q218 229 313 414.5t145.5 407t50.5 438.5q0 218 -50.5 439t-145.5 407.5t-313 414.5h194q161 -141 300.5 -358.5t200.5 -447.5t61 -455t-61 -455t-200.5 -447.5t-300.5 -357.5h-194z" />
    <glyph glyph-name="asterisk" unicode="*" horiz-adv-x="1300" 
d="M649 1326l-223 -395l-158 107l252 385l-422 85l50 185l425 -128l-22 433h195l-21 -433l425 128l50 -185l-422 -85l252 -385l-159 -107z" />
    <glyph glyph-name="plus" unicode="+" 
d="M1551 795v-194h-601v-601h-194v601h-601v194h601v601h194v-601h601z" />
    <glyph glyph-name="comma" unicode="," horiz-adv-x="776" 
d="M223 -465v150q60 35 91.5 85.5t48 105.5t16.5 124h-156v330h330v-205q0 -185 -36 -282t-108.5 -178t-185.5 -130z" />
    <glyph glyph-name="hyphen" unicode="-" horiz-adv-x="970" 
d="M98 689v194h776v-194h-776z" />
    <glyph glyph-name="period" unicode="." horiz-adv-x="776" 
d="M553 0h-330v330h330v-330z" />
    <glyph glyph-name="slash" unicode="/" horiz-adv-x="1378" 
d="M281 -59h-222l1042 2057h218z" />
    <glyph glyph-name="zero" unicode="0" 
d="M853 -59q-317 0 -512.5 277t-195.5 752t195.5 751.5t512.5 276.5t512.5 -276.5t195.5 -751.5t-195.5 -752t-512.5 -277zM853 136q246 0 356 253.5t110 580.5q0 326 -110 580t-356 254q-245 0 -355 -254t-110 -580q0 -327 110 -580.5t355 -253.5z" />
    <glyph glyph-name="one" unicode="1" 
d="M771 0v1699l-392 -156v216l392 181h233v-1940h-233z" />
    <glyph glyph-name="two" unicode="2" 
d="M223 0v201q0 158 97.5 343.5t327.5 363.5l131 101q262 202 334 302q70 100 70 209q0 111 -94 197.5t-270 86.5q-160 0 -237.5 -62t-77.5 -139v-13h-233v13q0 102 69.5 193.5t187.5 146.5t298 55q329 0 469 -139.5t140 -334.5q0 -104 -43.5 -209t-173 -219.5
t-210.5 -170.5l-95 -65q-448 -307 -448 -599v-47h1009v-214h-1251z" />
    <glyph glyph-name="three" unicode="3" 
d="M495 970v194h145q170 0 266.5 53.5t152.5 134.5t56 181q0 126 -92.5 198.5t-244.5 72.5q-88 0 -164 -22.5t-117 -76.5t-41 -112v-13h-222v13q0 152 128.5 278.5t427.5 126.5q284 0 426.5 -121.5t142.5 -312.5q0 -105 -41.5 -195.5t-122 -162t-231.5 -115.5
q236 -67 353.5 -200t117.5 -332q0 -234 -164.5 -426t-497.5 -192q-292 0 -425.5 124.5t-133.5 280.5v13h232v-13q0 -105 98.5 -157.5t251.5 -52.5q120 0 211.5 44.5t139 144.5t47.5 218q0 181 -143 304t-438 123h-118z" />
    <glyph glyph-name="four" unicode="4" 
d="M1300 0h-232v591h-932v194l932 1155h232v-1155h271v-194h-271v-591zM1068 785v848l-675 -848h675z" />
    <glyph glyph-name="five" unicode="5" 
d="M379 999v941h999v-214h-785v-523h58q302 0 467 -74.5t251 -209t86 -325.5q0 -254 -157.5 -453.5t-479.5 -199.5q-257 0 -411 113.5t-154 273.5v12h232v-12q0 -84 89 -138.5t240 -54.5q204 0 301.5 132t97.5 296q0 185 -130 310.5t-527 125.5h-177z" />
    <glyph glyph-name="six" unicode="6" 
d="M460 905q85 111 167.5 167.5t165 83.5t178.5 27q250 0 401 -178.5t151 -431.5q0 -178 -78.5 -323t-217.5 -227t-304 -82q-192 0 -360 113.5t-254 341t-86 562.5q0 475 194 757.5t558 282.5q248 0 373.5 -109t125.5 -248v-12h-233v12q0 60 -65.5 111.5t-196.5 51.5
q-154 0 -270 -92.5t-183 -303t-67 -434.5zM923 136q152 0 254.5 127t102.5 317q0 189 -108 299t-263 110q-171 0 -278.5 -125.5t-107.5 -299.5q0 -115 53 -218t145.5 -156.5t201.5 -53.5z" />
    <glyph glyph-name="seven" unicode="7" 
d="M698 0h-252v84q0 204 58.5 412t304 572.5t415.5 597.5l44 60h-1074v214h1309v-214q-29 -42 -33 -47l-179 -240q-168 -228 -346.5 -554t-212.5 -495t-34 -294v-96z" />
    <glyph glyph-name="eight" unicode="8" 
d="M1518 529q0 -151 -82.5 -296t-223.5 -218.5t-359 -73.5t-358.5 73.5t-223 218.5t-82.5 296q0 161 93 308.5t283 232.5q-149 74 -224 181.5t-75 247.5q0 136 74.5 256t216.5 181.5t296 61.5q155 0 296.5 -62t216 -181.5t74.5 -255.5q0 -140 -75 -247.5t-225 -181.5
q190 -85 284 -232.5t94 -308.5zM853 1164q150 0 247.5 96t97.5 226q0 143 -104.5 230.5t-240.5 87.5q-135 0 -239.5 -87.5t-104.5 -230.5q0 -130 97 -226t247 -96zM853 970q-110 0 -208.5 -55t-156 -158.5t-57.5 -212.5q0 -105 54.5 -205t155 -151.5t212.5 -51.5t212.5 51.5
t155 151.5t54.5 205q0 109 -57.5 212.5t-156 158.5t-208.5 55z" />
    <glyph glyph-name="nine" unicode="9" 
d="M1246 1034q-85 -111 -168 -167t-165.5 -83.5t-177.5 -27.5q-251 0 -401 179t-150 431q0 179 78 323.5t217.5 226.5t304.5 82q191 0 359 -113.5t254.5 -340t86.5 -561.5q0 -477 -195 -759.5t-559 -282.5q-247 0 -372 109t-125 248v12h232v-12q0 -59 65 -111t196 -52
q155 0 271 92.5t183.5 303t67.5 434.5zM783 1804q-152 0 -254.5 -127t-102.5 -317t108.5 -300t263.5 -110q170 0 277.5 126.5t107.5 299.5q0 114 -52.5 218t-146 157t-201.5 53z" />
    <glyph glyph-name="colon" unicode=":" horiz-adv-x="776" 
d="M553 0h-330v330h330v-330zM553 1066h-330v330h330v-330z" />
    <glyph glyph-name="semicolon" unicode=";" horiz-adv-x="776" 
d="M223 -465v150q60 35 91.5 85.5t48 105.5t16.5 124h-156v330h330v-205q0 -185 -36 -282t-108.5 -178t-185.5 -130zM553 1066h-330v330h330v-330z" />
    <glyph glyph-name="less" unicode="&#x3c;" 
d="M1551 1396v-216l-962 -486l962 -478v-216l-1396 694z" />
    <glyph glyph-name="equal" unicode="=" 
d="M1551 1009v-194h-1396v194h1396zM1551 581v-193h-1396v193h1396z" />
    <glyph glyph-name="greater" unicode="&#x3e;" 
d="M155 0v223l963 486l-963 477v210l1396 -687z" />
    <glyph glyph-name="question" unicode="?" horiz-adv-x="1455" 
d="M736 495h-232v118q0 203 64.5 332.5t137.5 208.5l98 106q96 105 136 170t40 128q0 106 -95.5 176t-235.5 70q-118 0 -184.5 -44t-66.5 -137v-13h-243v13q0 87 66.5 179t188 144t264.5 52q150 0 280 -57.5t199.5 -156t69.5 -208.5q0 -60 -29 -151t-171 -224l-89 -82
q-86 -81 -142 -171t-56 -283v-170zM736 0h-232v233h232v-233z" />
    <glyph glyph-name="at" unicode="@" horiz-adv-x="2230" 
d="M1576 253v-195q-221 -117 -466 -117q-267 0 -492 130t-344 374.5t-119 525.5q0 283 119 524t339.5 372t532.5 131q290 0 495 -116t319.5 -317t114.5 -445q0 -176 -63.5 -310t-175.5 -210t-243 -76q-112 0 -204.5 57.5t-112.5 189.5q-68 -105 -156.5 -166.5t-176.5 -61.5
q-93 0 -177.5 55.5t-126 151t-41.5 208.5q0 146 73.5 288t194 204.5t360.5 62.5h244v-543q0 -172 47.5 -231.5t121.5 -59.5q109 0 193 113t84 307q0 220 -100 388.5t-281.5 262t-395.5 93.5q-230 0 -422 -105t-292 -309t-100 -443q0 -232 95 -451.5t293 -328t395 -108.5
q235 0 468 155zM1276 1358h-78q-105 0 -156.5 -14.5t-92.5 -48.5q-74 -59 -106.5 -144t-32.5 -193q0 -122 47.5 -171t102.5 -49q63 0 133 48t183 217v355z" />
    <glyph glyph-name="A" unicode="A" horiz-adv-x="1861" 
d="M273 0h-234l795 1940h255l734 -1940h-273l-201 534h-856zM569 728h705l-340 901z" />
    <glyph glyph-name="B" unicode="B" horiz-adv-x="1629" 
d="M1056 1020q230 -56 333.5 -189t103.5 -301q0 -139 -71.5 -261.5t-202.5 -195.5t-454 -73h-581v1940h515q352 0 473 -50.5t182 -149.5t61 -219q0 -133 -77.5 -265t-281.5 -236zM436 1096h243q187 0 280.5 50t149 143.5t55.5 191.5q0 109 -87 186.5t-313 77.5h-328v-649z
M436 194h357q252 0 345 94.5t93 222.5q0 104 -60 191.5t-178 143t-369 55.5h-188v-707z" />
    <glyph glyph-name="C" unicode="C" horiz-adv-x="1668" 
d="M1338 418h233v-13q0 -115 -79 -233.5t-215.5 -174.5t-320.5 -56q-370 0 -605 257.5t-235 771.5q0 511 234 770t608 259q182 0 318.5 -55.5t215.5 -176.5t79 -232v-12h-233v12q0 71 -44.5 137t-127.5 99t-200 33q-297 0 -442.5 -235t-145.5 -599q0 -367 146 -601t441 -234
q203 0 288 84t85 186v13z" />
    <glyph glyph-name="D" unicode="D" horiz-adv-x="1794" 
d="M184 0v1940h536q391 0 572.5 -106t283.5 -324.5t102 -531.5q0 -294 -92 -509.5t-278.5 -342t-552.5 -126.5h-571zM436 214h298q266 0 401.5 78t207.5 245t72 419q0 253 -65.5 435t-200 268t-421.5 86h-292v-1531z" />
    <glyph glyph-name="E" unicode="E" horiz-adv-x="1474" 
d="M184 0v1940h1096v-214h-844v-611h737v-194h-737v-707h912v-214h-1164z" />
    <glyph glyph-name="F" unicode="F" horiz-adv-x="1416" 
d="M184 0v1940h1096v-214h-844v-668h737v-195h-737v-863h-252z" />
    <glyph glyph-name="G" unicode="G" horiz-adv-x="1726" 
d="M1571 89q-308 -148 -588 -148q-292 0 -472 116t-287.5 333.5t-107.5 557.5q0 383 102 595.5t287 333.5t439 121q174 0 316.5 -55t226.5 -167t84 -222v-13h-233v13q0 67 -52 125.5t-136.5 91.5t-191.5 33q-283 0 -431.5 -221.5t-148.5 -609.5t152.5 -613t429.5 -225
q163 0 378 78v553h-437v194h670v-871z" />
    <glyph glyph-name="H" unicode="H" horiz-adv-x="1765" 
d="M436 0h-252v1940h252v-864h892v864h252v-1940h-252v883h-892v-883z" />
    <glyph glyph-name="I" unicode="I" horiz-adv-x="620" 
d="M436 0h-252v1940h252v-1940z" />
    <glyph glyph-name="J" unicode="J" horiz-adv-x="1260" 
d="M49 330h252v-12q0 -54 29 -96.5t89.5 -64t134.5 -21.5q77 0 144 36t97 110t30 327v1331h251v-1336q0 -318 -68 -434.5t-168 -172.5t-272 -56q-284 0 -401.5 117.5t-117.5 259.5v12z" />
    <glyph glyph-name="K" unicode="K" horiz-adv-x="1698" 
d="M436 0h-252v1940h252v-926l810 926h288l-801 -910l925 -1030h-317l-905 1014v-1014z" />
    <glyph glyph-name="L" unicode="L" horiz-adv-x="1494" 
d="M184 0v1940h252v-1726h1018v-214h-1270z" />
    <glyph glyph-name="M" unicode="M" horiz-adv-x="2018" 
d="M398 0h-214v1940h247l603 -1386l554 1386h245v-1940h-224v1156l6 347h-6l-125 -348l-344 -864h-254l-373 868l-115 315h-7l7 -315v-1159z" />
    <glyph glyph-name="N" unicode="N" horiz-adv-x="1814" 
d="M416 0h-232v1940h250l886 -1379l81 -153l-5 152v1380h233v-1940h-248l-888 1385l-82 156l5 -156v-1385z" />
    <glyph glyph-name="O" unicode="O" horiz-adv-x="1881" 
d="M940 -59q-364 0 -594 267.5t-230 761.5t230 761t594 267t594.5 -267t230.5 -761t-230.5 -761.5t-594.5 -267.5zM940 136q265 0 414 228.5t149 605.5q0 376 -149 605t-414 229q-264 0 -413 -229t-149 -605q0 -377 149 -605.5t413 -228.5z" />
    <glyph glyph-name="P" unicode="P" horiz-adv-x="1494" 
d="M436 0h-252v1940h540q309 0 435.5 -63t191 -185t64.5 -283q0 -273 -185.5 -458t-553.5 -185h-240v-766zM436 960h170q335 0 441.5 129t106.5 309q0 156 -85.5 251.5t-339.5 95.5h-293v-785z" />
    <glyph glyph-name="Q" unicode="Q" horiz-adv-x="1881" 
d="M941 -65q-316 27 -477 153t-254.5 340.5t-93.5 540.5q0 495 230 762t595 267q364 0 594 -267t230 -760q0 -247 -54.5 -435t-180 -335t-347.5 -225q126 -110 269 -165.5t303 -55.5q125 0 243 42v-222q-119 -40 -249 -40q-185 0 -364 71t-444 329zM941 136q264 0 413 228.5
t149 605.5q0 376 -149 605t-413 229q-265 0 -414 -229t-149 -605q0 -377 149 -605.5t414 -228.5z" />
    <glyph glyph-name="R" unicode="R" horiz-adv-x="1551" 
d="M436 0h-252v1940h600q221 0 332.5 -63.5t176.5 -184.5t65 -262q0 -114 -44 -218t-123.5 -188.5t-245.5 -150.5q63 -35 94 -66.5t76 -101.5t79 -131l309 -574h-289l-269 510q-97 185 -254 324h-255v-834zM436 1028h247q156 0 236.5 48t128 140t47.5 197q0 91 -37.5 163
t-110 120.5t-246.5 48.5h-265v-717z" />
    <glyph glyph-name="S" unicode="S" horiz-adv-x="1551" 
d="M136 436h253v-12q0 -161 113.5 -224.5t302.5 -63.5q165 0 277 96.5t112 253.5q0 128 -96 209q-97 80 -293 160l-101 41q-206 85 -308 168.5t-152 184.5t-50 226q0 220 155.5 371.5t486.5 151.5q304 0 428 -112.5t124 -262.5v-13h-253v13q0 47 -38 93.5t-114.5 67
t-167.5 20.5q-186 0 -275.5 -93t-89.5 -212q0 -80 42.5 -150.5t117 -117t250.5 -123.5l119 -52q285 -123 381 -260q95 -136 95 -293q0 -147 -77.5 -283.5t-215 -207.5t-366.5 -71q-217 0 -362.5 52t-221.5 171t-76 260v12z" />
    <glyph glyph-name="T" unicode="T" horiz-adv-x="1639" 
d="M699 0v1745h-660v195h1561v-195h-650v-1745h-251z" />
    <glyph glyph-name="U" unicode="U" 
d="M155 1940h253v-1247q0 -273 53 -366t165.5 -142t251.5 -49q133 0 236.5 49t154 154.5t50.5 441.5v1159h232v-1224q0 -340 -78 -477.5t-225.5 -217.5t-371.5 -80q-207 0 -379.5 64t-257 198.5t-84.5 455.5v1281z" />
    <glyph glyph-name="V" unicode="V" horiz-adv-x="1861" 
d="M1588 1940h235l-792 -1940h-253l-739 1940h275l615 -1626z" />
    <glyph glyph-name="W" unicode="W" horiz-adv-x="2424" 
d="M794 0h-256l-440 1940h241l309 -1366l42 -234h11l43 234l355 1366h250l346 -1370l40 -230h11l42 230l318 1370h222l-452 -1940h-256l-359 1391l-46 238h-12l-44 -238z" />
    <glyph glyph-name="X" unicode="X" horiz-adv-x="1561" 
d="M294 0h-255l621 985l-572 955h276l439 -732l466 732h251l-595 -935l598 -1005h-272l-467 781z" />
    <glyph glyph-name="Y" unicode="Y" horiz-adv-x="1561" 
d="M909 0h-251v914l-629 1026h294l485 -784l478 784h245l-622 -1026v-914z" />
    <glyph glyph-name="Z" unicode="Z" horiz-adv-x="1474" 
d="M1358 233v-233h-1260v233l963 1493h-896v214h1174v-214l-959 -1493h978z" />
    <glyph glyph-name="bracketleft" unicode="[" horiz-adv-x="1144" 
d="M921 -271v-194h-630v2521h630v-195h-416v-2132h416z" />
    <glyph glyph-name="backslash" unicode="\" horiz-adv-x="1378" 
d="M281 1998l1038 -2057h-218l-1042 2057h222z" />
    <glyph glyph-name="bracketright" unicode="]" horiz-adv-x="1144" 
d="M223 1861v195h630v-2521h-630v194h417v2132h-417z" />
    <glyph glyph-name="asciicircum" unicode="^" 
d="M1551 543h-213l-484 970l-485 -970h-214l699 1397z" />
    <glyph glyph-name="underscore" unicode="_" 
d="M78 -194v194h1551v-194h-1551z" />
    <glyph glyph-name="grave" unicode="`" horiz-adv-x="1513" 
d="M1028 1610h-213l-427 408h270z" />
    <glyph glyph-name="a" unicode="a" horiz-adv-x="1416" 
d="M1045 0q-36 113 -36 194q-153 -151 -261 -192t-207 -41q-166 0 -285.5 102t-119.5 281q0 202 168.5 312t579.5 190l125 24v158q0 128 -86.5 180t-207.5 52q-145 0 -226 -63.5t-81 -148.5v-20h-253v18q0 93 78 191.5t207.5 148.5t283.5 50q152 0 277 -47.5t182.5 -128
t57.5 -302.5v-543q0 -89 4.5 -187t44.5 -228h-245zM1009 705l-70 -17q-354 -87 -452.5 -164.5t-98.5 -184.5q0 -55 29 -102.5t86.5 -74t114.5 -26.5q97 0 191.5 57t147 152t52.5 221v139z" />
    <glyph glyph-name="b" unicode="b" horiz-adv-x="1561" 
d="M398 0h-233q6 69 10.5 167.5t7 161t2.5 84.5v1605h233v-864q76 119 143 172.5t146 81t167 27.5q159 0 291.5 -87t206 -259.5t73.5 -387.5q0 -318 -153.5 -529t-428.5 -211q-90 0 -169 26t-141 76.5t-135 180.5l-8 -101q-5 -84 -12 -143zM418 698q0 -238 102.5 -390.5
t287.5 -152.5q170 0 282.5 135t112.5 404q0 314 -115 435.5t-274 121.5q-111 0 -207 -66.5t-142.5 -198.5t-46.5 -288z" />
    <glyph glyph-name="c" unicode="c" horiz-adv-x="1396" 
d="M1056 359h234v-13q0 -93 -70.5 -188t-185 -146t-275.5 -51q-309 0 -476 196t-167 542q0 345 167 540.5t476 195.5q161 0 275.5 -50.5t185 -138.5t70.5 -196v-12h-234v12q4 76 -66.5 133.5t-218.5 57.5q-175 0 -293.5 -128.5t-118.5 -413.5q0 -286 118.5 -415t293.5 -129
q148 0 216.5 57.5t68.5 133.5v13z" />
    <glyph glyph-name="d" unicode="d" horiz-adv-x="1541" 
d="M1144 2018h232v-2018h-232v243q-71 -135 -138.5 -187.5t-152 -73.5t-167.5 -21q-157 0 -289.5 87t-206.5 259.5t-74 387.5q0 319 154 529.5t429 210.5q90 0 168.5 -25.5t140.5 -76t136 -180.5v865zM1144 699q0 237 -102.5 389.5t-287.5 152.5q-170 0 -282.5 -135
t-112.5 -403q0 -314 108.5 -436t280.5 -122q111 0 206.5 67.5t142.5 199t47 287.5z" />
    <glyph glyph-name="e" unicode="e" horiz-adv-x="1474" 
d="M1096 359h233v-13q0 -92 -74 -188.5t-195 -146.5t-279 -50q-318 0 -491.5 206.5t-173.5 521.5q0 322 183.5 534t471.5 212q159 0 288 -68.5t204 -214.5t75 -406v-77h-992q0 -224 121 -369t334 -145q154 0 224.5 59.5t70.5 131.5v13zM361 844h754v27q0 98 -47 190
t-129.5 136t-192.5 44q-130 0 -240 -104t-145 -293z" />
    <glyph glyph-name="f" unicode="f" horiz-adv-x="999" 
d="M543 0h-233v1203h-204v193h204v65q0 304 128 430.5t335 126.5q77 0 196 -18v-190q-98 13 -156 13q-113 0 -191.5 -55t-78.5 -263v-109h407v-193h-407v-1203z" />
    <glyph glyph-name="g" unicode="g" horiz-adv-x="1561" 
d="M1144 295q-71 -147 -185 -221t-270 -74q-249 0 -411 195.5t-162 514.5q0 210 72.5 382.5t204 257.5t307.5 85q131 0 235 -52t209 -210v223h232v-1141q0 -430 -90 -567.5t-228 -204t-324 -66.5q-173 0 -309.5 51.5t-208 141t-71.5 185.5v21h233v-20q0 -92 100 -148
t253 -56q125 0 214.5 43.5t144 140t54.5 352.5v167zM1144 740q0 224 -115 362.5t-275 138.5q-170 0 -282.5 -140t-112.5 -393q0 -160 45 -280t140.5 -182t204.5 -62q176 0 285.5 155.5t109.5 400.5z" />
    <glyph glyph-name="h" unicode="h" horiz-adv-x="1494" 
d="M416 0h-232v2018h232v-863q74 114 143.5 169t145 83t168.5 28q131 0 235.5 -53.5t162 -158t57.5 -334.5v-889h-233v789q0 187 -25 265.5t-95 122.5t-160 44q-102 0 -194.5 -60t-148.5 -167.5t-56 -307.5v-686z" />
    <glyph glyph-name="i" unicode="i" horiz-adv-x="601" 
d="M184 1396h232v-1396h-232v1396zM184 1706v234h232v-234h-232z" />
    <glyph glyph-name="j" unicode="j" horiz-adv-x="708" 
d="M281 1396h234v-1396q0 -211 -50.5 -315t-163 -166t-243.5 -62q-94 0 -203 22v185l50 -5q69 -8 110 -8q118 0 192 59.5t74 289.5v1396zM281 1716v224h234v-224h-234z" />
    <glyph glyph-name="k" unicode="k" horiz-adv-x="1378" 
d="M426 0h-242v2018h242v-1287l620 665h269l-605 -648l628 -748h-292l-620 731v-731z" />
    <glyph glyph-name="l" unicode="l" horiz-adv-x="601" 
d="M416 0h-232v2018h232v-2018z" />
    <glyph glyph-name="m" unicode="m" horiz-adv-x="2289" 
d="M416 0h-232v1396h232v-252q72 126 136 181t140.5 82.5t162.5 27.5t165 -27t136.5 -80.5t113.5 -183.5q71 121 140.5 178t142.5 85t156 28q119 0 215 -55.5t148 -158t52 -348.5v-873h-234v776q0 247 -29.5 312t-81 99t-125.5 34q-104 0 -191.5 -64t-140 -173t-52.5 -305
v-679h-232v776q0 247 -27 312t-86 100t-126 35q-95 0 -187 -67t-144 -177.5t-52 -299.5v-679z" />
    <glyph glyph-name="n" unicode="n" horiz-adv-x="1494" 
d="M416 0h-232v1396h232v-241q74 114 143.5 169t145 83t168.5 28q131 0 235.5 -53.5t162 -158t57.5 -334.5v-889h-233v789q0 187 -25 265.5t-97.5 122.5t-157.5 44q-102 0 -194.5 -60t-148.5 -167.5t-56 -307.5v-686z" />
    <glyph glyph-name="o" unicode="o" horiz-adv-x="1551" 
d="M776 -39q-273 0 -466.5 186t-193.5 552q0 365 193.5 550.5t466.5 185.5t466 -185.5t193 -550.5q0 -366 -193 -552t-466 -186zM776 155q188 0 302.5 149.5t114.5 394.5q0 244 -114.5 393t-302.5 149t-302.5 -149t-114.5 -393q0 -245 114.5 -394.5t302.5 -149.5z" />
    <glyph glyph-name="p" unicode="p" horiz-adv-x="1541" 
d="M398 -543h-233v1939h233v-242q72 124 137.5 175t148 78.5t170.5 27.5q160 0 292.5 -87t205.5 -259.5t73 -387.5q0 -318 -153 -529t-429 -211q-89 0 -168.5 26t-140.5 76.5t-136 180.5v-787zM398 698q0 -238 102.5 -390.5t288.5 -152.5q170 0 282.5 135t112.5 404
q0 314 -119 435.5t-271 121.5q-110 0 -205.5 -66.5t-143 -198.5t-47.5 -288z" />
    <glyph glyph-name="q" unicode="q" horiz-adv-x="1541" 
d="M1144 1396h232v-1939h-232v786q-73 -124 -138 -175.5t-148 -79t-170 -27.5q-159 0 -291.5 87t-206.5 259.5t-74 387.5q0 319 154 529.5t429 210.5q90 0 168.5 -25.5t140.5 -76t136 -180.5v243zM1144 699q0 237 -102.5 389.5t-287.5 152.5q-170 0 -282.5 -135t-112.5 -403
q0 -314 118.5 -436t270.5 -122q111 0 206.5 67.5t142.5 199t47 287.5z" />
    <glyph glyph-name="r" unicode="r" horiz-adv-x="989" 
d="M416 0h-232v1396h232v-246q58 106 126 165t145 89.5t157 30.5q72 0 125 -21v-241q-83 40 -175 40q-131 0 -254.5 -115t-123.5 -408v-690z" />
    <glyph glyph-name="s" unicode="s" horiz-adv-x="1304" 
d="M98 369h232v-5q0 -90 69 -149.5t232 -59.5q144 0 233.5 70t89.5 165q0 129 -175 183l-119 36l-79 25l-161 50q-276 101 -276 336q0 165 133.5 290t397.5 125q260 0 370 -107t110 -237v-5h-234v5q0 70 -70.5 110t-187.5 40q-140 0 -214.5 -58t-74.5 -143q0 -65 48 -105.5
t162 -73.5l112 -31l82 -24q170 -48 211.5 -68t84.5 -52q59 -45 87 -108.5t28 -148.5q0 -198 -142 -333t-414 -135q-173 0 -286.5 51.5t-181 142t-67.5 209.5v5z" />
    <glyph glyph-name="t" unicode="t" horiz-adv-x="1135" 
d="M1038 198v-195q-170 -42 -260 -42q-130 0 -234.5 52.5t-159 152.5t-54.5 319v718h-242v193h242v330h233v-330h407v-193h-407v-652q0 -185 28.5 -256.5t90.5 -105.5t148 -34q69 0 208 43z" />
    <glyph glyph-name="u" unicode="u" horiz-adv-x="1494" 
d="M1076 1396h233v-1396h-233v244q-72 -113 -142 -169t-144 -85t-161 -29q-194 0 -329 109.5t-135 440.5v885h233v-787q0 -306 81 -370t201 -64q104 0 196 60.5t146 170t54 304.5v686z" />
    <glyph glyph-name="v" unicode="v" horiz-adv-x="1445" 
d="M598 0l-569 1396h250l447 -1095l458 1095h231l-585 -1396h-232z" />
    <glyph glyph-name="w" unicode="w" horiz-adv-x="1998" 
d="M438 0l-399 1396h244l246 -868l32 -208h27l36 208l249 868h233l278 -866l47 -210h25l37 210l246 866h220l-399 -1396h-235l-287 913l-39 202h-20l-41 -202l-264 -913h-236z" />
    <glyph glyph-name="x" unicode="x" horiz-adv-x="1358" 
d="M310 0h-242l485 706l-457 690h268l325 -491l336 491h240l-456 -666l480 -730h-269l-349 530z" />
    <glyph glyph-name="y" unicode="y" horiz-adv-x="1464" 
d="M639 60l-600 1336h257l468 -1037l437 1037h234l-589 -1397q-118 -283 -198 -375t-169.5 -129.5t-238.5 -37.5h-175v194h131q97 0 169.5 25.5t120.5 82t129 247.5z" />
    <glyph glyph-name="z" unicode="z" horiz-adv-x="1416" 
d="M1280 194v-194h-1135v194l829 1009h-809v193h1085v-193l-814 -1009h844z" />
    <glyph glyph-name="braceleft" unicode="{" horiz-adv-x="1154" 
d="M261 893h67q121 0 163 63.5t42 148.5q0 101 -28 215l-30 129q-30 126 -30 239q0 166 117.5 267t281.5 101h19v-195h-24q-69 0 -124.5 -55t-55.5 -163q0 -37 6 -63l14 -61l27 -150q30 -169 30 -228q0 -98 -60.5 -197.5t-200.5 -148.5q140 -49 200.5 -148t60.5 -198
q0 -58 -30 -228l-27 -150l-14 -60q-6 -31 -6 -64q0 -107 55 -162.5t125 -55.5h24v-194h-19q-164 0 -281.5 100.5t-117.5 268.5q0 112 30 237l30 129q28 115 28 216q0 84 -42 148.5t-163 64.5h-67v194z" />
    <glyph glyph-name="bar" unicode="|" horiz-adv-x="630" 
d="M214 -59v2057h204v-2057h-204z" />
    <glyph glyph-name="braceright" unicode="}" horiz-adv-x="1154" 
d="M893 699h-67q-121 0 -163 -64.5t-42 -149.5q0 -100 27 -215l31 -129q30 -125 30 -237q0 -167 -117.5 -268t-281.5 -101h-19v194h24q69 0 124.5 55t55.5 165q0 35 -6 62l-14 60l-27 150q-30 170 -30 228q0 99 60.5 198t200.5 148q-140 49 -200.5 148.5t-60.5 199.5
q0 57 30 226l27 150l14 61q6 30 6 64q0 106 -55 161.5t-125 55.5h-24v195h19q164 0 281.5 -101t117.5 -269q0 -111 -30 -237l-31 -129q-27 -114 -27 -215q0 -85 42 -148.5t163 -63.5h67v-194z" />
    <glyph glyph-name="asciitilde" unicode="~" 
d="M155 504v22q0 164 97 284.5t261 120.5q41 0 80.5 -8t89.5 -27.5t150 -75.5l151 -84q139 -76 226 -76q93 0 137 67t44 146v20h160v-20q0 -209 -118 -308.5t-250 -99.5q-124 0 -328 116l-127 74q-145 83 -234 83q-50 0 -93 -26.5t-69.5 -84t-26.5 -101.5v-22h-150z" />
    <glyph glyph-name="nonbreakingspace" unicode="&#xa0;" 
 />
    <glyph glyph-name="exclamdown" unicode="&#xa1;" horiz-adv-x="776" 
d="M269 1397h233v-234h-233v234zM289 910h191l63 -1453h-310z" />
    <glyph glyph-name="cent" unicode="&#xa2;" 
d="M965 0h-193v237q-207 38 -310.5 131.5t-164 248.5t-60.5 352q0 186 55.5 338t171 260.5t308.5 138.5v233h193v-233q174 -26 260.5 -78.5t136 -134.5t49.5 -161v-14h-233v14q0 135 -213 177v-1083q118 24 165.5 82.5t47.5 108.5v14h233v-14q0 -109 -102.5 -227.5
t-343.5 -152.5v-237zM772 1505q-115 -38 -171 -108.5t-88.5 -178t-32.5 -251.5q0 -141 30.5 -242.5t89.5 -174t172 -112.5v1067z" />
    <glyph glyph-name="sterling" unicode="&#xa3;" 
d="M203 0v213q171 84 231 216t101 343l36 189h-262v192h302l58 300q44 219 105.5 322.5t158 162.5t228.5 59q57 0 114 -10t160 -64v-199q-143 60 -245 60q-87 0 -140 -36t-85.5 -116.5t-70.5 -267.5l-44 -211h412v-192h-450l-34 -169q-24 -117 -63.5 -238.5t-81.5 -189
t-139 -151.5h941v-213h-1232z" />
    <glyph glyph-name="currency" unicode="&#xa4;" 
d="M474 444l-231 -231l-137 137l232 231q-87 136 -106 214.5t-19 162.5q0 85 19 164.5t106 215.5l-232 231l137 139l231 -233q135 84 213.5 104t166.5 20t166.5 -20t211.5 -104l231 233l139 -139l-232 -231q87 -136 105 -215.5t18 -164.5q0 -84 -18 -162.5t-105 -214.5
l232 -231l-139 -137l-231 231q-137 -86 -215.5 -105.5t-162.5 -19.5t-162.5 19.5t-217.5 105.5zM854 514q185 0 315.5 131t130.5 313q0 121 -59 224.5t-164.5 164t-222.5 60.5t-222.5 -60.5t-164.5 -164t-59 -224.5q0 -182 130.5 -313t315.5 -131z" />
    <glyph glyph-name="yen" unicode="&#xa5;" 
d="M987 0h-231v319h-487v175h487v233h-487v183h470l-647 1029h262l534 -840l503 840h225l-613 -1029h460v-183h-476v-233h476v-175h-476v-319z" />
    <glyph glyph-name="brokenbar" unicode="&#xa6;" horiz-adv-x="631" 
d="M213 -58v912h205v-912h-205zM213 1087v910h205v-910h-205z" />
    <glyph glyph-name="section" unicode="&#xa7;" 
d="M1260 350q137 -97 174 -174.5t37 -167.5q0 -135 -70.5 -237.5t-201 -168.5t-353.5 -66q-410 0 -542.5 150.5t-132.5 329.5v12h251v-12q0 -94 46 -158.5t150.5 -96.5t227.5 -32q199 0 293.5 83.5t94.5 179.5q0 42 -19 80.5t-58 68.5q-78 62 -315 176l-269 131
q-195 93 -260 193q-66 98 -66 201q0 94 56.5 190.5t136.5 155.5q-96 74 -144.5 160.5t-48.5 186.5q0 203 169 332.5t470 129.5q296 0 420.5 -111.5t124.5 -263.5v-12h-251v12q0 92 -93.5 137t-236.5 45q-157 0 -258.5 -63t-101.5 -174q0 -88 75 -156q74 -71 241 -149
l231 -109q239 -110 336.5 -210.5t97.5 -241.5q0 -187 -211 -351zM1113 444q115 93 115 197q0 76 -54.5 143.5t-243.5 157.5l-329 157q-81 -68 -96 -122.5t-15 -98.5q0 -70 42.5 -122.5t217.5 -136.5z" />
    <glyph glyph-name="dieresis" unicode="&#xa8;" horiz-adv-x="1513" 
d="M370 1610v233h231v-233h-231zM910 1610v233h235v-233h-235z" />
    <glyph glyph-name="copyright" unicode="&#xa9;" horiz-adv-x="2251" 
d="M1539 547v-171q-142 -67 -349 -67q-189 0 -325 79.5t-214 243.5t-78 351q0 255 148.5 451t454.5 196q192 0 363 -63v-172q-169 78 -329 78q-183 0 -303.5 -118.5t-120.5 -377.5q0 -254 121.5 -378.5t318.5 -124.5q138 0 313 73zM1125 -58q-271 0 -507 132.5t-378 373.5
t-142 521q0 275 137 515t378 376.5t512 136.5q272 0 513 -136.5t378.5 -376.5t137.5 -515q0 -280 -142.5 -521t-379.5 -373.5t-507 -132.5zM1125 98q229 0 430 112t322.5 315.5t119.5 443.5q0 233 -116.5 437t-320.5 320.5t-435 116.5t-436 -116.5t-320.5 -320.5
t-115.5 -437q0 -240 120.5 -443.5t320.5 -315.5t431 -112z" />
    <glyph glyph-name="ordfeminine" unicode="&#xaa;" horiz-adv-x="854" 
d="M625 1131q-20 63 -22 103q-66 -63 -133.5 -94t-139.5 -31q-103 0 -177.5 63.5t-74.5 171.5q0 121 99.5 189.5t357.5 116.5l66 12v86q0 62 -41.5 94.5t-125.5 32.5q-82 0 -128.5 -34.5t-46.5 -90.5v-12h-171v12q0 67 48.5 125t129 91t174.5 33q95 0 172 -30t112.5 -80
t35.5 -183v-320q0 -150 36 -255h-171zM601 1545l-30 -8q-201 -48 -262.5 -92t-61.5 -105q0 -56 43.5 -82t85.5 -26q66 0 145.5 57t79.5 186v70z" />
    <glyph glyph-name="guillemotleft" unicode="&#xab;" horiz-adv-x="1368" 
d="M888 693l382 -538h-213l-408 446v195l418 446h203zM346 693l379 -538h-211l-408 446v195l418 446h201z" />
    <glyph glyph-name="logicalnot" unicode="&#xac;" 
d="M1551 796v-603h-193v408h-1203v195h1396z" />
    <glyph glyph-name="uni00AD" unicode="&#xad;" horiz-adv-x="971" 
d="M98 689v193h776v-193h-776z" />
    <glyph glyph-name="registered" unicode="&#xae;" horiz-adv-x="2251" 
d="M930 330h-199v1269h404q147 0 223.5 -43t119.5 -122.5t43 -173.5q0 -109 -61 -207.5t-188 -152.5q66 -42 143 -181l209 -389h-227l-175 331l-40 78q-71 125 -103 125h-149v-534zM930 1017h139q139 0 192 72t53 159q0 54 -21 97.5t-63 72.5t-147 29h-153v-430zM1125 -58
q-271 0 -507 132.5t-378 373.5t-142 521q0 275 137 515t378 376.5t512 136.5q272 0 513 -136.5t378.5 -376.5t137.5 -515q0 -280 -142.5 -521t-379.5 -373.5t-507 -132.5zM1125 98q229 0 430 112t322.5 315.5t119.5 443.5q0 233 -116.5 437t-320.5 320.5t-435 116.5
t-436 -116.5t-320.5 -320.5t-115.5 -437q0 -240 120.5 -443.5t320.5 -315.5t431 -112z" />
    <glyph glyph-name="macron" unicode="&#xaf;" horiz-adv-x="1513" 
d="M408 1610v154h699v-154h-699z" />
    <glyph glyph-name="degree" unicode="&#xb0;" horiz-adv-x="872" 
d="M438 1318q-143 0 -241.5 100.5t-98.5 239.5q0 140 100.5 239.5t239.5 99.5t238.5 -99.5t99.5 -239.5q0 -139 -98.5 -239.5t-239.5 -100.5zM438 1435q92 0 156.5 67t64.5 156q0 90 -65.5 156.5t-155.5 66.5q-92 0 -158.5 -66.5t-66.5 -156.5q0 -89 64.5 -156t160.5 -67z
" />
    <glyph glyph-name="plusminus" unicode="&#xb1;" 
d="M1551 1182v-193h-601v-601h-194v601h-601v193h601v602h194v-602h601zM1551 193v-193h-1396v193h1396z" />
    <glyph glyph-name="twosuperior" unicode="&#xb2;" horiz-adv-x="1027" 
d="M106 806v144q0 81 60.5 198.5t199.5 217.5l78 59l74 56q115 88 138 132.5t23 86.5q0 58 -52 100.5t-149 42.5q-82 0 -125.5 -27.5t-43.5 -59.5v-30h-174v32q0 79 87 159t264 80q209 0 297.5 -87t88.5 -204q0 -64 -28 -127.5t-106.5 -130t-134.5 -104.5l-56 -36
q-260 -173 -260 -331v-6h605v-165h-786z" />
    <glyph glyph-name="threesuperior" unicode="&#xb3;" horiz-adv-x="1027" 
d="M305 1368v155h91q98 0 151.5 28t85.5 70.5t34 86.5q0 50 -40 92.5t-141 42.5q-94 0 -137.5 -32.5t-43.5 -66.5v-28h-154v28q0 64 49 124.5t132.5 94.5t177.5 34q145 0 242.5 -69t97.5 -194q0 -68 -31 -134.5t-162 -138.5q159 -75 200 -150t41 -164q0 -142 -105.5 -256.5
t-318.5 -114.5q-148 0 -240.5 68t-92.5 175v28h164v-28q0 -28 35.5 -58.5t145.5 -30.5q131 0 179 69.5t48 145.5q0 89 -78 156t-253 67h-77z" />
    <glyph glyph-name="acute" unicode="&#xb4;" horiz-adv-x="1513" 
d="M436 1610l370 407h271l-428 -407h-213z" />
    <glyph glyph-name="mu" unicode="&#xb5;" horiz-adv-x="1513" 
d="M169 -464h-233l373 1861h232l-159 -794q-28 -143 -28 -215q0 -113 63 -163t156 -50q112 0 213.5 59t179 168.5t117.5 310.5l137 684h233l-279 -1397h-234l49 239q-143 -155 -260.5 -216t-228.5 -61q-140 0 -229 84z" />
    <glyph glyph-name="paragraph" unicode="&#xb6;" 
d="M1445 -464h-193v2208h-271v-2208h-195v1308q-292 0 -475.5 157.5t-183.5 378.5q0 147 79 285.5t232 206t452 67.5h760v-195h-205v-2208z" />
    <glyph glyph-name="periodcentered" unicode="&#xb7;" 
d="M689 535v327h330v-327h-330z" />
    <glyph glyph-name="cedilla" unicode="&#xb8;" horiz-adv-x="1513" 
d="M844 0l-92 -163q134 -28 175.5 -83t41.5 -116q0 -68 -55.5 -125.5t-172.5 -57.5q-104 0 -198 37v110q72 -38 148 -38q44 0 79.5 26t35.5 54q0 87 -233 109l136 247h135z" />
    <glyph glyph-name="onesuperior" unicode="&#xb9;" horiz-adv-x="1027" 
d="M450 806v974l-241 -90v167l241 112h175v-1163h-175z" />
    <glyph glyph-name="ordmasculine" unicode="&#xba;" horiz-adv-x="950" 
d="M474 1109q-163 0 -283.5 110.5t-120.5 333.5q0 221 119.5 332.5t284.5 111.5q167 0 287.5 -111.5t120.5 -332.5q0 -223 -120.5 -333.5t-287.5 -110.5zM474 1242q111 0 176 86.5t65 224.5q0 139 -65 225.5t-176 86.5q-108 0 -173.5 -86.5t-65.5 -225.5q0 -138 65.5 -224.5
t173.5 -86.5z" />
    <glyph glyph-name="guillemotright" unicode="&#xbb;" horiz-adv-x="1368" 
d="M480 703l-382 539h211l408 -446v-195l-418 -446h-201zM1023 703l-382 539h213l408 -446v-195l-420 -446h-201z" />
    <glyph glyph-name="onequarter" unicode="&#xbc;" horiz-adv-x="2317" 
d="M392 766v976l-241 -90v165l241 112h175v-1163h-175zM223 -98l1477 2057h221l-1449 -2057h-249zM2003 -38h-176v337h-561v143l571 683h166v-669h165v-157h-165v-337zM1827 456v416l-346 -416h346z" />
    <glyph glyph-name="onehalf" unicode="&#xbd;" horiz-adv-x="2317" 
d="M352 806v974l-241 -90v167l241 112h176v-1163h-176zM183 -58l1479 2055h219l-1449 -2055h-249zM1421 0v145q0 82 60 198.5t197 217.5l80 60l75 56q114 89 137 132t23 85q0 58 -53 100.5t-148 42.5q-84 0 -126 -26t-42 -61v-30h-173v32q0 81 86.5 160.5t262.5 79.5
q209 0 297.5 -87.5t88.5 -202.5q0 -64 -27 -128.5t-106.5 -130.5t-135.5 -102l-56 -39q-259 -170 -259 -329v-8h604v-165h-785z" />
    <glyph glyph-name="threequarters" unicode="&#xbe;" horiz-adv-x="2317" 
d="M257 1368v155h91q96 0 149.5 28t86.5 70.5t33 86.5q0 50 -40 92.5t-139 42.5q-94 0 -137.5 -32.5t-43.5 -66.5v-28h-155v28q0 64 49.5 124.5t131 94.5t179.5 34q145 0 241.5 -69t96.5 -194q0 -68 -30.5 -134.5t-162.5 -138.5q159 -75 200 -150t41 -164
q0 -142 -105.5 -256.5t-316.5 -114.5q-149 0 -241.5 68t-92.5 175v28h165v-28q0 -28 35.5 -58.5t145.5 -30.5q129 0 178 69.5t49 145.5q0 89 -79.5 156t-253.5 67h-75zM283 -98l1475 2057h221l-1449 -2057h-247zM2062 -38h-175v337h-563v143l573 683h165v-669h164v-157h-164
v-337zM1887 456v416l-348 -416h348z" />
    <glyph glyph-name="questiondown" unicode="&#xbf;" horiz-adv-x="1455" 
d="M719 902h231v-118q0 -203 -64 -332.5t-136 -208.5l-99 -106q-96 -105 -136.5 -170t-40.5 -128q0 -106 96.5 -176.5t235.5 -70.5q118 0 184.5 44.5t66.5 136.5v14h243v-14q0 -86 -66.5 -178.5t-188 -144t-263.5 -51.5q-151 0 -280.5 57.5t-199 156t-69.5 206.5
q0 60 28 151.5t171 226.5l88 80q87 83 143 172.5t56 283.5v169zM719 1397h231v-234h-231v234z" />
    <glyph glyph-name="Agrave" unicode="&#xc0;" horiz-adv-x="1861" 
d="M273 0h-235l796 1939h255l734 -1939h-274l-201 535h-856zM569 727h705l-340 903zM1153 2152h-299l-494 253h406z" />
    <glyph glyph-name="Aacute" unicode="&#xc1;" horiz-adv-x="1861" 
d="M273 0h-235l796 1939h255l734 -1939h-274l-201 535h-856zM569 727h705l-340 903zM660 2152l388 253h407l-496 -253h-299z" />
    <glyph glyph-name="Acircumflex" unicode="&#xc2;" horiz-adv-x="1861" 
d="M273 0h-235l796 1939h255l734 -1939h-274l-201 535h-856zM569 727h705l-340 903zM945 2230l-172 -78h-272l368 253h155l368 -253h-272z" />
    <glyph glyph-name="Atilde" unicode="&#xc3;" horiz-adv-x="1861" 
d="M273 0h-235l796 1939h255l734 -1939h-274l-201 535h-856zM569 727h705l-340 903zM672 2152h-155q12 86 56.5 144.5t92.5 83.5t113 25q78 0 160 -28l123 -40q76 -26 112 -26q37 0 62 16t45 78h155q-26 -134 -105.5 -193.5t-166.5 -59.5q-54 0 -166 42l-85 32l-30 12
q-62 23 -100 23q-25 0 -63 -18.5t-48 -90.5z" />
    <glyph glyph-name="Adieresis" unicode="&#xc4;" horiz-adv-x="1861" 
d="M273 0h-235l796 1939h255l734 -1939h-274l-201 535h-856zM569 727h705l-340 903zM563 2152v233h233v-233h-233zM1105 2152v233h233v-233h-233z" />
    <glyph glyph-name="Aring" unicode="&#xc5;" horiz-adv-x="1861" 
d="M844 2134q0 -48 33 -82.5t84 -34.5q46 0 81 34.5t35 82.5t-35 82.5t-81 34.5q-51 0 -84 -35.5t-33 -81.5zM1089 1939l734 -1939h-274l-201 535h-856l-219 -535h-235l796 1939q-52 38 -79.5 86.5t-27.5 108.5q0 94 67.5 163.5t166.5 69.5q94 0 162.5 -69.5t68.5 -163.5
q0 -58 -25.5 -106.5t-77.5 -88.5zM569 727h705l-340 903z" />
    <glyph glyph-name="AE" unicode="&#xc6;" horiz-adv-x="2540" 
d="M1252 0v535h-645l-350 -535h-257l1252 1939h1095v-213h-844v-611h738v-195h-738v-707h912v-213h-1163zM1252 727v806l-523 -806h523z" />
    <glyph glyph-name="Ccedilla" unicode="&#xc7;" horiz-adv-x="1668" 
d="M914 -163q133 -28 174 -83t41 -116q0 -68 -54 -125.5t-173 -57.5q-102 0 -199 37v110q73 -38 149 -38q44 0 78.5 26t34.5 54q0 87 -232 109l105 189q-241 28 -406 167.5t-240 326.5t-75 498q0 384 99 600t288 340.5t454 124.5q181 0 318 -56t216 -174.5t79 -233.5v-12
h-233v12q0 75 -45 139t-127.5 97t-198.5 33q-298 0 -443.5 -235t-145.5 -598q0 -368 145.5 -602t441.5 -234q202 0 287.5 84t85.5 187v12h233v-12q0 -103 -68 -216.5t-187.5 -173.5t-344.5 -74z" />
    <glyph glyph-name="Egrave" unicode="&#xc8;" horiz-adv-x="1473" 
d="M183 0v1939h1097v-213h-844v-611h738v-195h-738v-707h912v-213h-1165zM989 2152h-300l-496 253h408z" />
    <glyph glyph-name="Eacute" unicode="&#xc9;" horiz-adv-x="1473" 
d="M183 0v1939h1097v-213h-844v-611h738v-195h-738v-707h912v-213h-1165zM417 2152l387 253h408l-494 -253h-301z" />
    <glyph glyph-name="Ecircumflex" unicode="&#xca;" horiz-adv-x="1473" 
d="M183 0v1939h1097v-213h-844v-611h738v-195h-738v-707h912v-213h-1165zM781 2230l-175 -78h-271l367 253h155l370 -253h-271z" />
    <glyph glyph-name="Edieresis" unicode="&#xcb;" horiz-adv-x="1473" 
d="M183 0v1939h1097v-213h-844v-611h738v-195h-738v-707h912v-213h-1165zM368 2152v233h233v-233h-233zM910 2152v233h233v-233h-233z" />
    <glyph glyph-name="Igrave" unicode="&#xcc;" horiz-adv-x="621" 
d="M436 0h-253v1939h253v-1939zM635 2152h-302l-494 253h408z" />
    <glyph glyph-name="Iacute" unicode="&#xcd;" horiz-adv-x="621" 
d="M436 0h-253v1939h253v-1939zM-40 2152l388 253h408l-494 -253h-302z" />
    <glyph glyph-name="Icircumflex" unicode="&#xce;" horiz-adv-x="621" 
d="M436 0h-253v1939h253v-1939zM325 2230l-175 -78h-272l368 253h155l370 -253h-272z" />
    <glyph glyph-name="Idieresis" unicode="&#xcf;" horiz-adv-x="621" 
d="M436 0h-253v1939h253v-1939zM-88 2152v233h233v-233h-233zM454 2152v233h233v-233h-233z" />
    <glyph glyph-name="Eth" unicode="&#xd0;" horiz-adv-x="1794" 
d="M183 0v892h-231v195h231v852h536q394 0 575 -105.5t282.5 -323.5t101.5 -533q0 -294 -92.5 -509t-277.5 -341.5t-552 -126.5h-573zM436 213h297q268 0 403.5 78.5t207 245t71.5 419.5q0 254 -65.5 435.5t-200 267t-420.5 85.5h-293v-657h350v-195h-350v-679z" />
    <glyph glyph-name="Ntilde" unicode="&#xd1;" horiz-adv-x="1815" 
d="M416 0h-233v1939h251l886 -1378l81 -153l-4 153v1378h233v-1939h-250l-888 1384l-80 157l4 -157v-1384zM616 2152h-153q10 86 54.5 144.5t93.5 83.5t113 25q77 0 159 -28l125 -40q76 -26 110 -26q38 0 63.5 16t45.5 78h153q-25 -134 -104 -193.5t-168 -59.5
q-54 0 -165 42l-84 32l-32 12q-62 23 -99 23q-24 0 -62 -18.5t-50 -90.5z" />
    <glyph glyph-name="Ograve" unicode="&#xd2;" horiz-adv-x="1881" 
d="M940 -58q-363 0 -593 267t-230 762q0 492 230 759t593 267q364 0 594 -267t230 -759q0 -495 -230 -762t-594 -267zM940 137q266 0 414.5 228t148.5 606q0 375 -148.5 604t-414.5 229q-263 0 -412.5 -229t-149.5 -604q0 -378 149.5 -606t412.5 -228zM1163 2152h-299
l-494 253h406z" />
    <glyph glyph-name="Oacute" unicode="&#xd3;" horiz-adv-x="1881" 
d="M940 -58q-363 0 -593 267t-230 762q0 492 230 759t593 267q364 0 594 -267t230 -759q0 -495 -230 -762t-594 -267zM940 137q266 0 414.5 228t148.5 606q0 375 -148.5 604t-414.5 229q-263 0 -412.5 -229t-149.5 -604q0 -378 149.5 -606t412.5 -228zM591 2152l388 253h408
l-494 -253h-302z" />
    <glyph glyph-name="Ocircumflex" unicode="&#xd4;" horiz-adv-x="1881" 
d="M940 -58q-363 0 -593 267t-230 762q0 492 230 759t593 267q364 0 594 -267t230 -759q0 -495 -230 -762t-594 -267zM940 137q266 0 414.5 228t148.5 606q0 375 -148.5 604t-414.5 229q-263 0 -412.5 -229t-149.5 -604q0 -378 149.5 -606t412.5 -228zM956 2230l-175 -78
h-272l368 253h155l370 -253h-272z" />
    <glyph glyph-name="Otilde" unicode="&#xd5;" horiz-adv-x="1881" 
d="M940 -58q-363 0 -593 267t-230 762q0 492 230 759t593 267q364 0 594 -267t230 -759q0 -495 -230 -762t-594 -267zM940 137q266 0 414.5 228t148.5 606q0 375 -148.5 604t-414.5 229q-263 0 -412.5 -229t-149.5 -604q0 -378 149.5 -606t412.5 -228zM652 2152h-155
q12 86 56.5 144.5t92.5 83.5t113 25q78 0 160 -28l123 -40q76 -26 112 -26q37 0 62 16t45 78h155q-26 -134 -105.5 -193.5t-166.5 -59.5q-54 0 -166 42l-85 32l-30 12q-62 23 -100 23q-24 0 -62.5 -18.5t-48.5 -90.5z" />
    <glyph glyph-name="Odieresis" unicode="&#xd6;" horiz-adv-x="1881" 
d="M940 -58q-363 0 -593 267t-230 762q0 492 230 759t593 267q364 0 594 -267t230 -759q0 -495 -230 -762t-594 -267zM940 137q266 0 414.5 228t148.5 606q0 375 -148.5 604t-414.5 229q-263 0 -412.5 -229t-149.5 -604q0 -378 149.5 -606t412.5 -228zM541 2152v233h233
v-233h-233zM1083 2152v233h235v-233h-235z" />
    <glyph glyph-name="multiply" unicode="&#xd7;" 
d="M1551 135l-144 -135l-553 563l-571 -563l-128 145l556 554l-556 565l138 133l561 -559l547 559l150 -125l-566 -573z" />
    <glyph glyph-name="Oslash" unicode="&#xd8;" horiz-adv-x="1881" 
d="M346 -58h-229l198 305q-128 179 -163 366t-35 382q0 460 229 731t602 271q260 0 467 -158l112 158h237l-205 -301q123 -167 164 -343.5t41 -387.5q0 -348 -104.5 -565t-287 -337.5t-430.5 -120.5q-283 0 -488 158zM468 466l822 1190q-112 102 -205.5 125t-156.5 23
q-259 0 -409.5 -226t-150.5 -593q0 -111 16 -232.5t84 -286.5zM1407 1477l-822 -1188q146 -152 353 -152q270 0 417.5 229t147.5 611q0 289 -96 500z" />
    <glyph glyph-name="Ugrave" unicode="&#xd9;" 
d="M155 1939h253v-1246q0 -273 53 -366.5t165.5 -141.5t251.5 -48q133 0 236.5 48t153.5 153.5t50 443.5v1157h233v-1224q0 -339 -78 -477t-226 -217t-371 -79q-207 0 -379.5 63t-257 198t-84.5 456v1280zM1177 2152h-301l-495 253h408z" />
    <glyph glyph-name="Uacute" unicode="&#xda;" 
d="M155 1939h253v-1246q0 -273 53 -366.5t165.5 -141.5t251.5 -48q133 0 236.5 48t153.5 153.5t50 443.5v1157h233v-1224q0 -339 -78 -477t-226 -217t-371 -79q-207 0 -379.5 63t-257 198t-84.5 456v1280zM537 2152l389 253h408l-496 -253h-301z" />
    <glyph glyph-name="Ucircumflex" unicode="&#xdb;" 
d="M155 1939h253v-1246q0 -273 53 -366.5t165.5 -141.5t251.5 -48q133 0 236.5 48t153.5 153.5t50 443.5v1157h233v-1224q0 -339 -78 -477t-226 -217t-371 -79q-207 0 -379.5 63t-257 198t-84.5 456v1280zM867 2230l-173 -78h-271l368 253h154l368 -253h-271z" />
    <glyph glyph-name="Udieresis" unicode="&#xdc;" 
d="M155 1939h253v-1246q0 -273 53 -366.5t165.5 -141.5t251.5 -48q133 0 236.5 48t153.5 153.5t50 443.5v1157h233v-1224q0 -339 -78 -477t-226 -217t-371 -79q-207 0 -379.5 63t-257 198t-84.5 456v1280zM454 2152v233h233v-233h-233zM997 2152v233h235v-233h-235z" />
    <glyph glyph-name="Yacute" unicode="&#xdd;" horiz-adv-x="1561" 
d="M908 0h-251v914l-629 1025h294l486 -784l478 784h245l-623 -1025v-914zM455 2152l388 253h408l-494 -253h-302z" />
    <glyph glyph-name="Thorn" unicode="&#xde;" horiz-adv-x="1493" 
d="M436 0h-253v1939h253v-350h287q310 0 436.5 -63t191 -183.5t64.5 -283.5q0 -271 -186 -456t-552 -185h-241v-418zM436 611h171q333 0 439.5 128.5t106.5 307.5q0 157 -85 253.5t-339 96.5h-293v-786z" />
    <glyph glyph-name="germandbls" unicode="&#xdf;" horiz-adv-x="1513" 
d="M183 0v1437q0 221 63 338.5t173.5 179.5t271.5 62q193 0 332.5 -83t139.5 -250q0 -95 -47 -174t-121 -158l-57 -58q-104 -108 -104 -163q0 -76 157 -193l52 -40l70 -52l97 -76q225 -185 225 -398q0 -173 -118.5 -291.5t-343.5 -118.5q-183 0 -324 52v215q111 -48 208 -61
t134 -13q76 0 138.5 48t62.5 139q0 74 -45.5 143.5t-212.5 199.5l-70 54q-28 23 -54 43q-149 112 -184 173.5t-35 127.5q0 105 110 229q28 32 36 40l69 79q114 138 114 227q0 64 -68 115.5t-167 51.5q-112 0 -190.5 -71.5t-78.5 -294.5v-1459h-233z" />
    <glyph glyph-name="agrave" unicode="&#xe0;" horiz-adv-x="1417" 
d="M1045 0q-36 113 -36 193q-153 -151 -260.5 -191t-207.5 -40q-165 0 -284.5 101.5t-119.5 280.5q0 203 167.5 312.5t579.5 189.5l125 24v157q0 128 -86.5 180.5t-207.5 52.5q-144 0 -225.5 -63.5t-81.5 -149.5v-20h-253v20q0 92 78 190.5t208 149t282 50.5
q153 0 277.5 -48.5t183 -128.5t58.5 -302v-542q0 -90 4 -187.5t44 -228.5h-245zM1009 705l-71 -18q-353 -86 -451.5 -163.5t-98.5 -183.5q0 -57 29 -104t86.5 -73t113.5 -26q98 0 192.5 56t147 151.5t52.5 222.5v138zM1081 1610h-213l-426 407h269z" />
    <glyph glyph-name="aacute" unicode="&#xe1;" horiz-adv-x="1417" 
d="M1045 0q-36 113 -36 193q-153 -151 -260.5 -191t-207.5 -40q-165 0 -284.5 101.5t-119.5 280.5q0 203 167.5 312.5t579.5 189.5l125 24v157q0 128 -86.5 180.5t-207.5 52.5q-144 0 -225.5 -63.5t-81.5 -149.5v-20h-253v20q0 92 78 190.5t208 149t282 50.5
q153 0 277.5 -48.5t183 -128.5t58.5 -302v-542q0 -90 4 -187.5t44 -228.5h-245zM1009 705l-71 -18q-353 -86 -451.5 -163.5t-98.5 -183.5q0 -57 29 -104t86.5 -73t113.5 -26q98 0 192.5 56t147 151.5t52.5 222.5v138zM480 1610l370 407h269l-426 -407h-213z" />
    <glyph glyph-name="acircumflex" unicode="&#xe2;" horiz-adv-x="1417" 
d="M1045 0q-36 113 -36 193q-153 -151 -260.5 -191t-207.5 -40q-165 0 -284.5 101.5t-119.5 280.5q0 203 167.5 312.5t579.5 189.5l125 24v157q0 128 -86.5 180.5t-207.5 52.5q-144 0 -225.5 -63.5t-81.5 -149.5v-20h-253v20q0 92 78 190.5t208 149t282 50.5
q153 0 277.5 -48.5t183 -128.5t58.5 -302v-542q0 -90 4 -187.5t44 -228.5h-245zM1009 705l-71 -18q-353 -86 -451.5 -163.5t-98.5 -183.5q0 -57 29 -104t86.5 -73t113.5 -26q98 0 192.5 56t147 151.5t52.5 222.5v138zM733 1821l-176 -211h-193l291 407h155l291 -407h-195z
" />
    <glyph glyph-name="atilde" unicode="&#xe3;" horiz-adv-x="1417" 
d="M1045 0q-36 113 -36 193q-153 -151 -260.5 -191t-207.5 -40q-165 0 -284.5 101.5t-119.5 280.5q0 203 167.5 312.5t579.5 189.5l125 24v157q0 128 -86.5 180.5t-207.5 52.5q-144 0 -225.5 -63.5t-81.5 -149.5v-20h-253v20q0 92 78 190.5t208 149t282 50.5
q153 0 277.5 -48.5t183 -128.5t58.5 -302v-542q0 -90 4 -187.5t44 -228.5h-245zM1009 705l-71 -18q-353 -86 -451.5 -163.5t-98.5 -183.5q0 -57 29 -104t86.5 -73t113.5 -26q98 0 192.5 56t147 151.5t52.5 222.5v138zM462 1610h-157q0 164 64.5 241.5t160.5 77.5
q79 0 159 -48l52 -32q105 -65 145 -65q75 0 75 145h158q-6 -127 -32 -185t-81.5 -96t-119.5 -38q-84 0 -177 60l-54 36q-74 48 -104 48q-89 0 -89 -144z" />
    <glyph glyph-name="adieresis" unicode="&#xe4;" horiz-adv-x="1417" 
d="M1045 0q-36 113 -36 193q-153 -151 -260.5 -191t-207.5 -40q-165 0 -284.5 101.5t-119.5 280.5q0 203 167.5 312.5t579.5 189.5l125 24v157q0 128 -86.5 180.5t-207.5 52.5q-144 0 -225.5 -63.5t-81.5 -149.5v-20h-253v20q0 92 78 190.5t208 149t282 50.5
q153 0 277.5 -48.5t183 -128.5t58.5 -302v-542q0 -90 4 -187.5t44 -228.5h-245zM1009 705l-71 -18q-353 -86 -451.5 -163.5t-98.5 -183.5q0 -57 29 -104t86.5 -73t113.5 -26q98 0 192.5 56t147 151.5t52.5 222.5v138zM326 1610v233h231v-233h-231zM868 1610v233h233v-233
h-233z" />
    <glyph glyph-name="aring" unicode="&#xe5;" horiz-adv-x="1417" 
d="M1045 0q-36 113 -36 193q-153 -151 -260.5 -191t-207.5 -40q-165 0 -284.5 101.5t-119.5 280.5q0 203 167.5 312.5t579.5 189.5l125 24v157q0 128 -86.5 180.5t-207.5 52.5q-144 0 -225.5 -63.5t-81.5 -149.5v-20h-253v20q0 92 78 190.5t208 149t282 50.5
q153 0 277.5 -48.5t183 -128.5t58.5 -302v-542q0 -90 4 -187.5t44 -228.5h-245zM1009 705l-71 -18q-353 -86 -451.5 -163.5t-98.5 -183.5q0 -57 29 -104t86.5 -73t113.5 -26q98 0 192.5 56t147 151.5t52.5 222.5v138zM713 1726q49 0 82 34t33 83q0 48 -33 82t-82 34
q-48 0 -82 -34t-34 -82q0 -49 34 -83t82 -34zM713 1610q-98 0 -165.5 70t-67.5 163q0 94 68.5 163.5t164.5 69.5q97 0 164 -69.5t67 -163.5q0 -93 -67 -163t-164 -70z" />
    <glyph glyph-name="ae" unicode="&#xe6;" horiz-adv-x="2377" 
d="M1202 1180q58 102 123.5 151t156.5 76.5t192 27.5q247 0 407 -163t160 -527v-76h-991l-2 -44q0 -175 122.5 -322.5t333.5 -147.5q161 0 227 69t66 122v14h244v-14q0 -91 -77.5 -188.5t-204 -146.5t-267.5 -49q-155 0 -305.5 64t-245.5 267q-126 -182 -269 -256.5
t-309 -74.5q-197 0 -311.5 106.5t-114.5 275.5q0 114 56 200.5t196.5 155t498.5 144.5l149 30v58q0 197 -89.5 263.5t-224.5 66.5q-152 0 -233.5 -64.5t-81.5 -150.5v-20h-251v18q0 94 76 188.5t207 148t275 53.5q137 0 268.5 -49.5t218.5 -205.5zM1037 707l-87 -22
q-289 -74 -379.5 -119.5t-131.5 -104.5t-41 -123q0 -101 76.5 -151t162.5 -50q96 0 196.5 64t152 183.5t51.5 260.5v62zM1266 844h751v30q0 84 -48 181.5t-134.5 142t-184.5 44.5q-137 0 -247.5 -110.5t-136.5 -287.5z" />
    <glyph glyph-name="ccedilla" unicode="&#xe7;" horiz-adv-x="1397" 
d="M733 -163q135 -28 176 -83t41 -116q0 -68 -55 -125.5t-172 -57.5q-104 0 -199 37v110q73 -38 149 -38q42 0 77.5 26t35.5 54q0 87 -231 109l114 211q-271 40 -411.5 213t-140.5 502q0 374 169.5 565t473.5 191q160 0 274.5 -50.5t185 -146t70.5 -187.5v-14h-233v14
q0 74 -72.5 132.5t-212.5 58.5q-175 0 -293.5 -128.5t-118.5 -414.5q0 -287 118.5 -415.5t293.5 -128.5q140 0 212.5 57t72.5 134v14h231v-14q0 -89 -62.5 -178.5t-165 -141.5t-254.5 -62z" />
    <glyph glyph-name="egrave" unicode="&#xe8;" horiz-adv-x="1473" 
d="M1115 360h233v-14q0 -93 -74 -189.5t-195 -145.5t-279 -49q-320 0 -492.5 206t-172.5 521q0 322 182.5 534t472.5 212q158 0 287 -68.5t204 -214t75 -407.5v-76h-990q0 -225 120.5 -369.5t333.5 -144.5q155 0 225 59t70 132v14zM380 844h753v28q0 97 -46 189
t-129.5 136.5t-191.5 44.5q-131 0 -240.5 -104.5t-145.5 -293.5zM1117 1610h-213l-428 407h269z" />
    <glyph glyph-name="eacute" unicode="&#xe9;" horiz-adv-x="1473" 
d="M1115 360h233v-14q0 -93 -74 -189.5t-195 -145.5t-279 -49q-320 0 -492.5 206t-172.5 521q0 322 182.5 534t472.5 212q158 0 287 -68.5t204 -214t75 -407.5v-76h-990q0 -225 120.5 -369.5t333.5 -144.5q155 0 225 59t70 132v14zM380 844h753v28q0 97 -46 189
t-129.5 136.5t-191.5 44.5q-131 0 -240.5 -104.5t-145.5 -293.5zM514 1610l370 407h271l-428 -407h-213z" />
    <glyph glyph-name="ecircumflex" unicode="&#xea;" horiz-adv-x="1473" 
d="M1115 360h233v-14q0 -93 -74 -189.5t-195 -145.5t-279 -49q-320 0 -492.5 206t-172.5 521q0 322 182.5 534t472.5 212q158 0 287 -68.5t204 -214t75 -407.5v-76h-990q0 -225 120.5 -369.5t333.5 -144.5q155 0 225 59t70 132v14zM380 844h753v28q0 97 -46 189
t-129.5 136.5t-191.5 44.5q-131 0 -240.5 -104.5t-145.5 -293.5zM748 1821l-175 -211h-195l291 407h157l291 -407h-197z" />
    <glyph glyph-name="edieresis" unicode="&#xeb;" horiz-adv-x="1473" 
d="M1115 360h233v-14q0 -93 -74 -189.5t-195 -145.5t-279 -49q-320 0 -492.5 206t-172.5 521q0 322 182.5 534t472.5 212q158 0 287 -68.5t204 -214t75 -407.5v-76h-990q0 -225 120.5 -369.5t333.5 -144.5q155 0 225 59t70 132v14zM380 844h753v28q0 97 -46 189
t-129.5 136.5t-191.5 44.5q-131 0 -240.5 -104.5t-145.5 -293.5zM360 1610v233h233v-233h-233zM902 1610v233h233v-233h-233z" />
    <glyph glyph-name="igrave" unicode="&#xec;" horiz-adv-x="601" 
d="M183 1397h233v-1397h-233v1397zM669 1610h-213l-428 407h271z" />
    <glyph glyph-name="iacute" unicode="&#xed;" horiz-adv-x="601" 
d="M183 1397h233v-1397h-233v1397zM28 1610l370 407h271l-428 -407h-213z" />
    <glyph glyph-name="icircumflex" unicode="&#xee;" horiz-adv-x="601" 
d="M185 1397h233v-1397h-233v1397zM301 1821l-174 -211h-195l291 407h155l291 -407h-195z" />
    <glyph glyph-name="idieresis" unicode="&#xef;" horiz-adv-x="601" 
d="M183 1397h233v-1397h-233v1397zM-88 1610v233h233v-233h-233zM454 1610v233h235v-233h-235z" />
    <glyph glyph-name="eth" unicode="&#xf0;" horiz-adv-x="1523" 
d="M1097 1238q-48 122 -121.5 225.5t-223.5 216.5l-282 -255l-128 146l225 201q-159 51 -332 51h-32v194h44q149 0 263.5 -14t241.5 -66l269 243l128 -144l-223 -201q187 -151 286.5 -309t152 -359.5t52.5 -400.5q0 -368 -173 -586t-490 -218q-296 0 -476 198t-180 509
q0 209 82.5 363t234.5 240t320 86q71 0 149.5 -17t212.5 -103zM758 155q182 0 299 141.5t117 362.5t-117 362.5t-299 141.5q-185 0 -301.5 -141.5t-116.5 -362.5t116.5 -362.5t301.5 -141.5z" />
    <glyph glyph-name="ntilde" unicode="&#xf1;" horiz-adv-x="1493" 
d="M416 0h-233v1397h233v-242q74 113 143.5 168t145 83.5t167.5 28.5q133 0 236.5 -53.5t161.5 -158t58 -335.5v-888h-233v790q0 187 -25 265t-97.5 122.5t-156.5 44.5q-103 0 -195.5 -60.5t-148.5 -168t-56 -306.5v-687zM504 1610h-154q0 164 64 241.5t161 77.5
q78 0 158 -48l53 -32q102 -65 144 -65q75 0 75 145h158q-8 -127 -34 -185t-80 -96t-119 -38q-84 0 -176 60l-55 36q-74 48 -106 48q-89 0 -89 -144z" />
    <glyph glyph-name="ograve" unicode="&#xf2;" horiz-adv-x="1551" 
d="M776 -38q-274 0 -466.5 185t-192.5 552q0 364 192.5 550t466.5 186q273 0 466 -186t193 -550q0 -367 -193 -552t-466 -185zM776 155q189 0 302.5 149.5t113.5 394.5q0 243 -113.5 393t-302.5 150t-302.5 -150t-113.5 -393q0 -245 113.5 -394.5t302.5 -149.5zM1143 1610
h-213l-426 407h270z" />
    <glyph glyph-name="oacute" unicode="&#xf3;" horiz-adv-x="1551" 
d="M776 -38q-274 0 -466.5 185t-192.5 552q0 364 192.5 550t466.5 186q273 0 466 -186t193 -550q0 -367 -193 -552t-466 -185zM776 155q189 0 302.5 149.5t113.5 394.5q0 243 -113.5 393t-302.5 150t-302.5 -150t-113.5 -393q0 -245 113.5 -394.5t302.5 -149.5zM543 1610
l369 407h270l-426 -407h-213z" />
    <glyph glyph-name="ocircumflex" unicode="&#xf4;" horiz-adv-x="1551" 
d="M776 -38q-274 0 -466.5 185t-192.5 552q0 364 192.5 550t466.5 186q273 0 466 -186t193 -550q0 -367 -193 -552t-466 -185zM776 155q189 0 302.5 149.5t113.5 394.5q0 243 -113.5 393t-302.5 150t-302.5 -150t-113.5 -393q0 -245 113.5 -394.5t302.5 -149.5zM776 1821
l-175 -211h-193l291 407h155l291 -407h-195z" />
    <glyph glyph-name="otilde" unicode="&#xf5;" horiz-adv-x="1551" 
d="M776 -38q-274 0 -466.5 185t-192.5 552q0 364 192.5 550t466.5 186q273 0 466 -186t193 -550q0 -367 -193 -552t-466 -185zM776 155q189 0 302.5 149.5t113.5 394.5q0 243 -113.5 393t-302.5 150t-302.5 -150t-113.5 -393q0 -245 113.5 -394.5t302.5 -149.5zM524 1610
h-154q0 164 64 241.5t161 77.5q78 0 157 -48l54 -32q102 -65 144 -65q75 0 75 145h159q-8 -127 -34.5 -185t-80.5 -96t-119 -38q-86 0 -176 60l-55 36q-74 48 -106 48q-89 0 -89 -144z" />
    <glyph glyph-name="odieresis" unicode="&#xf6;" horiz-adv-x="1551" 
d="M776 -38q-274 0 -466.5 185t-192.5 552q0 364 192.5 550t466.5 186q273 0 466 -186t193 -550q0 -367 -193 -552t-466 -185zM776 155q189 0 302.5 149.5t113.5 394.5q0 243 -113.5 393t-302.5 150t-302.5 -150t-113.5 -393q0 -245 113.5 -394.5t302.5 -149.5zM388 1610
v233h233v-233h-233zM930 1610v233h235v-233h-235z" />
    <glyph glyph-name="divide" unicode="&#xf7;" 
d="M1551 796v-195h-1396v195h1396zM975 1222v-233h-234v233h234zM975 398v-223h-234v223h234z" />
    <glyph glyph-name="oslash" unicode="&#xf8;" horiz-adv-x="1551" 
d="M340 -38h-223l164 215q-106 134 -135 261t-29 267q0 360 193.5 545t467.5 185q197 0 365 -105l77 105h215l-161 -221q96 -121 128.5 -248.5t32.5 -270.5q0 -371 -198 -552t-455 -181q-205 0 -366 98zM428 376l585 783q-105 83 -237 83q-189 0 -302.5 -152t-113.5 -389
q0 -185 68 -325zM1125 1017l-584 -784q104 -78 235 -78q189 0 302.5 150.5t113.5 389.5q0 181 -67 322z" />
    <glyph glyph-name="ugrave" unicode="&#xf9;" horiz-adv-x="1493" 
d="M1077 1397h231v-1397h-231v243q-72 -112 -142.5 -168.5t-145 -84.5t-160.5 -28q-195 0 -329.5 109.5t-134.5 438.5v887h233v-788q0 -306 81.5 -370t199.5 -64q105 0 196.5 60t146.5 169.5t55 304.5v688zM1067 1610h-213l-428 407h269z" />
    <glyph glyph-name="uacute" unicode="&#xfa;" horiz-adv-x="1493" 
d="M1077 1397h231v-1397h-231v243q-72 -112 -142.5 -168.5t-145 -84.5t-160.5 -28q-195 0 -329.5 109.5t-134.5 438.5v887h233v-788q0 -306 81.5 -370t199.5 -64q105 0 196.5 60t146.5 169.5t55 304.5v688zM504 1610l370 407h269l-428 -407h-211z" />
    <glyph glyph-name="ucircumflex" unicode="&#xfb;" horiz-adv-x="1493" 
d="M1077 1397h231v-1397h-231v243q-72 -112 -142.5 -168.5t-145 -84.5t-160.5 -28q-195 0 -329.5 109.5t-134.5 438.5v887h233v-788q0 -306 81.5 -370t199.5 -64q105 0 196.5 60t146.5 169.5t55 304.5v688zM735 1821l-174 -211h-193l291 407h155l291 -407h-195z" />
    <glyph glyph-name="udieresis" unicode="&#xfc;" horiz-adv-x="1493" 
d="M1077 1397h231v-1397h-231v243q-72 -112 -142.5 -168.5t-145 -84.5t-160.5 -28q-195 0 -329.5 109.5t-134.5 438.5v887h233v-788q0 -306 81.5 -370t199.5 -64q105 0 196.5 60t146.5 169.5t55 304.5v688zM350 1610v233h231v-233h-231zM892 1610v233h233v-233h-233z" />
    <glyph glyph-name="yacute" unicode="&#xfd;" horiz-adv-x="1463" 
d="M639 60l-601 1337h257l469 -1037l438 1037h233l-589 -1399q-119 -281 -199 -373.5t-169.5 -130t-238.5 -37.5h-175v193h133q96 0 168.5 26.5t121 82.5t128.5 247zM601 1610l370 407h269l-428 -407h-211z" />
    <glyph glyph-name="thorn" unicode="&#xfe;" horiz-adv-x="1541" 
d="M398 -543h-233v2482h233v-786q72 125 137.5 176t148 78.5t170.5 27.5q159 0 291.5 -86.5t206 -259.5t73.5 -388q0 -319 -153 -529t-430 -210q-88 0 -167.5 25t-141 76.5t-135.5 179.5v-786zM398 697q0 -237 102.5 -389.5t289.5 -152.5q168 0 281 135.5t113 402.5
q0 314 -119 436.5t-271 122.5q-111 0 -206.5 -67.5t-142.5 -199t-47 -288.5z" />
    <glyph glyph-name="ydieresis" unicode="&#xff;" horiz-adv-x="1463" 
d="M639 60l-601 1337h257l469 -1037l438 1037h233l-589 -1399q-119 -281 -199 -373.5t-169.5 -130t-238.5 -37.5h-175v193h133q96 0 168.5 26.5t121 82.5t128.5 247zM370 1610v233h231v-233h-231zM910 1610v233h235v-233h-235z" />
    <glyph glyph-name="Amacron" unicode="&#x100;" horiz-adv-x="1861" 
d="M273 0h-235l796 1939h255l734 -1939h-274l-201 535h-856zM569 727h705l-340 903zM581 2068v154h699v-154h-699z" />
    <glyph glyph-name="amacron" unicode="&#x101;" horiz-adv-x="1417" 
d="M1045 0q-36 113 -36 193q-153 -151 -260.5 -191t-207.5 -40q-165 0 -284.5 101.5t-119.5 280.5q0 203 167.5 312.5t579.5 189.5l125 24v157q0 128 -86.5 180.5t-207.5 52.5q-144 0 -225.5 -63.5t-81.5 -149.5v-20h-253v20q0 92 78 190.5t208 149t282 50.5
q153 0 277.5 -48.5t183 -128.5t58.5 -302v-542q0 -90 4 -187.5t44 -228.5h-245zM1009 705l-71 -18q-353 -86 -451.5 -163.5t-98.5 -183.5q0 -57 29 -104t86.5 -73t113.5 -26q98 0 192.5 56t147 151.5t52.5 222.5v138zM364 1563v155h699v-155h-699z" />
    <glyph glyph-name="Abreve" unicode="&#x102;" horiz-adv-x="1861" 
d="M273 0h-235l796 1939h255l734 -1939h-274l-201 535h-856zM569 727h705l-340 903zM721 2476q12 -97 72.5 -170.5t136.5 -73.5q77 0 137 74.5t72 169.5h159q-14 -139 -69 -225.5t-134.5 -134.5t-164.5 -48q-82 0 -161.5 48t-135.5 134.5t-72 225.5h160z" />
    <glyph glyph-name="abreve" unicode="&#x103;" horiz-adv-x="1417" 
d="M1045 0q-36 113 -36 193q-153 -151 -260.5 -191t-207.5 -40q-165 0 -284.5 101.5t-119.5 280.5q0 203 167.5 312.5t579.5 189.5l125 24v157q0 128 -86.5 180.5t-207.5 52.5q-144 0 -225.5 -63.5t-81.5 -149.5v-20h-253v20q0 92 78 190.5t208 149t282 50.5
q153 0 277.5 -48.5t183 -128.5t58.5 -302v-542q0 -90 4 -187.5t44 -228.5h-245zM1009 705l-71 -18q-353 -86 -451.5 -163.5t-98.5 -183.5q0 -57 29 -104t86.5 -73t113.5 -26q98 0 192.5 56t147 151.5t52.5 222.5v138zM504 1971q10 -96 71.5 -169.5t137.5 -73.5
q77 0 137 74.5t70 168.5h161q-14 -138 -70.5 -223.5t-134.5 -135t-163 -49.5q-82 0 -161.5 49.5t-135.5 135t-72 223.5h160z" />
    <glyph glyph-name="Aogonek" unicode="&#x104;" horiz-adv-x="1861" 
d="M273 0h-235l796 1939h255l734 -1939h-59q-81 -48 -136 -121q-69 -94 -69 -154q0 -38 35.5 -73.5t115.5 -35.5q44 0 100 24v-120q-82 -38 -158 -38q-117 0 -192.5 63t-75.5 160q0 141 163 299l-199 531h-856zM569 727h705l-340 903z" />
    <glyph glyph-name="aogonek" unicode="&#x105;" horiz-adv-x="1417" 
d="M1290 24q-4 -2 -7 -3q4 -11 7 -21h-46q-81 -48 -136 -122q-69 -95 -69 -153q0 -40 35 -75.5t116 -35.5q44 0 100 24v-120q-82 -36 -159 -36q-116 0 -191.5 62t-75.5 159q0 146 176 312q-31 103 -31 178q-153 -151 -260.5 -191t-207.5 -40q-165 0 -284.5 101.5
t-119.5 280.5q0 203 167.5 312.5t579.5 189.5l125 24v157q0 128 -86.5 180.5t-207.5 52.5q-144 0 -225.5 -63.5t-81.5 -149.5v-20h-253v20q0 92 78 190.5t208 149t282 50.5q153 0 277.5 -48.5t183 -128.5t58.5 -302v-542q0 -90 4 -188q3 -88 36 -204h8zM1009 705l-71 -18
q-353 -86 -451.5 -163.5t-98.5 -183.5q0 -57 29 -104t86.5 -73t113.5 -26q98 0 192.5 56t147 151.5t52.5 222.5v138z" />
    <glyph glyph-name="Cacute" unicode="&#x106;" horiz-adv-x="1650" 
d="M1338 418h233v-12q0 -117 -79 -235.5t-216 -173.5t-320 -55q-369 0 -604 257t-235 772q0 510 234 769t607 259q181 0 318 -56t216 -176.5t79 -231.5v-12h-233v12q0 71 -45 137t-127.5 99t-198.5 33q-298 0 -443.5 -235t-145.5 -598q0 -368 145.5 -602t441.5 -234
q202 0 287.5 84t85.5 187v12zM538 2152l388 253h408l-495 -253h-301z" />
    <glyph glyph-name="cacute" unicode="&#x107;" horiz-adv-x="1397" 
d="M1057 360h233v-14q0 -93 -70.5 -188.5t-185 -145.5t-274.5 -50q-310 0 -476.5 195t-166.5 542q0 344 166.5 540t476.5 196q160 0 274.5 -50.5t185 -139t70.5 -194.5v-14h-233v14q4 74 -67.5 132.5t-217.5 58.5q-175 0 -293.5 -128.5t-118.5 -414.5q0 -287 118.5 -415.5
t293.5 -128.5q146 0 215.5 57t69.5 134v14zM399 1610l370 407h269l-426 -407h-213z" />
    <glyph glyph-name="Ccircumflex" unicode="&#x108;" horiz-adv-x="1668" 
d="M1338 418h233v-12q0 -117 -79 -235.5t-216 -173.5t-320 -55q-369 0 -604 257t-235 772q0 510 234 769t607 259q181 0 318 -56t216 -176.5t79 -231.5v-12h-233v12q0 71 -45 137t-127.5 99t-198.5 33q-298 0 -443.5 -235t-145.5 -598q0 -368 145.5 -602t441.5 -234
q202 0 287.5 84t85.5 187v12zM930 2337l-174 -211h-193l291 408h155l291 -408h-195z" />
    <glyph glyph-name="ccircumflex" unicode="&#x109;" horiz-adv-x="1397" 
d="M1057 360h233v-14q0 -93 -70.5 -188.5t-185 -145.5t-274.5 -50q-310 0 -476.5 195t-166.5 542q0 344 166.5 540t476.5 196q160 0 274.5 -50.5t185 -139t70.5 -194.5v-14h-233v14q4 74 -67.5 132.5t-217.5 58.5q-175 0 -293.5 -128.5t-118.5 -414.5q0 -287 118.5 -415.5
t293.5 -128.5q146 0 215.5 57t69.5 134v14zM766 1772l-175 -209h-195l291 406h155l291 -406h-195z" />
    <glyph glyph-name="Cdotaccent" unicode="&#x10a;" horiz-adv-x="1668" 
d="M1338 418h233v-12q0 -117 -79 -235.5t-216 -173.5t-320 -55q-369 0 -604 257t-235 772q0 510 234 769t607 259q181 0 318 -56t216 -176.5t79 -231.5v-12h-233v12q0 71 -45 137t-127.5 99t-198.5 33q-298 0 -443.5 -235t-145.5 -598q0 -368 145.5 -602t441.5 -234
q202 0 287.5 84t85.5 187v12zM816 2126v233h231v-233h-231z" />
    <glyph glyph-name="cdotaccent" unicode="&#x10b;" horiz-adv-x="1397" 
d="M1057 360h233v-14q0 -93 -70.5 -188.5t-185 -145.5t-274.5 -50q-310 0 -476.5 195t-166.5 542q0 344 166.5 540t476.5 196q160 0 274.5 -50.5t185 -139t70.5 -194.5v-14h-233v14q4 74 -67.5 132.5t-217.5 58.5q-175 0 -293.5 -128.5t-118.5 -414.5q0 -287 118.5 -415.5
t293.5 -128.5q146 0 215.5 57t69.5 134v14zM637 1563v231h231v-231h-231z" />
    <glyph glyph-name="Ccaron" unicode="&#x10c;" horiz-adv-x="1650" 
d="M1338 418h233v-12q0 -117 -79 -235.5t-216 -173.5t-320 -55q-369 0 -604 257t-235 772q0 510 234 769t607 259q181 0 318 -56t216 -176.5t79 -231.5v-12h-233v12q0 71 -45 137t-127.5 99t-198.5 33q-298 0 -443.5 -235t-145.5 -598q0 -368 145.5 -602t441.5 -234
q202 0 287.5 84t85.5 187v12zM976 2327l174 78h272l-370 -253h-155l-367 253h271z" />
    <glyph glyph-name="ccaron" unicode="&#x10d;" horiz-adv-x="1397" 
d="M1057 360h233v-14q0 -93 -70.5 -188.5t-185 -145.5t-274.5 -50q-310 0 -476.5 195t-166.5 542q0 344 166.5 540t476.5 196q160 0 274.5 -50.5t185 -139t70.5 -194.5v-14h-233v14q4 74 -67.5 132.5t-217.5 58.5q-175 0 -293.5 -128.5t-118.5 -414.5q0 -287 118.5 -415.5
t293.5 -128.5q146 0 215.5 57t69.5 134v14zM762 1808l172 209h195l-291 -407h-155l-291 407h195z" />
    <glyph glyph-name="Dcaron" unicode="&#x10e;" horiz-adv-x="1794" 
d="M183 0v1939h536q392 0 573 -105.5t283.5 -323.5t102.5 -533q0 -294 -92.5 -509t-278.5 -341.5t-551 -126.5h-573zM436 213h297q268 0 403.5 78.5t207 245t71.5 419.5q0 254 -65.5 435.5t-200 267t-422.5 85.5h-291v-1531zM854 2265l175 211h195l-292 -408h-154l-292 408
h193z" />
    <glyph glyph-name="dcaron" unicode="&#x10f;" horiz-adv-x="1887" 
d="M1143 2017h233v-2017h-233v243q-70 -137 -137.5 -189t-151.5 -72t-167 -20q-159 0 -291.5 86.5t-205.5 259t-73 387.5q0 318 153.5 529t428.5 211q91 0 169 -25.5t139.5 -76.5t135.5 -180v864zM1143 699q0 237 -102.5 390t-286.5 153q-169 0 -281.5 -135.5t-112.5 -403.5
q0 -315 108.5 -436.5t279.5 -121.5q110 0 206.5 67t142.5 199t46 288zM1503 1684v151q60 34 92.5 84t48.5 105.5t16 123.5h-157v332h332v-205q0 -187 -36.5 -283.5t-108.5 -178t-187 -129.5z" />
    <glyph glyph-name="Dcroat" unicode="&#x110;" horiz-adv-x="1794" 
d="M183 0v892h-231v195h231v852h536q394 0 575 -105.5t282.5 -323.5t101.5 -533q0 -294 -92.5 -509t-277.5 -341.5t-552 -126.5h-573zM436 213h297q268 0 403.5 78.5t207 245t71.5 419.5q0 254 -65.5 435.5t-200 267t-420.5 85.5h-293v-657h350v-195h-350v-679z" />
    <glyph glyph-name="dcroat" unicode="&#x111;" horiz-adv-x="1541" 
d="M1143 2017h233v-291h234v-193h-234v-1533h-233v243q-84 -132 -144.5 -181.5t-144.5 -74.5t-167 -25q-159 0 -291.5 86.5t-205.5 259t-73 387.5q0 318 153.5 529t428.5 211q91 0 169 -25.5t139.5 -76.5t135.5 -180v380h-347v193h347v291zM1143 699q0 237 -102.5 390
t-286.5 153q-169 0 -281.5 -135.5t-112.5 -403.5q0 -315 118.5 -436.5t269.5 -121.5q110 0 206.5 67t142.5 199t46 288z" />
    <glyph glyph-name="Emacron" unicode="&#x112;" horiz-adv-x="1473" 
d="M183 0v1939h1097v-213h-844v-611h738v-195h-738v-707h912v-213h-1165zM416 2068v154h699v-154h-699z" />
    <glyph glyph-name="emacron" unicode="&#x113;" horiz-adv-x="1473" 
d="M1097 360h231v-14q0 -93 -73 -189.5t-195 -145.5t-278 -49q-320 0 -492.5 206t-172.5 521q0 322 182.5 534t472.5 212q158 0 287 -68.5t204 -214t75 -407.5v-76h-992q0 -225 120.5 -369.5t335.5 -144.5q152 0 223.5 59t71.5 132v14zM362 844h753v28q0 97 -47 189
t-129.5 136.5t-193.5 44.5q-128 0 -238.5 -104.5t-144.5 -293.5zM416 1563v155h697v-155h-697z" />
    <glyph glyph-name="Ebreve" unicode="&#x114;" horiz-adv-x="1473" 
d="M183 0v1939h1097v-213h-844v-611h738v-195h-738v-707h912v-213h-1165zM557 2476q10 -97 71 -170.5t138 -73.5q76 0 136.5 74.5t72.5 169.5h158q-14 -139 -70 -225.5t-134.5 -134.5t-162.5 -48q-83 0 -162.5 48t-135.5 134.5t-72 225.5h161z" />
    <glyph glyph-name="ebreve" unicode="&#x115;" horiz-adv-x="1473" 
d="M1097 360h231v-14q0 -93 -73 -189.5t-195 -145.5t-278 -49q-320 0 -492.5 206t-172.5 521q0 322 182.5 534t472.5 212q158 0 287 -68.5t204 -214t75 -407.5v-76h-992q0 -225 120.5 -369.5t335.5 -144.5q152 0 223.5 59t71.5 132v14zM362 844h753v28q0 97 -47 189
t-129.5 136.5t-193.5 44.5q-128 0 -238.5 -104.5t-144.5 -293.5zM543 1969q12 -96 73 -168.5t136 -72.5q76 0 136 74.5t73 166.5h158q-14 -138 -69 -223.5t-134.5 -134t-163.5 -48.5q-83 0 -162.5 48.5t-135.5 134t-72 223.5h161z" />
    <glyph glyph-name="Edotaccent" unicode="&#x116;" horiz-adv-x="1473" 
d="M183 0v1939h1097v-213h-844v-611h738v-195h-738v-707h912v-213h-1165zM649 2068v233h233v-233h-233z" />
    <glyph glyph-name="edotaccent" unicode="&#x117;" horiz-adv-x="1473" 
d="M1097 360h231v-14q0 -93 -73 -189.5t-195 -145.5t-278 -49q-320 0 -492.5 206t-172.5 521q0 322 182.5 534t472.5 212q158 0 287 -68.5t204 -214t75 -407.5v-76h-992q0 -225 120.5 -369.5t335.5 -144.5q152 0 223.5 59t71.5 132v14zM362 844h753v28q0 97 -47 189
t-129.5 136.5t-193.5 44.5q-128 0 -238.5 -104.5t-144.5 -293.5zM647 1563v231h233v-231h-233z" />
    <glyph glyph-name="Eogonek" unicode="&#x118;" horiz-adv-x="1473" 
d="M183 0v1939h1097v-213h-844v-611h738v-195h-738v-707h912v-213h-394q-96 -50 -158 -133q-69 -94 -69 -154q0 -39 35.5 -74t115.5 -35q44 0 101 24v-122q-83 -36 -159 -36q-117 0 -192 62t-75 159q0 147 171 309h-541z" />
    <glyph glyph-name="eogonek" unicode="&#x119;" horiz-adv-x="1473" 
d="M1097 360h231v-14q0 -93 -73 -189.5t-195 -145.5q-52 -21 -110 -33q-87 -48 -144 -125q-69 -94 -69 -154q0 -39 35.5 -74t115.5 -35q44 0 101 24v-122q-83 -37 -159 -37q-117 0 -192 63.5t-75 159.5q0 136 150 287q-270 20 -424 203q-172 206 -172 521q0 322 182.5 534
t472.5 212q158 0 287 -68.5t204 -214t75 -407.5v-76h-992q0 -225 120.5 -369.5t335.5 -144.5q152 0 223.5 59t71.5 132v14zM362 844h753v28q0 97 -47 189t-129.5 136.5t-193.5 44.5q-128 0 -238.5 -104.5t-144.5 -293.5z" />
    <glyph glyph-name="Ecaron" unicode="&#x11a;" horiz-adv-x="1473" 
d="M183 0v1939h1097v-213h-844v-611h738v-195h-738v-707h912v-213h-1165zM766 2265l172 211h195l-291 -408h-155l-291 408h195z" />
    <glyph glyph-name="ecaron" unicode="&#x11b;" horiz-adv-x="1473" 
d="M1097 360h231v-14q0 -93 -73 -189.5t-195 -145.5t-278 -49q-320 0 -492.5 206t-172.5 521q0 322 182.5 534t472.5 212q158 0 287 -68.5t204 -214t75 -407.5v-76h-992q0 -225 120.5 -369.5t335.5 -144.5q152 0 223.5 59t71.5 132v14zM362 844h753v28q0 97 -47 189
t-129.5 136.5t-193.5 44.5q-128 0 -238.5 -104.5t-144.5 -293.5zM775 1760l175 209h195l-291 -406h-155l-291 406h193z" />
    <glyph glyph-name="Gcircumflex" unicode="&#x11c;" horiz-adv-x="1726" 
d="M1571 88q-309 -146 -588 -146q-292 0 -471.5 115.5t-287 332.5t-107.5 558q0 384 101 596t286 332.5t440 120.5q173 0 316 -55t227 -166.5t84 -222.5v-12h-233v12q0 69 -52 127t-136.5 91t-191.5 33q-283 0 -431.5 -222t-148.5 -609q0 -388 152.5 -613t430.5 -225
q162 0 377 78v553h-436v195h669v-873zM930 2335l-174 -209h-193l291 406h155l291 -406h-195z" />
    <glyph glyph-name="gcircumflex" unicode="&#x11d;" horiz-adv-x="1561" 
d="M1143 295q-70 -148 -183.5 -221.5t-270.5 -73.5q-249 0 -410.5 196t-161.5 513q0 211 72 384t203.5 257.5t306.5 84.5q133 0 236.5 -51.5t207.5 -209.5v223h233v-1142q0 -430 -90 -567.5t-228 -204t-325 -66.5q-172 0 -309 51.5t-208 141t-71 185.5v22h233v-20
q0 -92 99.5 -148.5t253.5 -56.5q125 0 214.5 43t143.5 140.5t54 351.5v168zM1143 739q0 226 -114.5 364.5t-274.5 138.5q-169 0 -281.5 -140.5t-112.5 -394.5q0 -160 44 -280t140.5 -182t205.5 -62q174 0 283.5 155.5t109.5 400.5zM745 1772l-174 -209h-193l291 406h155
l291 -406h-195z" />
    <glyph glyph-name="Gbreve" unicode="&#x11e;" horiz-adv-x="1726" 
d="M1571 88q-309 -146 -588 -146q-292 0 -471.5 115.5t-287 332.5t-107.5 558q0 384 101 596t286 332.5t440 120.5q173 0 316 -55t227 -166.5t84 -222.5v-12h-233v12q0 69 -52 127t-136.5 91t-191.5 33q-283 0 -431.5 -222t-148.5 -609q0 -388 152.5 -613t430.5 -225
q162 0 377 78v553h-436v195h669v-873zM1374 2405q-67 -120 -176.5 -186.5t-241.5 -66.5q-133 0 -242.5 66.5t-173.5 186.5h221q50 -62 94 -75t101 -13q56 0 100 13t94 75h224z" />
    <glyph glyph-name="gbreve" unicode="&#x11f;" horiz-adv-x="1561" 
d="M1143 295q-70 -148 -183.5 -221.5t-270.5 -73.5q-249 0 -410.5 196t-161.5 513q0 211 72 384t203.5 257.5t306.5 84.5q133 0 236.5 -51.5t207.5 -209.5v223h233v-1142q0 -430 -90 -567.5t-228 -204t-325 -66.5q-172 0 -309 51.5t-208 141t-71 185.5v22h233v-20
q0 -92 99.5 -148.5t253.5 -56.5q125 0 214.5 43t143.5 140.5t54 351.5v168zM1143 739q0 226 -114.5 364.5t-274.5 138.5q-169 0 -281.5 -140.5t-112.5 -394.5q0 -160 44 -280t140.5 -182t205.5 -62q174 0 283.5 155.5t109.5 400.5zM577 2017q10 -96 71 -169.5t138 -73.5
q76 0 136.5 74.5t72.5 168.5h158q-14 -138 -70 -223.5t-134.5 -134.5t-162.5 -49q-83 0 -162 49t-135.5 134.5t-72.5 223.5h161z" />
    <glyph glyph-name="Gdotaccent" unicode="&#x120;" horiz-adv-x="1726" 
d="M1571 88q-309 -146 -588 -146q-292 0 -471.5 115.5t-287 332.5t-107.5 558q0 384 101 596t286 332.5t440 120.5q173 0 316 -55t227 -166.5t84 -222.5v-12h-233v12q0 69 -52 127t-136.5 91t-191.5 33q-283 0 -431.5 -222t-148.5 -609q0 -388 152.5 -613t430.5 -225
q162 0 377 78v553h-436v195h669v-873zM816 2126v231h231v-231h-231z" />
    <glyph glyph-name="gdotaccent" unicode="&#x121;" horiz-adv-x="1561" 
d="M1143 295q-70 -148 -183.5 -221.5t-270.5 -73.5q-249 0 -410.5 196t-161.5 513q0 211 72 384t203.5 257.5t306.5 84.5q133 0 236.5 -51.5t207.5 -209.5v223h233v-1142q0 -430 -90 -567.5t-228 -204t-325 -66.5q-172 0 -309 51.5t-208 141t-71 185.5v22h233v-20
q0 -92 99.5 -148.5t253.5 -56.5q125 0 214.5 43t143.5 140.5t54 351.5v168zM1143 739q0 226 -114.5 364.5t-274.5 138.5q-169 0 -281.5 -140.5t-112.5 -394.5q0 -160 44 -280t140.5 -182t205.5 -62q174 0 283.5 155.5t109.5 400.5zM631 1563v231h231v-231h-231z" />
    <glyph glyph-name="Gcommaaccent" unicode="&#x122;" horiz-adv-x="1726" 
d="M1571 88q-309 -146 -588 -146q-292 0 -471.5 115.5t-287 332.5t-107.5 558q0 384 101 596t286 332.5t440 120.5q173 0 316 -55t227 -166.5t84 -222.5v-12h-233v12q0 69 -52 127t-136.5 91t-191.5 33q-283 0 -431.5 -222t-148.5 -609q0 -388 152.5 -613t430.5 -225
q162 0 377 78v553h-436v195h669v-873zM863 -718v97q40 22 60 55t31 69t11 81h-102v215h215v-133q0 -121 -23 -184t-70.5 -115.5t-121.5 -84.5z" />
    <glyph glyph-name="gcommaaccent" unicode="&#x123;" horiz-adv-x="1561" 
d="M1143 295q-70 -148 -183.5 -221.5t-270.5 -73.5q-249 0 -410.5 196t-161.5 513q0 211 72 384t203.5 257.5t306.5 84.5q133 0 236.5 -51.5t207.5 -209.5v223h233v-1142q0 -430 -90 -567.5t-228 -204t-325 -66.5q-172 0 -309 51.5t-208 141t-71 185.5v22h233v-20
q0 -92 99.5 -148.5t253.5 -56.5q125 0 214.5 43t143.5 140.5t54 351.5v168zM1143 739q0 226 -114.5 364.5t-274.5 138.5q-169 0 -281.5 -140.5t-112.5 -394.5q0 -160 44 -280t140.5 -182t205.5 -62q174 0 283.5 155.5t109.5 400.5zM910 2431v-150q-58 -34 -90 -85.5
t-48 -106.5t-16 -124h154v-329h-329v205q0 184 35 280.5t108.5 178t185.5 131.5z" />
    <glyph glyph-name="Hcircumflex" unicode="&#x124;" horiz-adv-x="1764" 
d="M436 0h-253v1939h253v-862h892v862h251v-1939h-251v882h-892v-882zM882 2277l-177 -209h-193l292 408h154l292 -408h-195z" />
    <glyph glyph-name="hcircumflex" unicode="&#x125;" horiz-adv-x="1493" 
d="M416 0h-233v2017h233v-862q74 113 143.5 168t145 83.5t167.5 28.5q133 0 236.5 -53.5t161.5 -158t58 -335.5v-888h-233v790q0 187 -25 265t-95.5 122.5t-158.5 44.5q-103 0 -195.5 -60.5t-148.5 -168t-56 -306.5v-687zM753 2355l-175 -211h-193l292 408h154l292 -408
h-195z" />
    <glyph glyph-name="Hbar" unicode="&#x126;" horiz-adv-x="1764" 
d="M436 0h-253v1939h253v-436h892v436h251v-1939h-251v882h-892v-882zM1328 1077v233h-892v-233h892z" />
    <glyph glyph-name="hbar" unicode="&#x127;" horiz-adv-x="1493" 
d="M58 1610v154h125v253h233v-253h342v-154h-342v-455q74 113 143.5 168t145 83.5t167.5 28.5q133 0 236.5 -53.5t161.5 -158t58 -335.5v-888h-233v790q0 187 -25 265t-95.5 122.5t-158.5 44.5q-103 0 -195.5 -60.5t-148.5 -168t-56 -306.5v-687h-233v1610h-125z" />
    <glyph glyph-name="Itilde" unicode="&#x128;" horiz-adv-x="1073" 
d="M676 0h-253v1939h253v-1939zM298 2070h-156q0 164 65 241.5t162 77.5q78 0 156 -50l55 -32q102 -64 144 -64q75 0 75 146h158q-8 -128 -34 -186.5t-80 -96.5t-119 -38q-86 0 -177 60l-54 36q-74 50 -106 50q-89 0 -89 -144z" />
    <glyph glyph-name="itilde" unicode="&#x129;" horiz-adv-x="1041" 
d="M383 1397h233v-1397h-233v1397zM248 1525h-154q0 165 64 242.5t161 77.5q78 0 156 -51l55 -30q102 -66 144 -66q75 0 75 147h158q-8 -127 -34 -186.5t-80 -97.5t-119 -38q-86 0 -177 62l-54 37q-74 48 -106 48q-89 0 -89 -145z" />
    <glyph glyph-name="Imacron" unicode="&#x12a;" horiz-adv-x="880" 
d="M566 0h-253v1939h253v-1939zM92 2068v154h697v-154h-697z" />
    <glyph glyph-name="imacron" unicode="&#x12b;" horiz-adv-x="864" 
d="M313 1397h233v-1397h-233v1397zM82 1523v155h697v-155h-697z" />
    <glyph glyph-name="Ibreve" unicode="&#x12c;" horiz-adv-x="621" 
d="M436 0h-253v1939h253v-1939zM100 2476q13 -97 74 -170.5t137 -73.5q77 0 137 74.5t70 169.5h161q-16 -139 -71 -225.5t-133.5 -134.5t-163.5 -48q-84 0 -163.5 48t-134.5 134.5t-71 225.5h158z" />
    <glyph glyph-name="ibreve" unicode="&#x12d;" horiz-adv-x="601" 
d="M183 1397h233v-1397h-233v1397zM90 1931q12 -96 73.5 -169.5t137.5 -73.5q77 0 137 74.5t70 168.5h161q-16 -139 -71 -224t-133.5 -134.5t-163.5 -49.5q-84 0 -163.5 49.5t-134.5 134.5t-71 224h158z" />
    <glyph glyph-name="Iogonek" unicode="&#x12e;" horiz-adv-x="621" 
d="M462 24q-14 -6 -26 -13v-11h-20q-81 -48 -136 -121q-69 -94 -69 -154q0 -38 34 -73.5t117 -35.5q44 0 100 24v-120q-84 -38 -159 -38q-116 0 -192.5 63t-76.5 160q0 139 159 295h-10v1939h253v-1915h26z" />
    <glyph glyph-name="iogonek" unicode="&#x12f;" horiz-adv-x="601" 
d="M438 24q-11 -5 -22 -11v-13h-24q-81 -48 -136 -121q-69 -94 -69 -154q0 -38 35 -73.5t118 -35.5q42 0 98 24v-120q-82 -38 -159 -38q-116 0 -191.5 63t-75.5 160q0 144 171 306v1386h233v-1373h22zM183 1706v233h233v-233h-233z" />
    <glyph glyph-name="Idotaccent" unicode="&#x130;" horiz-adv-x="621" 
d="M436 0h-253v1939h253v-1939zM185 2152v253h251v-253h-251z" />
    <glyph glyph-name="dotlessi" unicode="&#x131;" horiz-adv-x="601" 
d="M183 1397h233v-1397h-233v1397z" />
    <glyph glyph-name="IJ" unicode="&#x132;" horiz-adv-x="1881" 
d="M436 0h-253v1939h253v-1939zM669 330h251v-13q0 -54 29.5 -96t89.5 -63t135 -21q78 0 144 35t96.5 109.5t30.5 327.5v1330h251v-1336q0 -318 -68.5 -434.5t-168 -171.5t-271.5 -55q-284 0 -401.5 117.5t-117.5 257.5v13z" />
    <glyph glyph-name="ij" unicode="&#x133;" horiz-adv-x="1308" 
d="M183 1397h233v-1397h-233v1397zM183 1706v233h233v-233h-233zM882 1397h235v-1397q0 -211 -51 -314.5t-163.5 -166t-243.5 -62.5q-94 0 -203 23v184l50 -6q69 -8 111 -8q116 0 190.5 60.5t74.5 289.5v1397zM882 1716v223h235v-223h-235z" />
    <glyph glyph-name="Jcircumflex" unicode="&#x134;" horiz-adv-x="1260" 
d="M48 330h253v-13q0 -54 29.5 -96t89.5 -63t135 -21q76 0 143.5 35t97.5 109.5t30 327.5v1330h251v-1336q0 -318 -68.5 -434.5t-169 -171.5t-272.5 -55q-284 0 -401.5 117.5t-117.5 257.5v13zM943 2277l-175 -209h-195l291 408h157l289 -408h-195z" />
    <glyph glyph-name="jcircumflex" unicode="&#x135;" horiz-adv-x="707" 
d="M281 1397h233v-1397q0 -211 -50 -314.5t-162.5 -166t-243.5 -62.5q-94 0 -203 23v184l51 -6q68 -8 108 -8q119 0 193 60.5t74 289.5v1397zM385 1734l-175 -211h-193l289 408h157l292 -408h-195z" />
    <glyph glyph-name="Kcommaaccent" unicode="&#x136;" horiz-adv-x="1698" 
d="M436 0h-253v1939h253v-926l810 926h287l-800 -908l925 -1031h-318l-904 1013v-1013zM853 -760v97q38 22 59 55t31 69.5t10 80.5h-100v215h213v-133q0 -120 -23 -183.5t-70.5 -115.5t-119.5 -85z" />
    <glyph glyph-name="kcommaaccent" unicode="&#x137;" horiz-adv-x="1378" 
d="M426 0h-243v2017h243v-1286l621 666h267l-605 -649l629 -748h-291l-621 731v-731zM692 -760v97q38 22 59.5 55t32.5 69.5t11 80.5h-103v215h215v-133q0 -120 -23 -183.5t-70 -115.5t-122 -85z" />
    <glyph glyph-name="uni0138" unicode="&#x138;" horiz-adv-x="1378" 
d="M426 0h-243v1397h243v-666l621 666h267l-605 -649l629 -748h-291l-621 731v-731z" />
    <glyph glyph-name="Lacute" unicode="&#x139;" horiz-adv-x="1493" 
d="M183 0v1939h253v-1726h1017v-213h-1270zM233 2068l370 408h269l-428 -408h-211z" />
    <glyph glyph-name="lacute" unicode="&#x13a;" horiz-adv-x="816" 
d="M416 0h-233v2017h233v-2017zM28 2144l370 408h271l-428 -408h-213z" />
    <glyph glyph-name="Lcommaaccent" unicode="&#x13b;" horiz-adv-x="1640" 
d="M183 0v1939h253v-1726h1017v-213h-1270zM750 -660v97q41 22 61 55t31 69.5t11 80.5h-103v215h215v-133q0 -120 -23 -183.5t-70 -115.5t-122 -85z" />
    <glyph glyph-name="lcommaaccent" unicode="&#x13c;" horiz-adv-x="601" 
d="M416 0h-233v2017h233v-2017zM183 -760v97q38 22 59 55t31 69.5t10 80.5h-100v215h213v-133q0 -120 -23 -183.5t-69.5 -115.5t-120.5 -85z" />
    <glyph glyph-name="Lcaron" unicode="&#x13d;" horiz-adv-x="1493" 
d="M183 0v1939h253v-1726h1017v-213h-1270zM848 1145v149q60 36 92.5 86.5t48.5 105.5t16 124h-157v329h332v-205q0 -185 -36.5 -281.5t-108.5 -177.5t-187 -130z" />
    <glyph glyph-name="lcaron" unicode="&#x13e;" horiz-adv-x="977" 
d="M416 0h-233v2017h233v-2017zM545 1222v150q58 35 90 86t48 106.5t16 123.5h-154v329h329v-205q0 -184 -36 -280.5t-108.5 -178t-184.5 -131.5z" />
    <glyph glyph-name="Ldotaccent" unicode="&#x13f;" horiz-adv-x="1493" 
d="M183 0v1939h253v-1726h1017v-213h-1270zM760 892v233h231v-233h-231z" />
    <glyph glyph-name="ldotaccent" unicode="&#x140;" horiz-adv-x="784" 
d="M416 0h-233v2017h233v-2017zM545 892v233h231v-233h-231z" />
    <glyph glyph-name="Lslash" unicode="&#x141;" horiz-adv-x="1493" 
d="M183 0l2 870l-233 -86v205l231 86v864h253v-765l233 82v-207l-233 -82v-754h1017v-213h-1270z" />
    <glyph glyph-name="lslash" unicode="&#x142;" horiz-adv-x="601" 
d="M416 0h-233v872l-231 -94v209l231 90v940h233v-852l233 87v-209l-233 -85v-958z" />
    <glyph glyph-name="Nacute" unicode="&#x143;" horiz-adv-x="1815" 
d="M416 0h-233v1939h251l886 -1378l81 -153l-4 153v1378h233v-1939h-250l-888 1384l-80 157l4 -157v-1384zM635 2068l370 408h271l-428 -408h-213z" />
    <glyph glyph-name="nacute" unicode="&#x144;" horiz-adv-x="1493" 
d="M416 0h-233v1397h233v-242q74 113 143.5 168t145 83.5t167.5 28.5q133 0 236.5 -53.5t161.5 -158t58 -335.5v-888h-233v790q0 187 -25 265t-97.5 122.5t-156.5 44.5q-103 0 -195.5 -60.5t-148.5 -168t-56 -306.5v-687zM484 1563l370 406h269l-428 -406h-211z" />
    <glyph glyph-name="Ncommaaccent" unicode="&#x145;" horiz-adv-x="1815" 
d="M416 0h-233v1939h251l886 -1378l81 -153l-4 153v1378h233v-1939h-250l-888 1384l-80 157l4 -157v-1384zM863 -760v97q39 22 60 55t32 69.5t11 80.5h-103v215h215v-133q0 -120 -23 -183.5t-70 -115.5t-122 -85z" />
    <glyph glyph-name="ncommaaccent" unicode="&#x146;" horiz-adv-x="1493" 
d="M416 0h-233v1397h233v-242q74 113 143.5 168t145 83.5t167.5 28.5q133 0 236.5 -53.5t161.5 -158t58 -335.5v-888h-233v790q0 187 -25 265t-97.5 122.5t-156.5 44.5q-103 0 -195.5 -60.5t-148.5 -168t-56 -306.5v-687zM693 -760v97q40 22 60 55t31.5 69.5t11.5 80.5h-103
v215h215v-133q0 -120 -23 -183.5t-70.5 -115.5t-121.5 -85z" />
    <glyph glyph-name="Ncaron" unicode="&#x147;" horiz-adv-x="1815" 
d="M416 0h-233v1939h251l886 -1378l81 -153l-4 153v1378h233v-1939h-250l-888 1384l-80 157l4 -157v-1384zM906 2265l173 211h197l-291 -408h-157l-291 408h194z" />
    <glyph glyph-name="ncaron" unicode="&#x148;" horiz-adv-x="1493" 
d="M416 0h-233v1397h233v-242q74 113 143.5 168t145 83.5t167.5 28.5q133 0 236.5 -53.5t161.5 -158t58 -335.5v-888h-233v790q0 187 -25 265t-97.5 122.5t-156.5 44.5q-103 0 -195.5 -60.5t-148.5 -168t-56 -306.5v-687zM756 1760l172 209h195l-291 -406h-155l-291 406h195
z" />
    <glyph glyph-name="napostrophe" unicode="&#x149;" horiz-adv-x="2271" 
d="M223 1260v151q60 36 91.5 86t47.5 105.5t16 123.5h-155v330h330v-205q0 -185 -36.5 -281.5t-108.5 -178t-185 -131.5zM1192 0h-231v1397h231v-242q74 113 143.5 168t144.5 83.5t170 28.5q130 0 234.5 -53.5t162 -158t57.5 -335.5v-888h-233v790q0 187 -25 265
t-97.5 122.5t-157.5 44.5q-102 0 -194.5 -60.5t-148.5 -168t-56 -306.5v-687z" />
    <glyph glyph-name="Eng" unicode="&#x14a;" horiz-adv-x="1815" 
d="M601 -193h253v-14q0 -52 28 -95.5t89.5 -64.5t135.5 -21q77 0 144 36.5t97 110.5q24 60 28 247l-884 1378l-80 157v-1541h-229v1939h251l886 -1378l58 -109v1487h252v-1939h-2q-8 -253 -69 -354q-66 -118 -166.5 -173.5t-273.5 -55.5q-283 0 -400.5 117.5t-117.5 258.5
v14z" />
    <glyph glyph-name="eng" unicode="&#x14b;" horiz-adv-x="1493" 
d="M1093 647h2v143q0 187 -25 265t-97.5 122.5t-156.5 44.5q-103 0 -195.5 -60.5t-148.5 -168t-56 -306.5v-687h-233v1397h233v-242q74 113 143.5 168t145 83.5t167.5 28.5q133 0 236.5 -53.5t161.5 -158t58 -335.5v-888q0 -211 -51 -314.5t-163.5 -166t-243.5 -62.5
q-94 0 -203 23v184l50 -6q69 -8 111 -8q116 0 190.5 60.5t74.5 289.5v647z" />
    <glyph glyph-name="Omacron" unicode="&#x14c;" horiz-adv-x="1881" 
d="M940 -58q-363 0 -593 267t-230 762q0 492 230 759t593 267q364 0 594 -267t230 -759q0 -495 -230 -762t-594 -267zM940 137q266 0 414.5 228t148.5 606q0 375 -148.5 604t-414.5 229q-263 0 -412.5 -229t-149.5 -604q0 -378 149.5 -606t412.5 -228zM591 2126v155h699
v-155h-699z" />
    <glyph glyph-name="omacron" unicode="&#x14d;" horiz-adv-x="1551" 
d="M776 -38q-274 0 -466.5 185t-192.5 552q0 364 192.5 550t466.5 186q273 0 466 -186t193 -550q0 -367 -193 -552t-466 -185zM776 155q189 0 302.5 149.5t113.5 394.5q0 243 -113.5 393t-302.5 150t-302.5 -150t-113.5 -393q0 -245 113.5 -394.5t302.5 -149.5zM426 1563
v155h699v-155h-699z" />
    <glyph glyph-name="Obreve" unicode="&#x14e;" horiz-adv-x="1881" 
d="M940 -58q-363 0 -593 267t-230 762q0 492 230 759t593 267q364 0 594 -267t230 -759q0 -495 -230 -762t-594 -267zM940 137q266 0 414.5 228t148.5 606q0 375 -148.5 604t-414.5 229q-263 0 -412.5 -229t-149.5 -604q0 -378 149.5 -606t412.5 -228zM731 2532
q12 -97 72.5 -169t136.5 -72q77 0 137 74t72 167h159q-14 -139 -70 -224.5t-134.5 -133.5t-163.5 -48q-82 0 -161.5 48t-135.5 133.5t-72 224.5h160z" />
    <glyph glyph-name="obreve" unicode="&#x14f;" horiz-adv-x="1551" 
d="M776 -38q-274 0 -466.5 185t-192.5 552q0 364 192.5 550t466.5 186q273 0 466 -186t193 -550q0 -367 -193 -552t-466 -185zM776 155q189 0 302.5 149.5t113.5 394.5q0 243 -113.5 393t-302.5 150t-302.5 -150t-113.5 -393q0 -245 113.5 -394.5t302.5 -149.5zM567 1969
q10 -96 71 -168.5t138 -72.5q76 0 136.5 74.5t72.5 166.5h158q-14 -138 -70 -223.5t-134.5 -134t-162.5 -48.5q-83 0 -162 48.5t-135.5 134t-72.5 223.5h161z" />
    <glyph glyph-name="Ohungarumlaut" unicode="&#x150;" horiz-adv-x="1881" 
d="M940 -58q-363 0 -593 267t-230 762q0 492 230 759t593 267q364 0 594 -267t230 -759q0 -495 -230 -762t-594 -267zM940 137q266 0 414.5 228t148.5 606q0 375 -148.5 604t-414.5 229q-263 0 -412.5 -229t-149.5 -604q0 -378 149.5 -606t412.5 -228zM852 2126h-147
l179 406h153zM1194 2126h-147l181 406h156z" />
    <glyph glyph-name="ohungarumlaut" unicode="&#x151;" horiz-adv-x="1551" 
d="M776 -38q-274 0 -466.5 185t-192.5 552q0 364 192.5 550t466.5 186q273 0 466 -186t193 -550q0 -367 -193 -552t-466 -185zM776 155q189 0 302.5 149.5t113.5 394.5q0 243 -113.5 393t-302.5 150t-302.5 -150t-113.5 -393q0 -245 113.5 -394.5t302.5 -149.5zM667 1563
h-147l179 406h153zM1009 1563h-147l181 406h157z" />
    <glyph glyph-name="OE" unicode="&#x152;" horiz-adv-x="2793" 
d="M1507 0v213q-129 -165 -261.5 -218t-289.5 -53q-385 0 -612 270t-227 759q0 486 226 756t615 270q161 0 291.5 -57t257.5 -214v213h1095v-213h-844v-611h738v-195h-738v-707h908v-213h-1159zM940 137q266 0 417.5 228t151.5 606q0 375 -151.5 604t-417.5 229
q-263 0 -412.5 -229t-149.5 -604q0 -378 149.5 -606t412.5 -228z" />
    <glyph glyph-name="oe" unicode="&#x153;" horiz-adv-x="2550" 
d="M1316 1163q115 149 245.5 210.5t283.5 61.5q160 0 289 -67.5t205 -214t76 -408.5v-76h-988q0 -225 120.5 -369.5t333.5 -144.5q155 0 224 67t69 124v14h235v-14q0 -93 -74 -189.5t-197 -145.5t-267 -49q-372 0 -557 281q-80 -141 -229 -211t-311 -70q-264 0 -460.5 182
t-196.5 555q0 374 196.5 555t458.5 181q152 0 296 -61.5t248 -210.5zM776 155q189 0 302.5 149.5t113.5 394.5q0 243 -113.5 393t-302.5 150t-302.5 -150t-113.5 -393q0 -245 113.5 -394.5t302.5 -149.5zM1443 844h755v28q0 82 -48 181.5t-138.5 147t-182.5 41.5
q-131 0 -240.5 -104.5t-145.5 -293.5z" />
    <glyph glyph-name="Racute" unicode="&#x154;" horiz-adv-x="1551" 
d="M436 0h-253v1939h601q221 0 332.5 -63.5t176.5 -184t65 -260.5q0 -115 -44 -219.5t-123.5 -189t-246.5 -150.5q63 -34 94 -65t76 -101.5t80 -130.5l309 -575h-289l-270 510q-96 185 -253 324h-255v-834zM436 1027h247q155 0 236.5 48t128.5 140.5t47 197.5
q0 90 -37 162.5t-110.5 120.5t-246.5 48h-265v-717zM371 2068l369 408h272l-428 -408h-213z" />
    <glyph glyph-name="racute" unicode="&#x155;" horiz-adv-x="989" 
d="M416 0h-233v1397h233v-248q58 107 126.5 166t145 89.5t156.5 30.5q72 0 125 -20v-241q-83 38 -175 38q-131 0 -254.5 -114.5t-123.5 -408.5v-689zM305 1563l370 406h269l-426 -406h-213z" />
    <glyph glyph-name="Rcommaaccent" unicode="&#x156;" horiz-adv-x="1551" 
d="M436 0h-253v1939h601q221 0 332.5 -63.5t176.5 -184t65 -260.5q0 -115 -44 -219.5t-123.5 -189t-246.5 -150.5q63 -34 94 -65t76 -101.5t80 -130.5l309 -575h-289l-270 510q-96 185 -253 324h-255v-834zM436 1027h247q155 0 236.5 48t128.5 140.5t47 197.5
q0 90 -37 162.5t-110.5 120.5t-246.5 48h-265v-717zM705 -660v97q38 22 59 55t32 69.5t11 80.5h-102v215h215v-133q0 -120 -23.5 -183.5t-70.5 -115.5t-121 -85z" />
    <glyph glyph-name="rcommaaccent" unicode="&#x157;" horiz-adv-x="989" 
d="M416 0h-233v1397h233v-248q58 107 126.5 166t145 89.5t156.5 30.5q72 0 125 -20v-241q-83 38 -175 38q-131 0 -254.5 -114.5t-123.5 -408.5v-689zM192 -660v97q40 22 60.5 55t31.5 69.5t11 80.5h-103v215h215v-133q0 -120 -23 -183.5t-70.5 -115.5t-121.5 -85z" />
    <glyph glyph-name="Rcaron" unicode="&#x158;" horiz-adv-x="1551" 
d="M436 0h-253v1939h601q221 0 332.5 -63.5t176.5 -184t65 -260.5q0 -115 -44 -219.5t-123.5 -189t-246.5 -150.5q63 -34 94 -65t76 -101.5t80 -130.5l309 -575h-289l-270 510q-96 185 -253 324h-255v-834zM436 1027h247q155 0 236.5 48t128.5 140.5t47 197.5
q0 90 -37 162.5t-110.5 120.5t-246.5 48h-265v-717zM697 2265l175 211h195l-291 -408h-155l-291 408h192z" />
    <glyph glyph-name="rcaron" unicode="&#x159;" horiz-adv-x="989" 
d="M416 0h-233v1397h233v-248q58 107 126.5 166t145 89.5t156.5 30.5q72 0 125 -20v-241q-83 38 -175 38q-131 0 -254.5 -114.5t-123.5 -408.5v-689zM577 1760l173 209h194l-291 -406h-155l-291 406h195z" />
    <glyph glyph-name="Sacute" unicode="&#x15a;" horiz-adv-x="1551" 
d="M137 436h251v-12q0 -161 114.5 -224t303.5 -63q165 0 276.5 96.5t111.5 252.5q0 127 -97 209q-96 81 -291 159l-103 42q-205 85 -307.5 168t-152.5 184.5t-50 226.5q0 221 155.5 371.5t487.5 150.5q303 0 426.5 -112.5t123.5 -262.5v-12h-251v12q0 48 -38 94t-114.5 67
t-166.5 21q-187 0 -276.5 -93t-89.5 -212q0 -80 42.5 -150.5t116.5 -116.5t251 -125l119 -50q285 -125 381 -261q95 -137 95 -294q0 -146 -77.5 -283t-215 -207t-366.5 -70q-217 0 -363 51t-221 170.5t-75 260.5v12zM524 2126l370 406h269l-428 -406h-211z" />
    <glyph glyph-name="sacute" unicode="&#x15b;" horiz-adv-x="1304" 
d="M98 370h232v-6q0 -91 69 -150t232 -59q145 0 234 70t89 165q0 128 -174 183l-121 36l-78 24l-161 50q-275 103 -275 338q0 165 133.5 289.5t396.5 124.5q259 0 369.5 -106.5t110.5 -237.5v-4h-235v4q0 70 -70 110.5t-187 40.5q-141 0 -215 -58.5t-74 -142.5
q0 -66 48 -106.5t163 -72.5l110 -32l83 -24q170 -48 211.5 -68.5t83.5 -50.5q60 -46 88.5 -109.5t28.5 -149.5q0 -197 -143 -331.5t-414 -134.5q-173 0 -286.5 51t-181 141.5t-67.5 209.5v6zM434 1563l370 406h269l-426 -406h-213z" />
    <glyph glyph-name="Scircumflex" unicode="&#x15c;" horiz-adv-x="1551" 
d="M137 436h251v-12q0 -161 114.5 -224t303.5 -63q165 0 276.5 96.5t111.5 252.5q0 127 -97 209q-96 81 -291 159l-103 42q-205 85 -307.5 168t-152.5 184.5t-50 226.5q0 221 155.5 371.5t487.5 150.5q303 0 426.5 -112.5t123.5 -262.5v-12h-251v12q0 48 -38 94t-114.5 67
t-166.5 21q-187 0 -276.5 -93t-89.5 -212q0 -80 42.5 -150.5t116.5 -116.5t251 -125l119 -50q285 -125 381 -261q95 -137 95 -294q0 -146 -77.5 -283t-215 -207t-366.5 -70q-217 0 -363 51t-221 170.5t-75 260.5v12zM796 2335l-175 -209h-195l291 406h155l291 -406h-194z
" />
    <glyph glyph-name="scircumflex" unicode="&#x15d;" horiz-adv-x="1304" 
d="M98 370h232v-6q0 -91 69 -150t232 -59q145 0 234 70t89 165q0 128 -174 183l-121 36l-78 24l-161 50q-275 103 -275 338q0 165 133.5 289.5t396.5 124.5q259 0 369.5 -106.5t110.5 -237.5v-4h-235v4q0 70 -70 110.5t-187 40.5q-141 0 -215 -58.5t-74 -142.5
q0 -66 48 -106.5t163 -72.5l110 -32l83 -24q170 -48 211.5 -68.5t83.5 -50.5q60 -46 88.5 -109.5t28.5 -149.5q0 -197 -143 -331.5t-414 -134.5q-173 0 -286.5 51t-181 141.5t-67.5 209.5v6zM643 1772l-175 -209h-195l292 406h154l292 -406h-195z" />
    <glyph glyph-name="Scedilla" unicode="&#x15e;" horiz-adv-x="1551" 
d="M713 -56q-321 22 -448.5 148.5t-127.5 319.5v24h251v-22q0 -151 126.5 -214t291.5 -63t276.5 96.5t111.5 252.5q0 127 -97 209q-96 81 -291 159l-103 42q-205 85 -307.5 168t-152.5 184.5t-50 226.5q0 221 155.5 371.5t487.5 150.5q303 0 426.5 -112.5t123.5 -254.5v-20
h-251v18q0 42 -38 88t-114.5 67t-166.5 21q-183 0 -271.5 -93t-88.5 -212q0 -80 41.5 -150.5t113.5 -116.5t249 -125l119 -50q287 -127 381 -261q95 -139 95 -292q0 -189 -136.5 -363.5t-470.5 -198.5l-58 -105q134 -28 175.5 -83t41.5 -116q0 -68 -55.5 -125.5
t-171.5 -57.5q-105 0 -199 37v110q72 -38 148 -38q43 0 78 26t35 54q0 87 -231 109z" />
    <glyph glyph-name="scedilla" unicode="&#x15f;" horiz-adv-x="1300" 
d="M649 -163q135 -28 177 -83t42 -116q0 -68 -56 -125.5t-173 -57.5q-104 0 -199 37v110q72 -38 149 -38q44 0 79 26t35 54q0 87 -233 109l117 209q-265 24 -377 127.5t-112 227.5v23h232v-21q0 -82 76 -123t227 -41q169 0 243 64t74 141q0 66 -42 112q-44 46 -231 121
l-126 50q-252 100 -338 183q-86 84 -86 221q0 191 143.5 289.5t376.5 98.5q147 0 266.5 -39.5t180.5 -119.5t61 -153v-18h-235v20q0 49 -64 83t-207 34q-139 0 -209 -40.5t-70 -122.5q0 -56 38 -96q40 -43 139 -85l86 -34l155 -62l76 -32q185 -73 253 -167q67 -97 67 -217
q0 -153 -104.5 -270.5t-358.5 -149.5z" />
    <glyph glyph-name="Scaron" unicode="&#x160;" horiz-adv-x="1551" 
d="M137 436h251v-12q0 -161 114.5 -224t303.5 -63q165 0 276.5 96.5t111.5 252.5q0 127 -97 209q-96 81 -291 159l-103 42q-205 85 -307.5 168t-152.5 184.5t-50 226.5q0 221 155.5 371.5t487.5 150.5q303 0 426.5 -112.5t123.5 -262.5v-12h-251v12q0 48 -38 94t-114.5 67
t-166.5 21q-187 0 -276.5 -93t-89.5 -212q0 -80 42.5 -150.5t116.5 -116.5t251 -125l119 -50q285 -125 381 -261q95 -137 95 -294q0 -146 -77.5 -283t-215 -207t-366.5 -70q-217 0 -363 51t-221 170.5t-75 260.5v12zM849 2327l174 78h272l-368 -253h-155l-370 253h272z" />
    <glyph glyph-name="scaron" unicode="&#x161;" horiz-adv-x="1304" 
d="M98 370h232v-6q0 -91 69 -150t232 -59q145 0 234 70t89 165q0 128 -174 183l-121 36l-78 24l-161 50q-275 103 -275 338q0 165 133.5 289.5t396.5 124.5q259 0 369.5 -106.5t110.5 -237.5v-4h-235v4q0 70 -70 110.5t-187 40.5q-141 0 -215 -58.5t-74 -142.5
q0 -66 48 -106.5t163 -72.5l110 -32l83 -24q170 -48 211.5 -68.5t83.5 -50.5q60 -46 88.5 -109.5t28.5 -149.5q0 -197 -143 -331.5t-414 -134.5q-173 0 -286.5 51t-181 141.5t-67.5 209.5v6zM643 1808l175 209h195l-292 -407h-154l-292 407h193z" />
    <glyph glyph-name="Tcedilla" unicode="&#x162;" horiz-adv-x="1640" 
d="M699 0v1744h-661v195h1561v-195h-649v-1744h-56l-78 -139q134 -26 175.5 -81t41.5 -116q0 -70 -55.5 -126t-171.5 -56q-105 0 -199 34v112q72 -40 149 -40q44 0 78 26t34 56q0 85 -231 109l122 221h-60z" />
    <glyph glyph-name="tcedilla" unicode="&#x163;" horiz-adv-x="1135" 
d="M1037 197v-195q-144 -34 -231 -39l-71 -128q133 -26 174 -82t41 -115q0 -70 -54 -126.5t-173 -56.5q-102 0 -199 35v112q73 -40 149 -40q44 0 79.5 26t35.5 56q0 85 -233 109l121 218q-72 12 -134 43q-104 52 -158 152.5t-54 317.5v718h-242v195h242v329h233v-329h408
v-195h-408v-651q0 -185 29 -256.5t90 -105.5t148 -34q68 0 207 42z" />
    <glyph glyph-name="Tcaron" unicode="&#x164;" horiz-adv-x="1640" 
d="M699 0v1744h-661v195h1561v-195h-649v-1744h-251zM818 2265l175 211h195l-292 -408h-155l-291 408h193z" />
    <glyph glyph-name="tcaron" unicode="&#x165;" horiz-adv-x="1519" 
d="M1037 197v-195q-169 -40 -259 -40q-131 0 -235.5 52t-158.5 152.5t-54 317.5v718h-242v195h242v329h233v-329h408v-195h-408v-651q0 -185 29 -256.5t90 -105.5t148 -34q68 0 207 42zM1037 1328v151q60 34 92 85.5t48.5 105.5t16.5 124h-157v330h331v-205
q0 -185 -36 -282.5t-108.5 -178t-186.5 -130.5z" />
    <glyph glyph-name="Tbar" unicode="&#x166;" horiz-adv-x="1640" 
d="M699 0v892h-229v155h229v697h-661v195h1561v-195h-649v-697h219v-155h-219v-892h-251z" />
    <glyph glyph-name="tbar" unicode="&#x167;" horiz-adv-x="1135" 
d="M213 766v154h117v282h-242v195h242v329h233v-329h408v-195h-408v-282h349v-154h-349v-215q0 -185 29 -256.5t90 -105.5t148 -34q68 0 207 42v-195q-169 -40 -259 -40q-131 0 -235.5 52t-158.5 152.5t-54 317.5v282h-117z" />
    <glyph glyph-name="Utilde" unicode="&#x168;" 
d="M155 1939h253v-1246q0 -273 53 -366.5t165.5 -141.5t251.5 -48q133 0 236.5 48t153.5 153.5t50 443.5v1157h233v-1224q0 -339 -78 -477t-226 -217t-371 -79q-207 0 -379.5 63t-257 198t-84.5 456v1280zM601 2070h-157q0 164 65.5 241.5t161.5 77.5q79 0 157 -50l54 -32
q103 -64 145 -64q74 0 74 146h159q-8 -128 -34 -186.5t-80.5 -96.5t-118.5 -38q-87 0 -177 60l-54 36q-75 50 -107 50q-88 0 -88 -144z" />
    <glyph glyph-name="utilde" unicode="&#x169;" horiz-adv-x="1493" 
d="M1077 1397h231v-1397h-231v243q-72 -112 -142.5 -168.5t-145 -84.5t-160.5 -28q-195 0 -329.5 109.5t-134.5 438.5v887h233v-788q0 -306 81.5 -370t199.5 -64q105 0 196.5 60t146.5 169.5t55 304.5v688zM484 1525h-154q0 165 64 242.5t161 77.5q78 0 158 -51l53 -30
q102 -66 144 -66q75 0 75 147h158q-8 -127 -34 -186.5t-80 -97.5t-119 -38q-84 0 -177 62l-54 37q-74 48 -104 48q-91 0 -91 -145z" />
    <glyph glyph-name="Umacron" unicode="&#x16a;" 
d="M155 1939h253v-1246q0 -273 53 -366.5t165.5 -141.5t251.5 -48q133 0 236.5 48t153.5 153.5t50 443.5v1157h233v-1224q0 -339 -78 -477t-226 -217t-371 -79q-207 0 -379.5 63t-257 198t-84.5 456v1280zM504 2068v154h698v-154h-698z" />
    <glyph glyph-name="umacron" unicode="&#x16b;" horiz-adv-x="1493" 
d="M1077 1397h231v-1397h-231v243q-72 -112 -142.5 -168.5t-145 -84.5t-160.5 -28q-195 0 -329.5 109.5t-134.5 438.5v887h233v-788q0 -306 81.5 -370t199.5 -64q105 0 196.5 60t146.5 169.5t55 304.5v688zM388 1523v155h699v-155h-699z" />
    <glyph glyph-name="Ubreve" unicode="&#x16c;" 
d="M155 1939h253v-1246q0 -273 53 -366.5t165.5 -141.5t251.5 -48q133 0 236.5 48t153.5 153.5t50 443.5v1157h233v-1224q0 -339 -78 -477t-226 -217t-371 -79q-207 0 -379.5 63t-257 198t-84.5 456v1280zM643 2476q12 -97 73.5 -170.5t137.5 -73.5t136.5 74.5t70.5 169.5
h161q-16 -139 -71.5 -225.5t-134 -134.5t-162.5 -48t-163.5 48t-135 134.5t-71.5 225.5h159z" />
    <glyph glyph-name="ubreve" unicode="&#x16d;" horiz-adv-x="1493" 
d="M1077 1397h231v-1397h-231v243q-72 -112 -142.5 -168.5t-145 -84.5t-160.5 -28q-195 0 -329.5 109.5t-134.5 438.5v887h233v-788q0 -306 81.5 -370t199.5 -64q105 0 196.5 60t146.5 169.5t55 304.5v688zM528 1931q11 -96 72 -169.5t137 -73.5q77 0 137 74.5t70 168.5h161
q-16 -139 -71 -224t-133.5 -134.5t-163.5 -49.5q-84 0 -163.5 49.5t-134.5 134.5t-71 224h160z" />
    <glyph glyph-name="Uring" unicode="&#x16e;" 
d="M155 1939h253v-1246q0 -273 53 -366.5t165.5 -141.5t251.5 -48q133 0 236.5 48t153.5 153.5t50 443.5v1157h233v-1224q0 -339 -78 -477t-226 -217t-371 -79q-207 0 -379.5 63t-257 198t-84.5 456v1280zM852 2184q50 0 83.5 34.5t33.5 82.5q0 46 -33.5 80t-83.5 34
q-46 0 -81.5 -34t-35.5 -80q0 -48 35.5 -82.5t81.5 -34.5zM852 2068q-96 0 -163.5 70t-67.5 163q0 92 67.5 161.5t163.5 69.5q98 0 165.5 -69.5t67.5 -161.5q0 -93 -67.5 -163t-165.5 -70z" />
    <glyph glyph-name="uring" unicode="&#x16f;" horiz-adv-x="1493" 
d="M1077 1397h231v-1397h-231v243q-72 -112 -142.5 -168.5t-145 -84.5t-160.5 -28q-195 0 -329.5 109.5t-134.5 438.5v887h233v-788q0 -306 81.5 -370t199.5 -64q105 0 196.5 60t146.5 169.5t55 304.5v688zM735 1640q51 0 84 34t33 82t-33 82.5t-84 34.5q-46 0 -80 -34.5
t-34 -82.5t34 -82t80 -34zM735 1523q-96 0 -163.5 70.5t-67.5 162.5q0 95 68.5 164t162.5 69q99 0 166.5 -69t67.5 -164q0 -92 -67.5 -162.5t-166.5 -70.5z" />
    <glyph glyph-name="Uhungarumlaut" unicode="&#x170;" 
d="M155 1939h253v-1246q0 -273 53 -366.5t165.5 -141.5t251.5 -48q133 0 236.5 48t153.5 153.5t50 443.5v1157h233v-1224q0 -339 -78 -477t-226 -217t-371 -79q-207 0 -379.5 63t-257 198t-84.5 456v1280zM776 2068h-145l177 408h153zM1117 2068h-146l180 408h157z" />
    <glyph glyph-name="uhungarumlaut" unicode="&#x171;" horiz-adv-x="1493" 
d="M1077 1397h231v-1397h-231v243q-72 -112 -142.5 -168.5t-145 -84.5t-160.5 -28q-195 0 -329.5 109.5t-134.5 438.5v887h233v-788q0 -306 81.5 -370t199.5 -64q105 0 196.5 60t146.5 169.5t55 304.5v688zM633 1523h-145l179 408h153zM977 1523h-149l183 408h156z" />
    <glyph glyph-name="Uogonek" unicode="&#x172;" 
d="M155 1939h253v-1246q0 -273 53 -366.5t165.5 -141.5t251.5 -48q133 0 236.5 48t153.5 153.5t50 443.5v1157h233v-1224q0 -339 -78 -477t-226 -217q-100 -53 -233 -70q-77 -47 -129 -118q-69 -94 -69 -155q0 -38 34 -73t117 -35q44 0 100 24v-122q-82 -37 -159 -37
q-116 0 -191.5 63.5t-75.5 159.5q0 136 150 287q-158 10 -295 60q-172 63 -256.5 198t-84.5 456v1280z" />
    <glyph glyph-name="uogonek" unicode="&#x173;" horiz-adv-x="1493" 
d="M1346 24q-20 -9 -38 -20v-4h-8q-81 -48 -136 -122q-69 -95 -69 -153q0 -40 35 -75.5t116 -35.5q44 0 100 24v-120q-82 -36 -158 -36q-117 0 -192.5 62t-75.5 159q0 140 160 297h-3v243q-72 -112 -142.5 -168.5t-145 -84.5t-160.5 -28q-195 0 -329.5 109.5t-134.5 438.5
v887h233v-788q0 -306 81.5 -370t199.5 -64q105 0 196.5 60t146.5 169.5t55 304.5v688h231v-1373h38z" />
    <glyph glyph-name="Wcircumflex" unicode="&#x174;" horiz-adv-x="2423" 
d="M794 0h-257l-439 1939h242l307 -1364l42 -235h12l42 235l356 1364h249l348 -1368l38 -231h12l42 231l318 1368h221l-450 -1939h-257l-358 1391l-46 239h-14l-43 -239zM1212 2277l-175 -209h-193l291 408h155l291 -408h-195z" />
    <glyph glyph-name="wcircumflex" unicode="&#x175;" horiz-adv-x="1997" 
d="M438 0l-400 1397h245l245 -869l33 -209h26l36 209l249 869h235l277 -867l47 -211h26l36 211l245 867h221l-400 -1397h-235l-287 912l-38 203h-20l-41 -203l-265 -912h-235zM999 1734l-175 -211h-193l289 408h157l291 -408h-194z" />
    <glyph glyph-name="Ycircumflex" unicode="&#x176;" horiz-adv-x="1561" 
d="M908 0h-251v914l-629 1025h294l486 -784l478 784h245l-623 -1025v-914zM780 2277l-175 -209h-193l291 408h155l291 -408h-195z" />
    <glyph glyph-name="ycircumflex" unicode="&#x177;" horiz-adv-x="1463" 
d="M639 60l-601 1337h257l469 -1037l438 1037h233l-589 -1399q-119 -281 -199 -373.5t-169.5 -130t-238.5 -37.5h-175v193h133q96 0 168.5 26.5t121 82.5t128.5 247zM735 1734l-174 -211h-193l291 408h155l291 -408h-195z" />
    <glyph glyph-name="Ydieresis" unicode="&#x178;" horiz-adv-x="1561" 
d="M908 0h-251v914l-629 1025h294l486 -784l478 784h245l-623 -1025v-914zM368 2152v233h233v-233h-233zM910 2152v233h233v-233h-233z" />
    <glyph glyph-name="Zacute" unicode="&#x179;" horiz-adv-x="1473" 
d="M1358 233v-233h-1260v233l963 1493h-896v213h1173v-213l-958 -1493h978zM456 2068l370 408h271l-428 -408h-213z" />
    <glyph glyph-name="zacute" unicode="&#x17a;" horiz-adv-x="1417" 
d="M1280 193v-193h-1135v193l830 1009h-810v195h1085v-195l-814 -1009h844zM442 1523l370 408h269l-428 -408h-211z" />
    <glyph glyph-name="Zdotaccent" unicode="&#x17b;" horiz-adv-x="1473" 
d="M1358 233v-233h-1260v233l963 1493h-896v213h1173v-213l-958 -1493h978zM611 2068v233h233v-233h-233z" />
    <glyph glyph-name="zdotaccent" unicode="&#x17c;" horiz-adv-x="1417" 
d="M1280 193v-193h-1135v193l830 1009h-810v195h1085v-195l-814 -1009h844zM597 1523v233h231v-233h-231z" />
    <glyph glyph-name="Zcaron" unicode="&#x17d;" horiz-adv-x="1473" 
d="M1358 233v-233h-1260v233l963 1493h-896v213h1173v-213l-958 -1493h978zM787 2327l175 78h271l-370 -253h-155l-367 253h271z" />
    <glyph glyph-name="zcaron" unicode="&#x17e;" horiz-adv-x="1417" 
d="M1280 193v-193h-1135v193l830 1009h-810v195h1085v-195l-814 -1009h844zM713 1808l173 209h195l-291 -407h-155l-291 407h193z" />
    <glyph glyph-name="uni017F" unicode="&#x17f;" horiz-adv-x="999" 
d="M543 0h-234v1202h-203v195h203v64q0 303 129 429.5t334 126.5q78 0 197 -18v-189q-97 13 -157 13q-113 0 -191 -55.5t-78 -262.5v-1505z" />
    <glyph glyph-name="Oopen" unicode="&#x186;" horiz-adv-x="1668" 
d="M350 1523h-233v12q0 115 79 233.5t215 174.5t320 56q370 0 605 -258t235 -770q0 -513 -234 -771t-608 -258q-182 0 -318 55t-215 175.5t-79 233.5v12h233v-12q0 -72 44 -137.5t127.5 -98.5t199.5 -33q298 0 443.5 235t145.5 599q0 367 -146.5 600t-440.5 233
q-203 0 -288 -83t-85 -186v-12z" />
    <glyph glyph-name="uni0189" unicode="&#x189;" horiz-adv-x="1794" 
d="M183 0v892h-231v195h231v852h536q394 0 575 -105.5t282.5 -323.5t101.5 -533q0 -294 -92.5 -509t-277.5 -341.5t-552 -126.5h-573zM436 213h297q268 0 403.5 78.5t207 245t71.5 419.5q0 254 -65.5 435.5t-200 267t-420.5 85.5h-293v-657h350v-195h-350v-679z" />
    <glyph glyph-name="Ereversed" unicode="&#x18e;" horiz-adv-x="1473" 
d="M1346 1939v-1939h-1097v213h844v613h-735v193h735v707h-910v213h1163z" />
    <glyph glyph-name="florin" unicode="&#x192;" 
d="M575 -465h-235l316 1570h-203l38 195h204l33 161q110 557 573 557q77 0 193 -18l-38 -190q-96 13 -151 13q-117 0 -206 -56t-130 -262l-41 -205h407l-39 -195h-407z" />
    <glyph glyph-name="Ohorn" unicode="&#x1a0;" horiz-adv-x="1881" 
d="M940 -58q-363 0 -593 267t-230 762q0 492 230 759t593 267q364 0 593 -267l28 -32q4 0 8 4q35 18 62 43t49 65l-87 51l107 187l185 -109l-68 -114q-59 -105 -111 -149q-40 -34 -92 -56q150 -250 150 -649q0 -495 -230 -762t-594 -267zM940 137q266 0 414.5 228t148.5 606
q0 375 -148.5 604t-414.5 229q-263 0 -412.5 -229t-149.5 -604q0 -378 149.5 -606t412.5 -228z" />
    <glyph glyph-name="ohorn" unicode="&#x1a1;" horiz-adv-x="1602" 
d="M776 -38q-274 0 -466.5 185t-192.5 552q0 364 192.5 550t466.5 186q273 0 466 -187q32 -30 60 -66q20 14 36 30q28 26 51 64l-87 52l107 185l184 -106l-66 -115q-60 -106 -112 -149q-31 -24 -65 -44q85 -161 85 -400q0 -367 -193 -552t-466 -185zM776 155
q189 0 302.5 149.5t113.5 394.5q0 243 -113.5 393t-302.5 150t-302.5 -150t-113.5 -393q0 -245 113.5 -394.5t302.5 -149.5z" />
    <glyph glyph-name="Tonetwo" unicode="&#x1a7;" horiz-adv-x="1551" 
d="M1457 424q0 -141 -76.5 -260.5t-222 -170.5t-362.5 -51q-229 0 -366 70t-215 207t-78 283q0 157 96 294q97 136 380 261l120 50q175 79 249.5 125t117.5 116.5t43 150.5q0 119 -89 212t-276 93q-91 0 -167 -21t-114.5 -67t-38.5 -94v-12h-253v12q0 150 123.5 262.5
t427.5 112.5q331 0 487 -150.5t156 -371.5q0 -125 -50.5 -226.5t-152 -184.5t-308.5 -168l-100 -42q-197 -78 -294 -159q-96 -82 -96 -209q0 -156 112.5 -252.5t277.5 -96.5q189 0 302.5 63t113.5 224v12h253v-12z" />
    <glyph glyph-name="tonetwo" unicode="&#x1a8;" horiz-adv-x="1304" 
d="M1190 364q0 -119 -67.5 -209.5t-181 -141.5t-286.5 -51q-273 0 -415 134.5t-142 331.5q0 86 28.5 149.5t86.5 109.5q44 30 85.5 50.5t211.5 68.5l81 24l112 32q115 32 163 72.5t48 106.5q0 84 -74 142.5t-215 58.5q-117 0 -188 -40.5t-71 -110.5v-4h-233v4
q0 131 109.5 237.5t370.5 106.5q263 0 396.5 -124.5t133.5 -289.5q0 -235 -275 -338l-163 -50l-78 -24l-119 -36q-174 -55 -174 -183q0 -95 89 -165t234 -70q163 0 232 59t69 150v6h232v-6z" />
    <glyph glyph-name="Uhorn" unicode="&#x1af;" horiz-adv-x="2030" 
d="M155 1939h253v-1246q0 -273 53 -366.5t165.5 -141.5t251.5 -48q133 0 236.5 48t153.5 153.5t50 443.5v1157h233v-12l32 12q33 20 60 45t49 66l-86 50l106 187l185 -109l-66 -114q-61 -105 -112 -148t-120 -65q-24 -10 -48 -14v-1122q0 -339 -78 -477t-226 -217t-371 -79
q-207 0 -379.5 63t-257 198t-84.5 456v1280z" />
    <glyph glyph-name="uhorn" unicode="&#x1b0;" horiz-adv-x="1738" 
d="M1077 1397h231v-25q12 4 22 8q34 21 60.5 46t50.5 65l-87 50l107 187l185 -108l-69 -115q-60 -104 -111 -147.5t-118 -65.5q-20 -8 -40 -10v-1282h-231v243q-72 -112 -142.5 -168.5t-145 -84.5t-160.5 -28q-195 0 -329.5 109.5t-134.5 438.5v887h233v-788
q0 -306 81.5 -370t199.5 -64q105 0 196.5 60t146.5 169.5t55 304.5v688z" />
    <glyph glyph-name="clickdental" unicode="&#x1c0;" horiz-adv-x="631" 
d="M213 -58v2055h205v-2055h-205z" />
    <glyph glyph-name="clicklateral" unicode="&#x1c1;" horiz-adv-x="1260" 
d="M213 -58v2055h205v-2055h-205zM844 -58v2055h203v-2055h-203z" />
    <glyph glyph-name="clickretroflex" unicode="&#x1c3;" horiz-adv-x="776" 
d="M506 0h-233v233h233v-233zM486 484h-191l-62 1455h310z" />
    <glyph glyph-name="DZcaron" unicode="&#x1c4;" horiz-adv-x="3314" 
d="M183 0v1939h536q392 0 573 -105.5t283.5 -323.5t102.5 -533q0 -294 -92.5 -509t-278.5 -341.5t-551 -126.5h-573zM436 213h297q268 0 403.5 78.5t207 245t71.5 419.5q0 254 -65.5 435.5t-200 267t-422.5 85.5h-291v-1531zM3151 233v-233h-1260v233l964 1493h-896v213
h1174v-213l-959 -1493h977zM2622 2265l173 211h195l-292 -408h-155l-291 408h195z" />
    <glyph glyph-name="Dzcaron" unicode="&#x1c5;" horiz-adv-x="3217" 
d="M183 0v1939h536q392 0 573 -105.5t283.5 -323.5t102.5 -533q0 -294 -92.5 -509t-278.5 -341.5t-551 -126.5h-573zM436 213h297q268 0 403.5 78.5t207 245t71.5 419.5q0 254 -65.5 435.5t-200 267t-422.5 85.5h-291v-1531zM3074 193v-193h-1135v193l828 1009h-808v195
h1085v-195l-814 -1009h844zM2506 1722l175 209h194l-291 -408h-155l-291 408h193z" />
    <glyph glyph-name="dzcaron" unicode="&#x1c6;" horiz-adv-x="2996" 
d="M1143 2017h233v-2017h-233v243q-70 -137 -137.5 -189t-151.5 -72t-167 -20q-159 0 -291.5 86.5t-205.5 259t-73 387.5q0 318 153.5 529t428.5 211q91 0 169 -25.5t139.5 -76.5t135.5 -180v864zM1143 699q0 237 -102.5 390t-286.5 153q-169 0 -281.5 -135.5t-112.5 -403.5
q0 -315 108.5 -436.5t279.5 -121.5q110 0 206.5 67t142.5 199t46 288zM2821 193v-193h-1135v193l830 1009h-810v195h1085v-195l-814 -1009h844zM2255 1722l172 209h195l-291 -408h-155l-291 408h195z" />
    <glyph glyph-name="LJ" unicode="&#x1c7;" horiz-adv-x="2812" 
d="M183 0v1939h253v-1726h1017v-213h-1270zM1543 330h251v-13q0 -54 29.5 -96t89.5 -63t135 -21q78 0 144.5 35t96.5 109.5t30 327.5v1330h251v-1336q0 -318 -68.5 -434.5t-168 -171.5t-271.5 -55q-284 0 -401.5 117.5t-117.5 257.5v13z" />
    <glyph glyph-name="Lj" unicode="&#x1c8;" horiz-adv-x="2257" 
d="M183 0v1939h253v-1726h1017v-213h-1270zM1774 1397h235v-1397q0 -211 -51 -314.5t-163.5 -166t-243.5 -62.5q-94 0 -203 23v184l51 -6q68 -8 110 -8q117 0 191 60.5t74 289.5v1397zM1774 1716v223h235v-223h-235z" />
    <glyph glyph-name="lj" unicode="&#x1c9;" horiz-adv-x="1331" 
d="M416 0h-233v2017h233v-2017zM882 1397h235v-1397q0 -211 -51 -314.5t-163.5 -166t-243.5 -62.5q-94 0 -203 23v184l50 -6q69 -8 111 -8q116 0 190.5 60.5t74.5 289.5v1397zM882 1716v223h235v-223h-235z" />
    <glyph glyph-name="NJ" unicode="&#x1ca;" horiz-adv-x="3150" 
d="M416 0h-233v1939h251l886 -1378l81 -153l-4 153v1378h233v-1939h-250l-888 1384l-80 157l4 -157v-1384zM1863 330h253v-13q0 -54 28 -96t88.5 -63t134.5 -21q78 0 144.5 35t96.5 109.5t30 327.5v1330h252v-1336q0 -318 -68.5 -434.5t-168 -171.5t-272.5 -55
q-283 0 -400.5 117.5t-117.5 257.5v13z" />
    <glyph glyph-name="Nj" unicode="&#x1cb;" horiz-adv-x="2576" 
d="M416 0h-233v1939h251l886 -1378l81 -153l-4 153v1378h233v-1939h-250l-888 1384l-80 157l4 -157v-1384zM2096 1397h233v-1397q0 -211 -50.5 -314.5t-163 -166t-244.5 -62.5q-93 0 -203 23v184l50 -6q70 -8 111 -8q118 0 192.5 60.5t74.5 289.5v1397zM2096 1716v223h233
v-223h-233z" />
    <glyph glyph-name="nj" unicode="&#x1cc;" horiz-adv-x="2219" 
d="M416 0h-233v1397h233v-242q74 113 143.5 168t145 83.5t167.5 28.5q133 0 236.5 -53.5t161.5 -158t58 -335.5v-888h-233v790q0 187 -25 265t-97.5 122.5t-156.5 44.5q-103 0 -195.5 -60.5t-148.5 -168t-56 -306.5v-687zM1774 1397h235v-1397q0 -211 -51 -314.5
t-163.5 -166t-243.5 -62.5q-94 0 -203 23v184l51 -6q68 -8 110 -8q117 0 191 60.5t74 289.5v1397zM1774 1716v223h235v-223h-235z" />
    <glyph glyph-name="Acaron" unicode="&#x1cd;" horiz-adv-x="1861" 
d="M273 0h-235l796 1939h255l734 -1939h-274l-201 535h-856zM569 727h705l-340 903zM930 2265l173 211h195l-291 -408h-155l-291 408h195z" />
    <glyph glyph-name="acaron" unicode="&#x1ce;" horiz-adv-x="1417" 
d="M1045 0q-36 113 -36 193q-153 -151 -260.5 -191t-207.5 -40q-165 0 -284.5 101.5t-119.5 280.5q0 203 167.5 312.5t579.5 189.5l125 24v157q0 128 -86.5 180.5t-207.5 52.5q-144 0 -225.5 -63.5t-81.5 -149.5v-20h-253v20q0 92 78 190.5t208 149t282 50.5
q153 0 277.5 -48.5t183 -128.5t58.5 -302v-542q0 -90 4 -187.5t44 -228.5h-245zM1009 705l-71 -18q-353 -86 -451.5 -163.5t-98.5 -183.5q0 -57 29 -104t86.5 -73t113.5 -26q98 0 192.5 56t147 151.5t52.5 222.5v138zM713 1760l173 211h195l-291 -408h-155l-291 408h193z
" />
    <glyph glyph-name="Icaron" unicode="&#x1cf;" horiz-adv-x="621" 
d="M436 0h-253v1939h253v-1939zM309 2265l175 211h195l-291 -408h-155l-291 408h193z" />
    <glyph glyph-name="icaron" unicode="&#x1d0;" horiz-adv-x="601" 
d="M183 1397h233v-1397h-233v1397zM299 1722l175 209h195l-291 -408h-155l-291 408h193z" />
    <glyph glyph-name="Ocaron" unicode="&#x1d1;" horiz-adv-x="1881" 
d="M940 -58q-363 0 -593 267t-230 762q0 492 230 759t593 267q364 0 594 -267t230 -759q0 -495 -230 -762t-594 -267zM940 137q266 0 414.5 228t148.5 606q0 375 -148.5 604t-414.5 229q-263 0 -412.5 -229t-149.5 -604q0 -378 149.5 -606t412.5 -228zM940 2323l173 209h195
l-291 -406h-155l-291 406h195z" />
    <glyph glyph-name="ocaron" unicode="&#x1d2;" horiz-adv-x="1551" 
d="M776 -38q-274 0 -466.5 185t-192.5 552q0 364 192.5 550t466.5 186q273 0 466 -186t193 -550q0 -367 -193 -552t-466 -185zM776 155q189 0 302.5 149.5t113.5 394.5q0 243 -113.5 393t-302.5 150t-302.5 -150t-113.5 -393q0 -245 113.5 -394.5t302.5 -149.5zM776 1760
l172 209h195l-291 -406h-155l-291 406h195z" />
    <glyph glyph-name="Ucaron" unicode="&#x1d3;" 
d="M155 1939h253v-1246q0 -273 53 -366.5t165.5 -141.5t251.5 -48q133 0 236.5 48t153.5 153.5t50 443.5v1157h233v-1224q0 -339 -78 -477t-226 -217t-371 -79q-207 0 -379.5 63t-257 198t-84.5 456v1280zM852 2265l175 211h195l-292 -408h-154l-292 408h193z" />
    <glyph glyph-name="ucaron" unicode="&#x1d4;" horiz-adv-x="1493" 
d="M1077 1397h231v-1397h-231v243q-72 -112 -142.5 -168.5t-145 -84.5t-160.5 -28q-195 0 -329.5 109.5t-134.5 438.5v887h233v-788q0 -306 81.5 -370t199.5 -64q105 0 196.5 60t146.5 169.5t55 304.5v688zM735 1722l175 209h195l-291 -408h-155l-291 408h193z" />
    <glyph glyph-name="Udieresismacron" unicode="&#x1d5;" 
d="M155 1939h253v-1246q0 -273 53 -366.5t165.5 -141.5t251.5 -48q133 0 236.5 48t153.5 153.5t50 443.5v1157h233v-1224q0 -339 -78 -477t-226 -217t-371 -79q-207 0 -379.5 63t-257 198t-84.5 456v1280zM464 2068v233h233v-233h-233zM1007 2068v233h235v-233h-235z
M504 2427v155h698v-155h-698z" />
    <glyph glyph-name="udieresismacron" unicode="&#x1d6;" horiz-adv-x="1493" 
d="M1077 1397h231v-1397h-231v243q-72 -112 -142.5 -168.5t-145 -84.5t-160.5 -28q-195 0 -329.5 109.5t-134.5 438.5v887h233v-788q0 -306 81.5 -370t199.5 -64q105 0 196.5 60t146.5 169.5t55 304.5v688zM350 1523v233h231v-233h-231zM892 1523v233h233v-233h-233z
M388 1883v157h699v-157h-699z" />
    <glyph glyph-name="Udieresisacute" unicode="&#x1d7;" 
d="M155 1939h253v-1246q0 -273 53 -366.5t165.5 -141.5t251.5 -48q133 0 236.5 48t153.5 153.5t50 443.5v1157h233v-1224q0 -339 -78 -477t-226 -217t-371 -79q-207 0 -379.5 63t-257 198t-84.5 456v1280zM464 2068v233h233v-233h-233zM1007 2068v233h235v-233h-235z
M532 2427l370 408h272l-429 -408h-213z" />
    <glyph glyph-name="udieresisacute" unicode="&#x1d8;" horiz-adv-x="1493" 
d="M1077 1397h231v-1397h-231v243q-72 -112 -142.5 -168.5t-145 -84.5t-160.5 -28q-195 0 -329.5 109.5t-134.5 438.5v887h233v-788q0 -306 81.5 -370t199.5 -64q105 0 196.5 60t146.5 169.5t55 304.5v688zM350 1523v233h231v-233h-231zM892 1523v233h233v-233h-233z
M416 1883l370 408h271l-428 -408h-213z" />
    <glyph glyph-name="Udieresiscaron" unicode="&#x1d9;" 
d="M155 1939h253v-1246q0 -273 53 -366.5t165.5 -141.5t251.5 -48q133 0 236.5 48t153.5 153.5t50 443.5v1157h233v-1224q0 -339 -78 -477t-226 -217t-371 -79q-207 0 -379.5 63t-257 198t-84.5 456v1280zM464 2068v233h233v-233h-233zM1007 2068v233h235v-233h-235z
M852 2624l175 211h195l-292 -408h-154l-292 408h193z" />
    <glyph glyph-name="udieresiscaron" unicode="&#x1da;" horiz-adv-x="1493" 
d="M1077 1397h231v-1397h-231v243q-72 -112 -142.5 -168.5t-145 -84.5t-160.5 -28q-195 0 -329.5 109.5t-134.5 438.5v887h233v-788q0 -306 81.5 -370t199.5 -64q105 0 196.5 60t146.5 169.5t55 304.5v688zM350 1523v233h231v-233h-231zM892 1523v233h233v-233h-233z
M735 2082l175 209h195l-291 -408h-155l-291 408h193z" />
    <glyph glyph-name="Udieresisgrave" unicode="&#x1db;" 
d="M155 1939h253v-1246q0 -273 53 -366.5t165.5 -141.5t251.5 -48q133 0 236.5 48t153.5 153.5t50 443.5v1157h233v-1224q0 -339 -78 -477t-226 -217t-371 -79q-207 0 -379.5 63t-257 198t-84.5 456v1280zM464 2068v233h233v-233h-233zM1007 2068v233h235v-233h-235z
M1174 2427h-213l-429 408h270z" />
    <glyph glyph-name="udieresisgrave" unicode="&#x1dc;" horiz-adv-x="1493" 
d="M1077 1397h231v-1397h-231v243q-72 -112 -142.5 -168.5t-145 -84.5t-160.5 -28q-195 0 -329.5 109.5t-134.5 438.5v887h233v-788q0 -306 81.5 -370t199.5 -64q105 0 196.5 60t146.5 169.5t55 304.5v688zM350 1523v233h231v-233h-231zM892 1523v233h233v-233h-233z
M1057 1883h-213l-428 408h271z" />
    <glyph glyph-name="uni01DD" unicode="&#x1dd;" horiz-adv-x="1473" 
d="M356 1037h-231v12q0 92 73 188.5t194.5 147t278.5 50.5q320 0 492.5 -207t172.5 -523q0 -321 -182.5 -533t-472.5 -212q-159 0 -287.5 69t-203.5 214t-75 406v76h992q0 225 -121.5 370t-334.5 145q-153 0 -224 -59.5t-71 -131.5v-12zM1091 551h-753v-27q0 -98 47 -189.5
t129.5 -135.5t190.5 -44q131 0 241.5 103.5t144.5 292.5z" />
    <glyph glyph-name="Adieresismacron" unicode="&#x1de;" horiz-adv-x="1861" 
d="M273 0h-235l796 1939h255l734 -1939h-274l-201 535h-856zM569 727h705l-340 903zM543 2068v233h233v-233h-233zM1085 2068v233h233v-233h-233zM581 2427v155h699v-155h-699z" />
    <glyph glyph-name="adieresismacron" unicode="&#x1df;" horiz-adv-x="1417" 
d="M1045 0q-36 113 -36 193q-153 -151 -260.5 -191t-207.5 -40q-165 0 -284.5 101.5t-119.5 280.5q0 203 167.5 312.5t579.5 189.5l125 24v157q0 128 -86.5 180.5t-207.5 52.5q-144 0 -225.5 -63.5t-81.5 -149.5v-20h-253v20q0 92 78 190.5t208 149t282 50.5
q153 0 277.5 -48.5t183 -128.5t58.5 -302v-542q0 -90 4 -187.5t44 -228.5h-245zM1009 705l-71 -18q-353 -86 -451.5 -163.5t-98.5 -183.5q0 -57 29 -104t86.5 -73t113.5 -26q98 0 192.5 56t147 151.5t52.5 222.5v138zM326 1563v233h231v-233h-231zM868 1563v233h233v-233
h-233zM364 1923v157h699v-157h-699z" />
    <glyph glyph-name="Adotmacron" unicode="&#x1e0;" horiz-adv-x="1861" 
d="M273 0h-235l796 1939h255l734 -1939h-274l-201 535h-856zM569 727h705l-340 903zM814 2068v233h233v-233h-233zM581 2427v155h699v-155h-699z" />
    <glyph glyph-name="adotmacron" unicode="&#x1e1;" horiz-adv-x="1417" 
d="M1045 0q-36 113 -36 193q-153 -151 -260.5 -191t-207.5 -40q-165 0 -284.5 101.5t-119.5 280.5q0 203 167.5 312.5t579.5 189.5l125 24v157q0 128 -86.5 180.5t-207.5 52.5q-144 0 -225.5 -63.5t-81.5 -149.5v-20h-253v20q0 92 78 190.5t208 149t282 50.5
q153 0 277.5 -48.5t183 -128.5t58.5 -302v-542q0 -90 4 -187.5t44 -228.5h-245zM1009 705l-71 -18q-353 -86 -451.5 -163.5t-98.5 -183.5q0 -57 29 -104t86.5 -73t113.5 -26q98 0 192.5 56t147 151.5t52.5 222.5v138zM597 1563v233h231v-233h-231zM364 1923v157h699v-157
h-699z" />
    <glyph glyph-name="AEmacron" unicode="&#x1e2;" horiz-adv-x="2540" 
d="M1252 0v535h-645l-350 -535h-257l1252 1939h1095v-213h-844v-611h738v-195h-738v-707h912v-213h-1163zM1252 727v806l-523 -806h523zM1458 2068v154h699v-154h-699z" />
    <glyph glyph-name="aemacron" unicode="&#x1e3;" horiz-adv-x="2377" 
d="M1202 1180q58 102 123.5 151t156.5 76.5t192 27.5q247 0 407 -163t160 -527v-76h-991l-2 -44q0 -175 122.5 -322.5t333.5 -147.5q161 0 227 69t66 122v14h244v-14q0 -91 -77.5 -188.5t-204 -146.5t-267.5 -49q-155 0 -305.5 64t-245.5 267q-126 -182 -269 -256.5
t-309 -74.5q-197 0 -311.5 106.5t-114.5 275.5q0 114 56 200.5t196.5 155t498.5 144.5l149 30v58q0 197 -89.5 263.5t-224.5 66.5q-152 0 -233.5 -64.5t-81.5 -150.5v-20h-251v18q0 94 76 188.5t207 148t275 53.5q137 0 268.5 -49.5t218.5 -205.5zM1037 707l-87 -22
q-289 -74 -379.5 -119.5t-131.5 -104.5t-41 -123q0 -101 76.5 -151t162.5 -50q96 0 196.5 64t152 183.5t51.5 260.5v62zM1266 844h751v30q0 84 -48 181.5t-134.5 142t-184.5 44.5q-137 0 -247.5 -110.5t-136.5 -287.5zM838 1563v155h699v-155h-699z" />
    <glyph glyph-name="Gcaron" unicode="&#x1e6;" horiz-adv-x="1726" 
d="M1571 88q-309 -146 -588 -146q-292 0 -471.5 115.5t-287 332.5t-107.5 558q0 384 101 596t286 332.5t440 120.5q173 0 316 -55t227 -166.5t84 -222.5v-12h-233v12q0 69 -52 127t-136.5 91t-191.5 33q-283 0 -431.5 -222t-148.5 -609q0 -388 152.5 -613t430.5 -225
q162 0 377 78v553h-436v195h669v-873zM844 2323l173 209h195l-292 -406h-154l-292 406h195z" />
    <glyph glyph-name="gcaron" unicode="&#x1e7;" horiz-adv-x="1561" 
d="M1143 295q-70 -148 -183.5 -221.5t-270.5 -73.5q-249 0 -410.5 196t-161.5 513q0 211 72 384t203.5 257.5t306.5 84.5q133 0 236.5 -51.5t207.5 -209.5v223h233v-1142q0 -430 -90 -567.5t-228 -204t-325 -66.5q-172 0 -309 51.5t-208 141t-71 185.5v22h233v-20
q0 -92 99.5 -148.5t253.5 -56.5q125 0 214.5 43t143.5 140.5t54 351.5v168zM1143 739q0 226 -114.5 364.5t-274.5 138.5q-169 0 -281.5 -140.5t-112.5 -394.5q0 -160 44 -280t140.5 -182t205.5 -62q174 0 283.5 155.5t109.5 400.5zM745 1760l175 209h195l-291 -406h-155
l-291 406h193z" />
    <glyph glyph-name="Kcaron" unicode="&#x1e8;" horiz-adv-x="1698" 
d="M436 0h-253v1939h253v-926l810 926h287l-800 -908l925 -1031h-318l-904 1013v-1013zM920 2265l173 211h195l-291 -408h-155l-291 408h194z" />
    <glyph glyph-name="kcaron" unicode="&#x1e9;" horiz-adv-x="1378" 
d="M426 0h-243v2017h243v-1286l621 666h267l-605 -649l629 -748h-291l-621 731v-731zM760 2343l174 209h195l-291 -408h-155l-291 408h193z" />
    <glyph glyph-name="Oogonek" unicode="&#x1ea;" horiz-adv-x="1881" 
d="M347 209q-230 267 -230 762q0 492 230 759t593 267q364 0 594 -267t230 -759q0 -495 -230 -762q-181 -210 -446 -255q-68 -93 -117 -159q-69 -94 -69 -155q0 -38 35.5 -73t115.5 -35q44 0 100 24v-121q-82 -36 -158 -36q-117 0 -192.5 62.5t-75.5 158.5q0 151 185 322v1
q-344 9 -565 266zM940 137q266 0 414.5 228t148.5 606q0 375 -148.5 604t-414.5 229q-263 0 -412.5 -229t-149.5 -604q0 -378 149.5 -606t412.5 -228z" />
    <glyph glyph-name="oogonek" unicode="&#x1eb;" horiz-adv-x="1551" 
d="M309 147q-192 185 -192 552q0 364 192.5 550t466.5 186q273 0 466 -186t193 -550q0 -367 -193 -552q-138 -132 -317 -170l-119 -161q-69 -95 -69 -156q0 -38 35.5 -73t115.5 -35q44 0 101 24v-121q-83 -36 -159 -36q-117 0 -192 62.5t-75 158.5q0 151 185 322l1 1
q-257 8 -440 184zM776 155q189 0 302.5 149.5t113.5 394.5q0 243 -113.5 393t-302.5 150t-302.5 -150t-113.5 -393q0 -245 113.5 -394.5t302.5 -149.5z" />
    <glyph glyph-name="Oogonekmacron" unicode="&#x1ec;" horiz-adv-x="1881" 
d="M347 209q-230 267 -230 762q0 492 230 759t593 267q364 0 594 -267t230 -759q0 -495 -230 -762q-181 -210 -446 -255q-68 -93 -117 -159q-69 -94 -69 -155q0 -38 35.5 -73t115.5 -35q44 0 100 24v-121q-82 -36 -158 -36q-117 0 -192.5 62.5t-75.5 158.5q0 151 185 322v1
q-344 9 -565 266zM940 137q266 0 414.5 228t148.5 606q0 375 -148.5 604t-414.5 229q-263 0 -412.5 -229t-149.5 -604q0 -378 149.5 -606t412.5 -228zM591 2126v155h699v-155h-699z" />
    <glyph glyph-name="oogonekmacron" unicode="&#x1ed;" horiz-adv-x="1551" 
d="M309 147q-192 185 -192 552q0 364 192.5 550t466.5 186q273 0 466 -186t193 -550q0 -367 -193 -552q-138 -132 -317 -170l-119 -161q-69 -95 -69 -156q0 -38 35.5 -73t115.5 -35q44 0 101 24v-121q-83 -36 -159 -36q-117 0 -192 62.5t-75 158.5q0 151 185 322l1 1
q-257 8 -440 184zM776 155q189 0 302.5 149.5t113.5 394.5q0 243 -113.5 393t-302.5 150t-302.5 -150t-113.5 -393q0 -245 113.5 -394.5t302.5 -149.5zM426 1563v155h699v-155h-699z" />
    <glyph glyph-name="jcaron" unicode="&#x1f0;" horiz-adv-x="707" 
d="M281 1397h233v-1397q0 -211 -50 -314.5t-162.5 -166t-243.5 -62.5q-94 0 -203 23v184l51 -6q68 -8 108 -8q119 0 193 60.5t74 289.5v1397zM386 1722l173 209h195l-292 -408h-155l-291 408h195z" />
    <glyph glyph-name="DZ" unicode="&#x1f1;" horiz-adv-x="3295" 
d="M183 0v1939h536q392 0 573 -105.5t283.5 -323.5t102.5 -533q0 -294 -92.5 -509t-278.5 -341.5t-551 -126.5h-573zM436 213h297q268 0 403.5 78.5t207 245t71.5 419.5q0 254 -65.5 435.5t-200 267t-422.5 85.5h-291v-1531zM3151 233v-233h-1260v233l964 1493h-896v213
h1174v-213l-959 -1493h977z" />
    <glyph glyph-name="Dz" unicode="&#x1f2;" horiz-adv-x="3232" 
d="M183 0v1939h536q392 0 573 -105.5t283.5 -323.5t102.5 -533q0 -294 -92.5 -509t-278.5 -341.5t-551 -126.5h-573zM436 213h297q268 0 403.5 78.5t207 245t71.5 419.5q0 254 -65.5 435.5t-200 267t-422.5 85.5h-291v-1531zM3074 193v-193h-1135v193l828 1009h-808v195
h1085v-195l-814 -1009h844z" />
    <glyph glyph-name="dz" unicode="&#x1f3;" horiz-adv-x="2971" 
d="M1143 2017h233v-2017h-233v243q-70 -137 -137.5 -189t-151.5 -72t-167 -20q-159 0 -291.5 86.5t-205.5 259t-73 387.5q0 318 153.5 529t428.5 211q91 0 169 -25.5t139.5 -76.5t135.5 -180v864zM1143 699q0 237 -102.5 390t-286.5 153q-169 0 -281.5 -135.5t-112.5 -403.5
q0 -315 108.5 -436.5t279.5 -121.5q110 0 206.5 67t142.5 199t46 288zM2821 193v-193h-1135v193l830 1009h-810v195h1085v-195l-814 -1009h844z" />
    <glyph glyph-name="Gacute" unicode="&#x1f4;" horiz-adv-x="1726" 
d="M1571 88q-309 -146 -588 -146q-292 0 -471.5 115.5t-287 332.5t-107.5 558q0 384 101 596t286 332.5t440 120.5q173 0 316 -55t227 -166.5t84 -222.5v-12h-233v12q0 69 -52 127t-136.5 91t-191.5 33q-283 0 -431.5 -222t-148.5 -609q0 -388 152.5 -613t430.5 -225
q162 0 377 78v553h-436v195h669v-873zM524 2126l370 406h269l-428 -406h-211z" />
    <glyph glyph-name="gacute" unicode="&#x1f5;" horiz-adv-x="1561" 
d="M1143 295q-70 -148 -183.5 -221.5t-270.5 -73.5q-249 0 -410.5 196t-161.5 513q0 211 72 384t203.5 257.5t306.5 84.5q133 0 236.5 -51.5t207.5 -209.5v223h233v-1142q0 -430 -90 -567.5t-228 -204t-325 -66.5q-172 0 -309 51.5t-208 141t-71 185.5v22h233v-20
q0 -92 99.5 -148.5t253.5 -56.5q125 0 214.5 43t143.5 140.5t54 351.5v168zM1143 739q0 226 -114.5 364.5t-274.5 138.5q-169 0 -281.5 -140.5t-112.5 -394.5q0 -160 44 -280t140.5 -182t205.5 -62q174 0 283.5 155.5t109.5 400.5zM631 1563l370 406h269l-428 -406h-211z
" />
    <glyph glyph-name="Ngrave" unicode="&#x1f8;" horiz-adv-x="1815" 
d="M416 0h-233v1939h251l886 -1378l81 -153l-4 153v1378h233v-1939h-250l-888 1384l-80 157l4 -157v-1384zM1226 2068h-213l-426 408h269z" />
    <glyph glyph-name="ngrave" unicode="&#x1f9;" horiz-adv-x="1493" 
d="M416 0h-233v1397h233v-242q74 113 143.5 168t145 83.5t167.5 28.5q133 0 236.5 -53.5t161.5 -158t58 -335.5v-888h-233v790q0 187 -25 265t-97.5 122.5t-156.5 44.5q-103 0 -195.5 -60.5t-148.5 -168t-56 -306.5v-687zM1075 1563h-213l-428 406h271z" />
    <glyph glyph-name="Aringacute" unicode="&#x1fa;" horiz-adv-x="1861" 
d="M273 0h-235l796 1939h255l734 -1939h-274l-201 535h-856zM569 727h705l-340 903zM930 2184q49 0 83 34.5t34 82.5q0 46 -34 80t-83 34q-48 0 -82 -34t-34 -80q0 -48 34 -82.5t82 -34.5zM930 2068q-98 0 -165.5 70t-67.5 163q0 92 68.5 161.5t164.5 69.5q97 0 165 -69.5
t68 -161.5q0 -93 -68 -163t-165 -70zM611 2660l370 408h269l-428 -408h-211z" />
    <glyph glyph-name="aringacute" unicode="&#x1fb;" horiz-adv-x="1417" 
d="M1045 0q-36 113 -36 193q-153 -151 -260.5 -191t-207.5 -40q-165 0 -284.5 101.5t-119.5 280.5q0 203 167.5 312.5t579.5 189.5l125 24v157q0 128 -86.5 180.5t-207.5 52.5q-144 0 -225.5 -63.5t-81.5 -149.5v-20h-253v20q0 92 78 190.5t208 149t282 50.5
q153 0 277.5 -48.5t183 -128.5t58.5 -302v-542q0 -90 4 -187.5t44 -228.5h-245zM1009 705l-71 -18q-353 -86 -451.5 -163.5t-98.5 -183.5q0 -57 29 -104t86.5 -73t113.5 -26q98 0 192.5 56t147 151.5t52.5 222.5v138zM713 1680q49 0 82 34t33 82q0 49 -33 83t-82 34
q-48 0 -82 -34t-34 -83q0 -48 34 -82t82 -34zM713 1563q-98 0 -165.5 70.5t-67.5 162.5q0 95 68.5 164.5t164.5 69.5q97 0 164 -69.5t67 -164.5q0 -92 -67 -162.5t-164 -70.5zM392 2156l370 408h271l-428 -408h-213z" />
    <glyph glyph-name="AEacute" unicode="&#x1fc;" horiz-adv-x="2540" 
d="M1252 0v535h-645l-350 -535h-257l1252 1939h1095v-213h-844v-611h738v-195h-738v-707h912v-213h-1163zM1252 727v806l-523 -806h523zM1488 2068l370 408h269l-428 -408h-211z" />
    <glyph glyph-name="aeacute" unicode="&#x1fd;" horiz-adv-x="2377" 
d="M1202 1180q58 102 123.5 151t156.5 76.5t192 27.5q247 0 407 -163t160 -527v-76h-991l-2 -44q0 -175 122.5 -322.5t333.5 -147.5q161 0 227 69t66 122v14h244v-14q0 -91 -77.5 -188.5t-204 -146.5t-267.5 -49q-155 0 -305.5 64t-245.5 267q-126 -182 -269 -256.5
t-309 -74.5q-197 0 -311.5 106.5t-114.5 275.5q0 114 56 200.5t196.5 155t498.5 144.5l149 30v58q0 197 -89.5 263.5t-224.5 66.5q-152 0 -233.5 -64.5t-81.5 -150.5v-20h-251v18q0 94 76 188.5t207 148t275 53.5q137 0 268.5 -49.5t218.5 -205.5zM1037 707l-87 -22
q-289 -74 -379.5 -119.5t-131.5 -104.5t-41 -123q0 -101 76.5 -151t162.5 -50q96 0 196.5 64t152 183.5t51.5 260.5v62zM1266 844h751v30q0 84 -48 181.5t-134.5 142t-184.5 44.5q-137 0 -247.5 -110.5t-136.5 -287.5zM868 1563l370 406h269l-428 -406h-211z" />
    <glyph glyph-name="Oslashacute" unicode="&#x1fe;" horiz-adv-x="1881" 
d="M346 -58h-229l198 305q-128 179 -163 366t-35 382q0 460 229 731t602 271q260 0 467 -158l112 158h237l-205 -301q123 -167 164 -343.5t41 -387.5q0 -348 -104.5 -565t-287 -337.5t-430.5 -120.5q-283 0 -488 158zM468 466l822 1190q-112 102 -205.5 125t-156.5 23
q-259 0 -409.5 -226t-150.5 -593q0 -111 16 -232.5t84 -286.5zM1407 1477l-822 -1188q146 -152 353 -152q270 0 417.5 229t147.5 611q0 289 -96 500zM621 2126l370 406h269l-428 -406h-211z" />
    <glyph glyph-name="oslashacute" unicode="&#x1ff;" horiz-adv-x="1551" 
d="M340 -38h-223l164 215q-106 134 -135 261t-29 267q0 360 193.5 545t467.5 185q197 0 365 -105l77 105h215l-161 -221q96 -121 128.5 -248.5t32.5 -270.5q0 -371 -198 -552t-455 -181q-205 0 -366 98zM428 376l585 783q-105 83 -237 83q-189 0 -302.5 -152t-113.5 -389
q0 -185 68 -325zM1125 1017l-584 -784q104 -78 235 -78q189 0 302.5 150.5t113.5 389.5q0 181 -67 322zM454 1563l372 406h269l-428 -406h-213z" />
    <glyph glyph-name="Adblgrave" unicode="&#x200;" horiz-adv-x="1861" 
d="M273 0h-235l796 1939h255l734 -1939h-274l-201 535h-856zM569 727h705l-340 903zM938 2476h155l177 -408h-145zM591 2476h159l180 -408h-148z" />
    <glyph glyph-name="adblgrave" unicode="&#x201;" horiz-adv-x="1417" 
d="M1045 0q-36 113 -36 193q-153 -151 -260.5 -191t-207.5 -40q-165 0 -284.5 101.5t-119.5 280.5q0 203 167.5 312.5t579.5 189.5l125 24v157q0 128 -86.5 180.5t-207.5 52.5q-144 0 -225.5 -63.5t-81.5 -149.5v-20h-253v20q0 92 78 190.5t208 149t282 50.5
q153 0 277.5 -48.5t183 -128.5t58.5 -302v-542q0 -90 4 -187.5t44 -228.5h-245zM1009 705l-71 -18q-353 -86 -451.5 -163.5t-98.5 -183.5q0 -57 29 -104t86.5 -73t113.5 -26q98 0 192.5 56t147 151.5t52.5 222.5v138zM721 1971h153l179 -408h-145zM374 1971h156l183 -408
h-148z" />
    <glyph glyph-name="Ainvertedbreve" unicode="&#x202;" horiz-adv-x="1861" 
d="M273 0h-235l796 1939h255l734 -1939h-274l-201 535h-856zM569 727h705l-340 903zM1139 2068q-12 96 -73 169.5t-138 73.5q-76 0 -135.5 -74.5t-71.5 -168.5h-160q16 138 71 223.5t134.5 135t161.5 49.5q85 0 164 -49.5t134.5 -135t71.5 -223.5h-159z" />
    <glyph glyph-name="ainvertedbreve" unicode="&#x203;" horiz-adv-x="1417" 
d="M1045 0q-36 113 -36 193q-153 -151 -260.5 -191t-207.5 -40q-165 0 -284.5 101.5t-119.5 280.5q0 203 167.5 312.5t579.5 189.5l125 24v157q0 128 -86.5 180.5t-207.5 52.5q-144 0 -225.5 -63.5t-81.5 -149.5v-20h-253v20q0 92 78 190.5t208 149t282 50.5
q153 0 277.5 -48.5t183 -128.5t58.5 -302v-542q0 -90 4 -187.5t44 -228.5h-245zM1009 705l-71 -18q-353 -86 -451.5 -163.5t-98.5 -183.5q0 -57 29 -104t86.5 -73t113.5 -26q98 0 192.5 56t147 151.5t52.5 222.5v138zM920 1563q-10 97 -71 170t-138 73q-76 0 -136.5 -74
t-70.5 -169h-160q16 139 71 224.5t133.5 134.5t162.5 49q85 0 164 -49t134.5 -134.5t71.5 -224.5h-161z" />
    <glyph glyph-name="Edblgrave" unicode="&#x204;" horiz-adv-x="1473" 
d="M183 0v1939h1097v-213h-844v-611h738v-195h-738v-707h912v-213h-1165zM774 2476h154l177 -408h-144zM426 2476h159l181 -408h-149z" />
    <glyph glyph-name="edblgrave" unicode="&#x205;" horiz-adv-x="1473" 
d="M1097 360h231v-14q0 -93 -73 -189.5t-195 -145.5t-278 -49q-320 0 -492.5 206t-172.5 521q0 322 182.5 534t472.5 212q158 0 287 -68.5t204 -214t75 -407.5v-76h-992q0 -225 120.5 -369.5t335.5 -144.5q152 0 223.5 59t71.5 132v14zM362 844h753v28q0 97 -47 189
t-129.5 136.5t-193.5 44.5q-128 0 -238.5 -104.5t-144.5 -293.5zM735 1969h153l179 -406h-147zM388 1969h157l180 -406h-146z" />
    <glyph glyph-name="Einvertedbreve" unicode="&#x206;" horiz-adv-x="1473" 
d="M183 0v1939h1097v-213h-844v-611h738v-195h-738v-707h912v-213h-1165zM975 2068q-12 96 -73.5 169.5t-137.5 73.5q-77 0 -137 -74.5t-70 -168.5h-161q16 138 71 223.5t133.5 135t163.5 49.5q84 0 163.5 -49.5t134.5 -135t71 -223.5h-158z" />
    <glyph glyph-name="einvertedbreve" unicode="&#x207;" horiz-adv-x="1473" 
d="M1097 360h231v-14q0 -93 -73 -189.5t-195 -145.5t-278 -49q-320 0 -492.5 206t-172.5 521q0 322 182.5 534t472.5 212q158 0 287 -68.5t204 -214t75 -407.5v-76h-992q0 -225 120.5 -369.5t335.5 -144.5q152 0 223.5 59t71.5 132v14zM362 844h753v28q0 97 -47 189
t-129.5 136.5t-193.5 44.5q-128 0 -238.5 -104.5t-144.5 -293.5zM934 1563q-10 95 -71 168t-138 73q-76 0 -136.5 -74t-70.5 -167h-160q14 139 70 224.5t134.5 133.5t162.5 48q83 0 162.5 -48t135.5 -133.5t72 -224.5h-161z" />
    <glyph glyph-name="Idblgrave" unicode="&#x208;" horiz-adv-x="621" 
d="M436 0h-253v1939h253v-1939zM319 2476h153l177 -408h-145zM-28 2476h157l180 -408h-146z" />
    <glyph glyph-name="idblgrave" unicode="&#x209;" horiz-adv-x="601" 
d="M183 1397h233v-1397h-233v1397zM239 2076h153l179 -408h-147zM-108 2076h157l180 -408h-146z" />
    <glyph glyph-name="Iinvertedbreve" unicode="&#x20a;" horiz-adv-x="621" 
d="M436 0h-253v1939h253v-1939zM518 2068q-10 96 -71 169.5t-138 73.5q-76 0 -136 -74.5t-73 -168.5h-158q14 138 70 223.5t134.5 135t162.5 49.5q83 0 162.5 -49.5t135.5 -135t72 -223.5h-161z" />
    <glyph glyph-name="iinvertedbreve" unicode="&#x20b;" horiz-adv-x="601" 
d="M183 1397h233v-1397h-233v1397zM508 1568q-10 96 -71 169.5t-138 73.5q-76 0 -136.5 -74.5t-72.5 -168.5h-158q14 138 70 223.5t134.5 135t162.5 49.5q83 0 162.5 -49.5t135.5 -135t72 -223.5h-161z" />
    <glyph glyph-name="Odblgrave" unicode="&#x20c;" horiz-adv-x="1881" 
d="M940 -58q-363 0 -593 267t-230 762q0 492 230 759t593 267q364 0 594 -267t230 -759q0 -495 -230 -762t-594 -267zM940 137q266 0 414.5 228t148.5 606q0 375 -148.5 604t-414.5 229q-263 0 -412.5 -229t-149.5 -604q0 -378 149.5 -606t412.5 -228zM948 2532h155
l177 -406h-145zM601 2532h159l180 -406h-148z" />
    <glyph glyph-name="odblgrave" unicode="&#x20d;" horiz-adv-x="1551" 
d="M776 -38q-274 0 -466.5 185t-192.5 552q0 364 192.5 550t466.5 186q273 0 466 -186t193 -550q0 -367 -193 -552t-466 -185zM776 155q189 0 302.5 149.5t113.5 394.5q0 243 -113.5 393t-302.5 150t-302.5 -150t-113.5 -393q0 -245 113.5 -394.5t302.5 -149.5zM784 1969
h154l177 -406h-144zM436 1969h157l183 -406h-149z" />
    <glyph glyph-name="Oinvertedbreve" unicode="&#x20e;" horiz-adv-x="1881" 
d="M940 -58q-363 0 -593 267t-230 762q0 492 230 759t593 267q364 0 594 -267t230 -759q0 -495 -230 -762t-594 -267zM940 137q266 0 414.5 228t148.5 606q0 375 -148.5 604t-414.5 229q-263 0 -412.5 -229t-149.5 -604q0 -378 149.5 -606t412.5 -228zM1149 2126
q-12 94 -73 167.5t-138 73.5q-76 0 -135.5 -74.5t-71.5 -166.5h-160q16 139 71 224t133.5 133.5t162.5 48.5q85 0 164.5 -48.5t134.5 -133.5t71 -224h-159z" />
    <glyph glyph-name="oinvertedbreve" unicode="&#x20f;" horiz-adv-x="1551" 
d="M776 -38q-274 0 -466.5 185t-192.5 552q0 364 192.5 550t466.5 186q273 0 466 -186t193 -550q0 -367 -193 -552t-466 -185zM776 155q189 0 302.5 149.5t113.5 394.5q0 243 -113.5 393t-302.5 150t-302.5 -150t-113.5 -393q0 -245 113.5 -394.5t302.5 -149.5zM985 1563
q-12 95 -73.5 168t-137.5 73q-77 0 -137 -74t-70 -167h-161q16 139 71 224.5t133.5 133.5t163.5 48q84 0 163.5 -48t134.5 -133.5t71 -224.5h-158z" />
    <glyph glyph-name="Rdblgrave" unicode="&#x210;" horiz-adv-x="1551" 
d="M436 0h-253v1939h601q221 0 332.5 -63.5t176.5 -184t65 -260.5q0 -115 -44 -219.5t-123.5 -189t-246.5 -150.5q63 -34 94 -65t76 -101.5t80 -130.5l309 -575h-289l-270 510q-96 185 -253 324h-255v-834zM436 1027h247q155 0 236.5 48t128.5 140.5t47 197.5
q0 90 -37 162.5t-110.5 120.5t-246.5 48h-265v-717zM652 2476h153l177 -408h-145zM304 2476h157l181 -408h-147z" />
    <glyph glyph-name="rdblgrave" unicode="&#x211;" horiz-adv-x="989" 
d="M416 0h-233v1397h233v-248q58 107 126.5 166t145 89.5t156.5 30.5q72 0 125 -20v-241q-83 38 -175 38q-131 0 -254.5 -114.5t-123.5 -408.5v-689zM585 1969h154l177 -406h-144zM237 1969h159l181 -406h-149z" />
    <glyph glyph-name="Rinvertedbreve" unicode="&#x212;" horiz-adv-x="1551" 
d="M436 0h-253v1939h601q221 0 332.5 -63.5t176.5 -184t65 -260.5q0 -115 -44 -219.5t-123.5 -189t-246.5 -150.5q63 -34 94 -65t76 -101.5t80 -130.5l309 -575h-289l-270 510q-96 185 -253 324h-255v-834zM436 1027h247q155 0 236.5 48t128.5 140.5t47 197.5
q0 90 -37 162.5t-110.5 120.5t-246.5 48h-265v-717zM851 2068q-10 96 -71.5 169.5t-137.5 73.5t-136.5 -74.5t-72.5 -168.5h-159q14 138 70.5 223.5t135 135t162.5 49.5q82 0 161.5 -49.5t136 -135t72.5 -223.5h-161z" />
    <glyph glyph-name="rinvertedbreve" unicode="&#x213;" horiz-adv-x="989" 
d="M416 0h-233v1397h233v-248q58 107 126.5 166t145 89.5t156.5 30.5q72 0 125 -20v-241q-83 38 -175 38q-131 0 -254.5 -114.5t-123.5 -408.5v-689zM786 1563q-12 95 -73.5 168t-137.5 73q-77 0 -137 -74t-70 -167h-161q16 139 71.5 224.5t133.5 133.5t163 48
q84 0 163.5 -48t134.5 -133.5t71 -224.5h-158z" />
    <glyph glyph-name="Udblgrave" unicode="&#x214;" 
d="M155 1939h253v-1246q0 -273 53 -366.5t165.5 -141.5t251.5 -48q133 0 236.5 48t153.5 153.5t50 443.5v1157h233v-1224q0 -339 -78 -477t-226 -217t-371 -79q-207 0 -379.5 63t-257 198t-84.5 456v1280zM862 2476h153l177 -408h-145zM514 2476h157l181 -408h-147z" />
    <glyph glyph-name="udblgrave" unicode="&#x215;" horiz-adv-x="1493" 
d="M1077 1397h231v-1397h-231v243q-72 -112 -142.5 -168.5t-145 -84.5t-160.5 -28q-195 0 -329.5 109.5t-134.5 438.5v887h233v-788q0 -306 81.5 -370t199.5 -64q105 0 196.5 60t146.5 169.5t55 304.5v688zM745 1931h153l179 -408h-147zM398 1931h157l180 -408h-146z" />
    <glyph glyph-name="Uinvertedbreve" unicode="&#x216;" 
d="M155 1939h253v-1246q0 -273 53 -366.5t165.5 -141.5t251.5 -48q133 0 236.5 48t153.5 153.5t50 443.5v1157h233v-1224q0 -339 -78 -477t-226 -217t-371 -79q-207 0 -379.5 63t-257 198t-84.5 456v1280zM1061 2068q-10 96 -71.5 169.5t-137.5 73.5t-136.5 -74.5
t-72.5 -168.5h-159q14 138 70.5 223.5t135 135t162.5 49.5q82 0 161.5 -49.5t136 -135t72.5 -223.5h-161z" />
    <glyph glyph-name="uinvertedbreve" unicode="&#x217;" horiz-adv-x="1493" 
d="M1077 1397h231v-1397h-231v243q-72 -112 -142.5 -168.5t-145 -84.5t-160.5 -28q-195 0 -329.5 109.5t-134.5 438.5v887h233v-788q0 -306 81.5 -370t199.5 -64q105 0 196.5 60t146.5 169.5t55 304.5v688zM944 1523q-10 97 -71 170t-138 73q-76 0 -136 -74t-71 -169h-160
q14 139 70 225.5t134.5 134.5t162.5 48q83 0 162.5 -48t135.5 -134.5t72 -225.5h-161z" />
    <glyph glyph-name="Scommaaccent" unicode="&#x218;" horiz-adv-x="1551" 
d="M137 436h251v-12q0 -161 114.5 -224t303.5 -63q165 0 276.5 96.5t111.5 252.5q0 127 -97 209q-96 81 -291 159l-103 42q-205 85 -307.5 168t-152.5 184.5t-50 226.5q0 221 155.5 371.5t487.5 150.5q303 0 426.5 -112.5t123.5 -262.5v-12h-251v12q0 48 -38 94t-114.5 67
t-166.5 21q-187 0 -276.5 -93t-89.5 -212q0 -80 42.5 -150.5t116.5 -116.5t251 -125l119 -50q285 -125 381 -261q95 -137 95 -294q0 -146 -77.5 -283t-215 -207t-366.5 -70q-217 0 -363 51t-221 170.5t-75 260.5v12zM698 -718v97q39 22 59 55t31 69t11 81h-101v215h213v-133
q0 -121 -23 -184t-70 -115.5t-120 -84.5z" />
    <glyph glyph-name="scommaaccent" unicode="&#x219;" horiz-adv-x="1304" 
d="M98 370h232v-6q0 -91 69 -150t232 -59q145 0 234 70t89 165q0 128 -174 183l-121 36l-78 24l-161 50q-275 103 -275 338q0 165 133.5 289.5t396.5 124.5q259 0 369.5 -106.5t110.5 -237.5v-4h-235v4q0 70 -70 110.5t-187 40.5q-141 0 -215 -58.5t-74 -142.5
q0 -66 48 -106.5t163 -72.5l110 -32l83 -24q170 -48 211.5 -68.5t83.5 -50.5q60 -46 88.5 -109.5t28.5 -149.5q0 -197 -143 -331.5t-414 -134.5q-173 0 -286.5 51t-181 141.5t-67.5 209.5v6zM536 -740v99q38 22 58 55t31 69t11 81h-100v215h213v-135q0 -119 -23.5 -182
t-70.5 -115.5t-119 -86.5z" />
    <glyph glyph-name="Tcommaaccent" unicode="&#x21a;" horiz-adv-x="1640" 
d="M699 0v1744h-661v195h1561v-195h-649v-1744h-251zM720 -720v97q41 22 61 55t31 69.5t11 80.5h-103v215h215v-133q0 -120 -23 -183.5t-70 -115.5t-122 -85z" />
    <glyph glyph-name="tcommaaccent" unicode="&#x21b;" horiz-adv-x="1135" 
d="M1037 197v-195q-169 -40 -259 -40q-131 0 -235.5 52t-158.5 152.5t-54 317.5v718h-242v195h242v329h233v-329h408v-195h-408v-651q0 -185 29 -256.5t90 -105.5t148 -34q68 0 207 42zM595 -800v99q38 22 59.5 55t31.5 69t10 81h-101v215h213v-135q0 -119 -23 -182
t-69 -115.5t-121 -86.5z" />
    <glyph glyph-name="Hcaron" unicode="&#x21e;" horiz-adv-x="1764" 
d="M436 0h-253v1939h253v-862h892v862h251v-1939h-251v882h-892v-882zM882 2265l173 211h195l-292 -408h-154l-292 408h193z" />
    <glyph glyph-name="hcaron" unicode="&#x21f;" horiz-adv-x="1493" 
d="M416 0h-233v2017h233v-862q74 113 143.5 168t145 83.5t167.5 28.5q133 0 236.5 -53.5t161.5 -158t58 -335.5v-888h-233v790q0 187 -25 265t-95.5 122.5t-158.5 44.5q-103 0 -195.5 -60.5t-148.5 -168t-56 -306.5v-687zM756 2343l172 209h195l-291 -408h-155l-291 408h195
z" />
    <glyph glyph-name="Adotaccent" unicode="&#x226;" horiz-adv-x="1861" 
d="M273 0h-235l796 1939h255l734 -1939h-274l-201 535h-856zM569 727h705l-340 903zM844 2068v233h233v-233h-233z" />
    <glyph glyph-name="adotaccent" unicode="&#x227;" horiz-adv-x="1417" 
d="M1045 0q-36 113 -36 193q-153 -151 -260.5 -191t-207.5 -40q-165 0 -284.5 101.5t-119.5 280.5q0 203 167.5 312.5t579.5 189.5l125 24v157q0 128 -86.5 180.5t-207.5 52.5q-144 0 -225.5 -63.5t-81.5 -149.5v-20h-253v20q0 92 78 190.5t208 149t282 50.5
q153 0 277.5 -48.5t183 -128.5t58.5 -302v-542q0 -90 4 -187.5t44 -228.5h-245zM1009 705l-71 -18q-353 -86 -451.5 -163.5t-98.5 -183.5q0 -57 29 -104t86.5 -73t113.5 -26q98 0 192.5 56t147 151.5t52.5 222.5v138zM597 1563v233h231v-233h-231z" />
    <glyph glyph-name="Ecedilla" unicode="&#x228;" horiz-adv-x="1473" 
d="M183 0v1939h1097v-213h-844v-611h738v-195h-738v-707h912v-213h-500l-86 -163q134 -28 175.5 -83t41.5 -116q0 -68 -55.5 -125.5t-171.5 -57.5q-105 0 -199 37v110q72 -38 148 -38q44 0 79.5 26t35.5 54q0 87 -233 109l130 247h-530z" />
    <glyph glyph-name="ecedilla" unicode="&#x229;" horiz-adv-x="1473" 
d="M816 -38l-93 -165q135 -26 176 -81.5t41 -115.5q0 -68 -55 -125.5t-172 -57.5q-104 0 -199 36v111q73 -38 149 -38q42 0 77.5 26t35.5 54q0 85 -231 109l123 254q-239 31 -379 199q-172 206 -172 521q0 322 182.5 534t472.5 212q158 0 287 -68.5t204 -214t75 -407.5v-76
h-992q0 -225 120.5 -369.5t335.5 -144.5q152 0 223.5 59t71.5 132v14h231v-14q0 -93 -73 -189.5t-195 -145.5q-113 -45 -256 -49h12zM362 844h753v28q0 97 -47 189t-129.5 136.5t-193.5 44.5q-128 0 -238.5 -104.5t-144.5 -293.5z" />
    <glyph glyph-name="Odieresismacron" unicode="&#x22a;" horiz-adv-x="1881" 
d="M940 -58q-363 0 -593 267t-230 762q0 492 230 759t593 267q364 0 594 -267t230 -759q0 -495 -230 -762t-594 -267zM940 137q266 0 414.5 228t148.5 606q0 375 -148.5 604t-414.5 229q-263 0 -412.5 -229t-149.5 -604q0 -378 149.5 -606t412.5 -228zM553 2126v231h233
v-231h-233zM1095 2126v231h233v-231h-233zM591 2486v154h699v-154h-699z" />
    <glyph glyph-name="odieresismacron" unicode="&#x22b;" horiz-adv-x="1551" 
d="M776 -38q-274 0 -466.5 185t-192.5 552q0 364 192.5 550t466.5 186q273 0 466 -186t193 -550q0 -367 -193 -552t-466 -185zM776 155q189 0 302.5 149.5t113.5 394.5q0 243 -113.5 393t-302.5 150t-302.5 -150t-113.5 -393q0 -245 113.5 -394.5t302.5 -149.5zM388 1563
v231h233v-231h-233zM930 1563v231h233v-231h-233zM426 1923v155h699v-155h-699z" />
    <glyph glyph-name="Otildemacron" unicode="&#x22c;" horiz-adv-x="1881" 
d="M940 -58q-363 0 -593 267t-230 762q0 492 230 759t593 267q364 0 594 -267t230 -759q0 -495 -230 -762t-594 -267zM940 137q266 0 414.5 228t148.5 606q0 375 -148.5 604t-414.5 229q-263 0 -412.5 -229t-149.5 -604q0 -378 149.5 -606t412.5 -228zM689 2126h-157
q0 165 64.5 242t163.5 77q76 0 156 -48l53 -32q104 -64 144 -64q77 0 77 144h158q-8 -126 -34 -185.5t-80 -96.5t-121 -37q-84 0 -175 60l-56 36q-74 49 -104 49q-89 0 -89 -145zM591 2574v155h699v-155h-699z" />
    <glyph glyph-name="otildemacron" unicode="&#x22d;" horiz-adv-x="1551" 
d="M776 -38q-274 0 -466.5 185t-192.5 552q0 364 192.5 550t466.5 186q273 0 466 -186t193 -550q0 -367 -193 -552t-466 -185zM776 155q189 0 302.5 149.5t113.5 394.5q0 243 -113.5 393t-302.5 150t-302.5 -150t-113.5 -393q0 -245 113.5 -394.5t302.5 -149.5zM524 1563
h-156q0 165 64 242.5t161 77.5q78 0 159 -48l52 -33q104 -64 144 -64q75 0 75 145h159q-6 -127 -32.5 -185t-81.5 -96.5t-120 -38.5q-84 0 -176 61l-55 36q-74 48 -104 48q-89 0 -89 -145zM426 2011v155h699v-155h-699z" />
    <glyph glyph-name="Odotaccent" unicode="&#x22e;" horiz-adv-x="1881" 
d="M940 -58q-363 0 -593 267t-230 762q0 492 230 759t593 267q364 0 594 -267t230 -759q0 -495 -230 -762t-594 -267zM940 137q266 0 414.5 228t148.5 606q0 375 -148.5 604t-414.5 229q-263 0 -412.5 -229t-149.5 -604q0 -378 149.5 -606t412.5 -228zM824 2126v231h233
v-231h-233z" />
    <glyph glyph-name="odotaccent" unicode="&#x22f;" horiz-adv-x="1551" 
d="M776 -38q-274 0 -466.5 185t-192.5 552q0 364 192.5 550t466.5 186q273 0 466 -186t193 -550q0 -367 -193 -552t-466 -185zM776 155q189 0 302.5 149.5t113.5 394.5q0 243 -113.5 393t-302.5 150t-302.5 -150t-113.5 -393q0 -245 113.5 -394.5t302.5 -149.5zM659 1563
v231h233v-231h-233z" />
    <glyph glyph-name="Odotaccentmacron" unicode="&#x230;" horiz-adv-x="1881" 
d="M940 -58q-363 0 -593 267t-230 762q0 492 230 759t593 267q364 0 594 -267t230 -759q0 -495 -230 -762t-594 -267zM940 137q266 0 414.5 228t148.5 606q0 375 -148.5 604t-414.5 229q-263 0 -412.5 -229t-149.5 -604q0 -378 149.5 -606t412.5 -228zM824 2126v231h233
v-231h-233zM591 2486v154h699v-154h-699z" />
    <glyph glyph-name="odotaccentmacron" unicode="&#x231;" horiz-adv-x="1551" 
d="M776 -38q-274 0 -466.5 185t-192.5 552q0 364 192.5 550t466.5 186q273 0 466 -186t193 -550q0 -367 -193 -552t-466 -185zM776 155q189 0 302.5 149.5t113.5 394.5q0 243 -113.5 393t-302.5 150t-302.5 -150t-113.5 -393q0 -245 113.5 -394.5t302.5 -149.5zM659 1563
v231h233v-231h-233zM426 1923v155h699v-155h-699z" />
    <glyph glyph-name="Ymacron" unicode="&#x232;" horiz-adv-x="1561" 
d="M908 0h-251v914l-629 1025h294l486 -784l478 784h245l-623 -1025v-914zM432 2068v154h697v-154h-697z" />
    <glyph glyph-name="ymacron" unicode="&#x233;" horiz-adv-x="1463" 
d="M639 60l-601 1337h257l469 -1037l438 1037h233l-589 -1399q-119 -281 -199 -373.5t-169.5 -130t-238.5 -37.5h-175v193h133q96 0 168.5 26.5t121 82.5t128.5 247zM388 1523v155h699v-155h-699z" />
    <glyph glyph-name="dotlessj" unicode="&#x237;" horiz-adv-x="708" 
d="M281 1396h234v-1396q0 -211 -50.5 -315t-163 -166t-243.5 -62q-94 0 -203 22v185l50 -5q69 -8 110 -8q118 0 192 59.5t74 289.5v1396z" />
    <glyph glyph-name="uni0254" unicode="&#x254;" horiz-adv-x="1396" 
d="M350 346q0 -76 68.5 -133.5t216.5 -57.5q175 0 293.5 129t118.5 415q0 285 -118.5 413.5t-293.5 128.5q-148 0 -218.5 -57.5t-66.5 -133.5v-12h-234v12q0 108 70.5 196t185 138.5t275.5 50.5q309 0 476 -195.5t167 -540.5q0 -346 -167 -542t-476 -196q-161 0 -275.5 51
t-185 146t-70.5 188v13h234v-13z" />
    <glyph glyph-name="uni0258" unicode="&#x258;" horiz-adv-x="1473" 
d="M358 346q0 -73 71 -132t224 -59q215 0 335.5 144.5t120.5 369.5h-992v76q0 262 75 407.5t203.5 214t287.5 68.5q290 0 472.5 -212t182.5 -534q0 -315 -172.5 -521t-492.5 -206q-157 0 -278.5 49t-194.5 145.5t-73 189.5v14h231v-14zM1093 844q-34 189 -144.5 293.5
t-239.5 104.5q-110 0 -192.5 -44.5t-129.5 -136.5t-47 -189v-28h753z" />
    <glyph glyph-name="uni0259" unicode="&#x259;" horiz-adv-x="1473" 
d="M358 1039h-231v14q0 92 73 188.5t194.5 146t278.5 49.5q320 0 492.5 -206t172.5 -522q0 -321 -182.5 -533t-472.5 -212q-159 0 -287.5 68t-203.5 214t-75 407v76h992q0 225 -120.5 370t-335.5 145q-153 0 -224 -59.5t-71 -131.5v-14zM1093 555h-753v-29q0 -96 47 -188.5
t129.5 -136.5t192.5 -44q129 0 239.5 104.5t144.5 293.5z" />
    <glyph glyph-name="uni02BB" unicode="&#x2bb;" horiz-adv-x="776" 
d="M553 2056v-151q-61 -34 -93 -84.5t-48 -106.5t-16 -125h157v-329h-330v205q0 185 35 282.5t107.5 177.5t187.5 131z" />
    <glyph glyph-name="afii57929" unicode="&#x2bc;" horiz-adv-x="776" 
d="M223 1260v151q60 36 91.5 86t47.5 105.5t16 123.5h-155v330h330v-205q0 -185 -36.5 -281.5t-108.5 -178t-185 -131.5z" />
    <glyph glyph-name="circumflex" unicode="&#x2c6;" horiz-adv-x="1513" 
d="M756 1820l-175 -210h-193l291 408h155l291 -408h-195z" />
    <glyph glyph-name="caron" unicode="&#x2c7;" horiz-adv-x="1513" 
d="M756 1808l174 210h195l-291 -408h-155l-291 408h193z" />
    <glyph glyph-name="breve" unicode="&#x2d8;" horiz-adv-x="1513" 
d="M548 2018q11 -97 72 -170t138 -73q76 0 136 74.5t71 168.5h160q-15 -139 -70.5 -224.5t-134.5 -134.5t-162 -49q-84 0 -163.5 49t-135 134.5t-71.5 224.5h160z" />
    <glyph glyph-name="dotaccent" unicode="&#x2d9;" horiz-adv-x="1513" 
d="M640 1610v233h233v-233h-233z" />
    <glyph glyph-name="ring" unicode="&#x2da;" horiz-adv-x="1513" 
d="M756 1726q49 0 83 34.5t34 82.5q0 47 -34 81.5t-83 34.5q-47 0 -81.5 -34.5t-34.5 -81.5q0 -48 34.5 -82.5t81.5 -34.5zM756 1610q-97 0 -164.5 70t-67.5 163t68 162.5t164 69.5q98 0 165.5 -69.5t67.5 -162.5t-67.5 -163t-165.5 -70z" />
    <glyph glyph-name="ogonek" unicode="&#x2db;" horiz-adv-x="1513" 
d="M969 0q-113 -53 -182 -146.5t-69 -153.5q0 -39 35 -74t116 -35q44 0 100 24v-121q-83 -37 -159 -37q-116 0 -191.5 62.5t-75.5 159.5q0 151 185 321h241z" />
    <glyph glyph-name="tilde" unicode="&#x2dc;" horiz-adv-x="1513" 
d="M505 1610h-156q0 165 64.5 242.5t161.5 77.5q78 0 158 -50l52 -31q104 -65 145 -65q75 0 75 146h159q-8 -127 -34 -186t-80.5 -97t-119.5 -38q-85 0 -176 61l-55 36q-74 49 -105 49q-89 0 -89 -145z" />
    <glyph glyph-name="hungarumlaut" unicode="&#x2dd;" horiz-adv-x="1513" 
d="M649 1610h-145l177 408h154zM991 1610h-147l181 408h158z" />
    <glyph glyph-name="uni02EE" unicode="&#x2ee;" horiz-adv-x="1260" 
d="M223 1221v152q60 35 91.5 85t48 105.5t16.5 124.5h-156v330h330v-205q0 -185 -36 -282t-108.5 -178.5t-185.5 -131.5zM708 1221v152q58 35 90.5 85t49 105.5t16.5 124.5h-156v330h330v-205q0 -185 -36 -282t-108.5 -178.5t-185.5 -131.5z" />
    <glyph glyph-name="gravecmb" unicode="&#x300;" horiz-adv-x="0" 
d="M-454 1610h-213l-428 407h269z" />
    <glyph glyph-name="acutecmb" unicode="&#x301;" horiz-adv-x="0" 
d="M-1095 1610l370 407h271l-428 -407h-213z" />
    <glyph glyph-name="circumflexcmb" unicode="&#x302;" horiz-adv-x="0" 
d="M-776 1821l-174 -211h-193l291 407h155l291 -407h-195z" />
    <glyph glyph-name="tildecmb" unicode="&#x303;" horiz-adv-x="0" 
d="M-1027 1610h-155q0 164 64.5 241.5t161.5 77.5q78 0 158 -48l53 -32q102 -65 144 -65q75 0 75 145h158q-8 -127 -34 -185t-80.5 -96t-118.5 -38q-84 0 -177 60l-54 36q-74 48 -106 48q-89 0 -89 -144z" />
    <glyph glyph-name="macroncmb" unicode="&#x304;" horiz-adv-x="0" 
d="M-1125 1610v154h699v-154h-699z" />
    <glyph glyph-name="overlinecmb" unicode="&#x305;" horiz-adv-x="0" 
d="M-1531 1610v154h1513v-154h-1513z" />
    <glyph glyph-name="brevecmb" unicode="&#x306;" horiz-adv-x="0" 
d="M-985 2017q12 -96 73.5 -169.5t137.5 -73.5q77 0 137 74.5t70 168.5h161q-16 -138 -71 -223.5t-133.5 -134.5t-163.5 -49q-84 0 -163.5 49t-134.5 134.5t-71 223.5h158z" />
    <glyph glyph-name="dotaccentcmb" unicode="&#x307;" horiz-adv-x="0" 
d="M-890 1610v233h231v-233h-231z" />
    <glyph glyph-name="dieresiscmb" unicode="&#x308;" horiz-adv-x="0" 
d="M-1163 1610v233h231v-233h-231zM-623 1610v233h235v-233h-235z" />
    <glyph glyph-name="hookcmb" unicode="&#x309;" horiz-adv-x="0" 
d="M-780 1927q-14 10 -29 15t-34 7t-44 0t-59 -6l-6 99q50 8 95 9t85.5 -8t75.5 -31.5t63 -62.5q16 -20 25 -59t-2 -80.5t-47 -76.5t-113 -51l-4 -54h-110v94q56 6 93 30t52.5 54.5t6.5 63.5t-48 57z" />
    <glyph glyph-name="ringcmb" unicode="&#x30a;" horiz-adv-x="0" 
d="M-776 1726q51 0 84 34t33 83q0 48 -33 82t-84 34q-46 0 -80 -34t-34 -82q0 -49 34 -83t80 -34zM-776 1610q-96 0 -163.5 70t-67.5 163q0 94 67.5 163.5t163.5 69.5q99 0 166 -69.5t67 -163.5q0 -93 -67 -163t-166 -70z" />
    <glyph glyph-name="hungarumlautcmb" unicode="&#x30b;" horiz-adv-x="0" 
d="M-969 1610h-144l177 407h154zM-627 1610h-147l181 407h157z" />
    <glyph glyph-name="caroncmb" unicode="&#x30c;" horiz-adv-x="0" 
d="M-776 1808l175 209h195l-291 -407h-155l-291 407h193z" />
    <glyph glyph-name="uni030F" unicode="&#x30f;" horiz-adv-x="0" 
d="M-768 2017h155l177 -407h-145zM-1113 2017h157l180 -407h-146z" />
    <glyph glyph-name="breveinvertedcmb" unicode="&#x311;" horiz-adv-x="0" 
d="M-567 1610q-10 96 -71 169.5t-138 73.5q-76 0 -136.5 -74.5t-72.5 -168.5h-158q14 138 70 224.5t134.5 134.5t162.5 48q83 0 162 -48t135.5 -134.5t72.5 -224.5h-161z" />
    <glyph glyph-name="commaturnedabovecmb" unicode="&#x312;" horiz-adv-x="0" 
d="M-669 2066v-99q-38 -22 -59.5 -55t-31.5 -68.5t-10 -81.5h101v-215h-213v135q0 118 23 181.5t69.5 117t120.5 85.5z" />
    <glyph glyph-name="commaabovecmb" unicode="&#x313;" horiz-adv-x="0" 
d="M-882 1547v99q40 22 60 55t31 68t11 82h-102v215h215v-135q0 -121 -23 -183t-70.5 -115.5t-121.5 -85.5z" />
    <glyph glyph-name="commareversedabovecmb" unicode="&#x314;" horiz-adv-x="0" 
d="M-669 1547q-72 32 -119.5 85.5t-70.5 115.5t-23 183v135h213v-215h-101q0 -47 11 -82t31.5 -68t58.5 -55v-99z" />
    <glyph glyph-name="commaaboverightcmb" unicode="&#x315;" horiz-adv-x="0" 
d="M-882 1547v99q40 22 60 55t31 68t11 82h-102v215h215v-135q0 -121 -23 -183t-70.5 -115.5t-121.5 -85.5z" />
    <glyph glyph-name="gravebelowcmb" unicode="&#x316;" horiz-adv-x="0" 
d="M-454 -641h-213l-428 408h269z" />
    <glyph glyph-name="acutebelowcmb" unicode="&#x317;" horiz-adv-x="0" 
d="M-1095 -641l370 408h271l-428 -408h-213z" />
    <glyph glyph-name="horncmb" unicode="&#x31b;" horiz-adv-x="0" 
d="M-997 1511l51 84q44 0 78 18.5t61 44.5t49 64l-86 52l107 185l184 -106l-68 -115q-58 -106 -109.5 -148.5t-118.5 -65.5t-148 -13z" />
    <glyph glyph-name="dieresisbelowcmb" unicode="&#x323;" horiz-adv-x="0" 
d="M-890 -641v233h231v-233h-231z" />
    <glyph glyph-name="ringbelowcmb" unicode="&#x324;" horiz-adv-x="0" 
d="M-1163 -641v233h231v-233h-231zM-623 -641v233h235v-233h-235z" />
    <glyph glyph-name="uni0325" unicode="&#x325;" horiz-adv-x="0" 
d="M-776 -663q51 0 84 34t33 82q0 49 -33 83t-84 34q-46 0 -80 -34t-34 -83q0 -48 34 -82t80 -34zM-776 -780q-96 0 -163.5 70.5t-67.5 162.5q0 95 67.5 164.5t163.5 69.5q99 0 166 -69.5t67 -164.5q0 -92 -67 -162.5t-166 -70.5z" />
    <glyph glyph-name="commaaccent" unicode="&#x326;" horiz-adv-x="0" 
d="M-940 -464v149q60 36 91 86t47 105.5t16 123.5h-154v330h329v-205q0 -185 -36 -281.5t-108.5 -178t-184.5 -129.5z" />
    <glyph glyph-name="cedillacmb" unicode="&#x327;" horiz-adv-x="0" 
d="M-687 0l-93 -163q135 -28 176 -83t41 -116q0 -68 -55 -125.5t-172 -57.5q-104 0 -199 37v110q73 -38 149 -38q44 0 79.5 26t35.5 54q0 87 -233 109l136 247h135z" />
    <glyph glyph-name="ogonekcmb" unicode="&#x328;" horiz-adv-x="0" 
d="M-563 0q-112 -52 -181.5 -145.5t-69.5 -153.5q0 -41 35.5 -75t115.5 -34q44 0 100 22v-120q-82 -37 -158 -37q-117 0 -192.5 62.5t-75.5 158.5q0 151 185 322h241z" />
    <glyph glyph-name="caronbelowcmb" unicode="&#x32c;" horiz-adv-x="0" 
d="M-776 -442l175 209h195l-291 -408h-155l-291 408h193z" />
    <glyph glyph-name="circumflexbelowcmb" unicode="&#x32d;" horiz-adv-x="0" 
d="M-776 -430l-174 -211h-193l291 408h155l291 -408h-195z" />
    <glyph glyph-name="brevebelowcmb" unicode="&#x32e;" horiz-adv-x="0" 
d="M-985 -233q12 -97 73.5 -169t137.5 -72q77 0 137 74t70 167h161q-16 -139 -71 -224.5t-133.5 -134.5t-163.5 -49q-84 0 -163.5 49t-134.5 134.5t-71 224.5h158z" />
    <glyph glyph-name="breveinvertedbelowcmb" unicode="&#x32f;" horiz-adv-x="0" 
d="M-567 -641q-10 96 -71 169.5t-138 73.5q-76 0 -136.5 -74.5t-72.5 -168.5h-158q14 141 70 226t134.5 133.5t162.5 48.5q83 0 162 -48.5t135.5 -133.5t72.5 -226h-161z" />
    <glyph glyph-name="tildebelowcmb" unicode="&#x330;" horiz-adv-x="0" 
d="M-1027 -641h-155q0 167 64.5 244.5t161.5 77.5q78 0 158 -51l53 -32q102 -64 144 -64q75 0 75 147h158q-8 -129 -34 -187.5t-80.5 -96.5t-118.5 -38q-84 0 -177 60l-54 36q-74 51 -106 51q-89 0 -89 -147z" />
    <glyph glyph-name="macronbelowcmb" unicode="&#x331;" horiz-adv-x="0" 
d="M-1125 -641v157h699v-157h-699z" />
    <glyph glyph-name="lowlinecmb" unicode="&#x332;" horiz-adv-x="0" 
d="M-1531 -641v157h1513v-157h-1513z" />
    <glyph glyph-name="soliduslongoverlaycmb" unicode="&#x338;" horiz-adv-x="0" 
d="M-1182 -58h-223l1043 2055h217z" />
    <glyph glyph-name="uni034F" unicode="&#x34f;" horiz-adv-x="0" 
 />
    <glyph glyph-name="Omega" unicode="&#x3a9;" horiz-adv-x="2056" 
d="M796 0h-660v214h408q-216 202 -288 403.5t-72 395.5q0 270 109.5 513t295.5 357.5t440 114.5q251 0 440 -117t296.5 -357t107.5 -511q0 -194 -71.5 -395.5t-287.5 -403.5h406v-214h-659v214q158 124 253.5 339.5t95.5 441.5q0 224 -78 427t-208 292.5t-295 89.5
q-166 0 -297 -91.5t-208.5 -291.5t-77.5 -426t96 -441.5t254 -339.5v-214z" />
    <glyph glyph-name="pi" unicode="&#x3c0;" horiz-adv-x="1765" 
d="M593 1193v-1193h-234v1193h-31q-125 0 -269 -84v236q55 20 95.5 29t100.5 15.5t89 6.5h1325v-203h-233v-724q0 -269 92 -469h-239q-86 199 -86 463v730h-610z" />
    <glyph glyph-name="uni0400" unicode="&#x400;" horiz-adv-x="1474" 
d="M184 0v1940h1096v-214h-844v-611h737v-194h-737v-707h912v-214h-1164zM1085 2068h-212l-428 407h270z" />
    <glyph glyph-name="Iocyrillic" unicode="&#x401;" horiz-adv-x="1474" 
d="M184 0v1940h1096v-214h-844v-611h737v-194h-737v-707h912v-214h-1164zM379 2153v232h232v-232h-232zM921 2153v232h234v-232h-234z" />
    <glyph glyph-name="Djecyrillic" unicode="&#x402;" horiz-adv-x="1998" 
d="M1823 244q0 -308 -131.5 -437.5t-341.5 -129.5q-79 0 -206 19v210q109 -14 166 -14q109 0 184.5 52.5t75.5 255.5v489q0 422 -295 422q-202 0 -321 -170q-104 -148 -104 -353v-588h-251v1745h-560v195h1561v-195h-750v-677q180 277 483 277q490 0 490 -556v-545z" />
    <glyph glyph-name="Gjecyrillic" unicode="&#x403;" horiz-adv-x="1319" 
d="M436 0h-252v1940h1096v-214h-844v-1726zM318 2153l388 252h408l-495 -252h-301z" />
    <glyph glyph-name="Ecyrillic" unicode="&#x404;" horiz-adv-x="1668" 
d="M1571 405q0 -115 -78 -234q-154 -230 -537 -230q-427 0 -647 312q-193 271 -193 717q0 448 193 719q220 310 649 310q382 0 535 -231q78 -120 78 -233v-12h-233v12q0 135 -123 209q-102 61 -249 61q-288 0 -441 -231q-124 -188 -144 -498h800v-193h-801q16 -317 140 -509
q153 -239 445 -239q151 0 251 58q122 71 122 212v13h233v-13z" />
    <glyph glyph-name="Dzecyrillic" unicode="&#x405;" horiz-adv-x="1551" 
d="M136 436h253v-12q0 -288 416 -288q164 0 273 93q116 97 116 257q0 139 -133 239q-76 56 -256 130l-101 41q-239 98 -356 212q-154 150 -154 367q0 266 195 403q170 120 447 120q222 0 365 -74q187 -96 187 -301v-13h-253v13q0 100 -117 147q-84 34 -203 34
q-154 0 -254 -74q-111 -82 -111 -231t140 -253q70 -52 270 -138l119 -52q222 -96 331 -205q145 -143 145 -348q0 -279 -200 -429q-176 -133 -459 -133q-660 0 -660 483v12z" />
    <glyph glyph-name="Icyrillic" unicode="&#x406;" horiz-adv-x="620" 
d="M436 0h-252v1940h252v-1940z" />
    <glyph glyph-name="Yicyrillic" unicode="&#x407;" horiz-adv-x="620" 
d="M436 0h-252v1940h252v-1940zM-78 2153v232h233v-232h-233zM465 2153v232h234v-232h-234z" />
    <glyph glyph-name="Jecyrillic" unicode="&#x408;" horiz-adv-x="1260" 
d="M49 330h252v-12q0 -182 253 -182q189 0 244 159q27 80 27 314v1331h251v-1349q0 -323 -96 -471q-116 -179 -412 -179q-212 0 -349 80q-170 100 -170 297v12z" />
    <glyph glyph-name="Ljecyrillic" unicode="&#x409;" horiz-adv-x="2560" 
d="M2460 519q0 -334 -249 -458q-123 -61 -430 -61h-553v1726h-527v-1003q0 -738 -508 -738q-108 0 -190 23v193q58 -15 151 -15q187 0 255 193q41 117 41 349v1212h1030v-791h254q319 0 514 -154q212 -169 212 -476zM2199 530q0 239 -151 340q-128 85 -384 85h-184v-761h306
q203 0 300 67q113 80 113 269z" />
    <glyph glyph-name="Njecyrillic" unicode="&#x40a;" horiz-adv-x="2560" 
d="M2460 519q0 -334 -249 -458q-123 -61 -430 -61h-553v955h-792v-955h-252v1940h252v-791h792v791h252v-791h254q319 0 514 -154q212 -169 212 -476zM2199 530q0 239 -151 340q-128 85 -384 85h-184v-761h306q203 0 300 67q113 80 113 269z" />
    <glyph glyph-name="Tshecyrillic" unicode="&#x40b;" horiz-adv-x="1998" 
d="M1823 0h-253v689q0 422 -295 422q-202 0 -321 -170q-105 -148 -105 -353l1 -588h-251v1745h-560v195h1561v-195h-750v-677q180 277 483 277q490 0 490 -556v-789z" />
    <glyph glyph-name="Kjecyrillic" unicode="&#x40c;" horiz-adv-x="1698" 
d="M436 0h-252v1940h252v-926l810 926h288l-801 -910l925 -1030h-317l-905 1014v-1014zM468 2153l388 252h408l-495 -252h-301z" />
    <glyph glyph-name="uni040D" unicode="&#x40d;" horiz-adv-x="1801" 
d="M1616 0h-247l10 1584l-954 -1584h-241v1940h247l-12 -1589l946 1589h251v-1940zM1220 2068h-212l-428 407h270z" />
    <glyph glyph-name="Ushortcyrillic" unicode="&#x40e;" horiz-adv-x="1613" 
d="M641 2385q10 -81 65 -131q58 -54 145 -54t144 54q54 51 64 131h160q-16 -152 -110 -247q-101 -103 -258 -103t-257 101q-95 95 -113 249h160zM715 541l-677 1399h280l533 -1101l503 1101h234l-638 -1397q-137 -303 -222 -397q-148 -166 -403 -166q-107 0 -190 23v193
q58 -15 151 -15q182 0 278 100q60 62 151 260z" />
    <glyph glyph-name="Dzhecyrillic" unicode="&#x40f;" horiz-adv-x="1765" 
d="M1016 0v-543h-243v543h-589v1940h252v-1726h892v1726h252v-1940h-564z" />
    <glyph glyph-name="Acyrillic" unicode="&#x410;" horiz-adv-x="1861" 
d="M273 0h-234l795 1940h255l734 -1940h-273l-201 534h-856zM569 728h705l-340 901z" />
    <glyph glyph-name="Becyrillic" unicode="&#x411;" horiz-adv-x="1629" 
d="M1228 551q0 244 -163 347q-132 82 -397 82h-225v-786h360q425 0 425 357zM1354 1940v-214h-911v-552h295q326 0 527 -153q224 -168 224 -481q0 -350 -255 -476q-128 -64 -436 -64h-608v1940h1164z" />
    <glyph glyph-name="Vecyrillic" unicode="&#x412;" horiz-adv-x="1629" 
d="M1056 1020q437 -106 437 -490q0 -304 -274 -456q-131 -74 -454 -74h-581v1940h515q352 0 474 -50q242 -102 242 -369q0 -318 -359 -501zM436 1096h243q187 0 281 50q90 49 147 141t57 194q0 264 -400 264h-328v-649zM436 194h357q438 0 438 317q0 223 -237 335
q-119 55 -370 55h-188v-707z" />
    <glyph glyph-name="Gecyrillic" unicode="&#x413;" horiz-adv-x="1319" 
d="M436 0h-252v1940h1096v-214h-844v-1726z" />
    <glyph glyph-name="Decyrillic" unicode="&#x414;" horiz-adv-x="1849" 
d="M1809 -543h-244v543h-1311v-543h-244v757h166q150 229 210 452q73 264 73 680v594h1096v-1726h254v-757zM1303 214v1512h-599v-322q0 -815 -254 -1190h853z" />
    <glyph glyph-name="Iecyrillic" unicode="&#x415;" horiz-adv-x="1474" 
d="M184 0v1940h1096v-214h-844v-611h737v-194h-737v-707h912v-214h-1164z" />
    <glyph glyph-name="Zhecyrillic" unicode="&#x416;" horiz-adv-x="2560" 
d="M1406 1940v-927l714 927h276l-711 -910l835 -1030h-305l-809 1013v-1013h-252v1013l-809 -1013h-305l835 1030l-711 910h276l714 -927v927h252z" />
    <glyph glyph-name="Zecyrillic" unicode="&#x417;" horiz-adv-x="1590" 
d="M1454 559q0 -283 -193 -454q-183 -164 -470 -164q-288 0 -462 99q-218 123 -218 384v12h253v-12q0 -288 416 -288q194 0 303.5 109.5t109.5 297.5q0 205 -167 305q-141 85 -377 85h-155v193h182q165 0 297 103q141 112 141 279q0 140 -99 220q-94 76 -242 76
q-157 0 -257 -56q-115 -64 -115 -180v-13h-235v13q0 225 187 336q160 94 432 94q236 0 399 -108q189 -125 189 -351q0 -185 -110 -314q-102 -120 -280 -171q182 -24 316 -145q155 -141 155 -350z" />
    <glyph glyph-name="Iicyrillic" unicode="&#x418;" horiz-adv-x="1801" 
d="M1616 0h-247l10 1584l-954 -1584h-241v1940h247l-12 -1589l946 1589h251v-1940z" />
    <glyph glyph-name="Iishortcyrillic" unicode="&#x419;" horiz-adv-x="1801" 
d="M691 2385q10 -81 65 -131q58 -54 145 -54t144 54q54 51 64 131h160q-16 -152 -110 -247q-101 -103 -258 -103t-257 101q-95 95 -113 249h160zM1616 0h-247l10 1584l-954 -1584h-241v1940h247l-12 -1589l946 1589h251v-1940z" />
    <glyph glyph-name="Kacyrillic" unicode="&#x41a;" horiz-adv-x="1698" 
d="M436 0h-252v1940h252v-926l810 926h288l-801 -910l925 -1030h-317l-905 1014v-1014z" />
    <glyph glyph-name="Elcyrillic" unicode="&#x41b;" horiz-adv-x="1765" 
d="M3 201q58 -15 151 -15q187 0 255 193q41 117 41 349v1212h1130v-1940h-252v1726h-627v-1003q0 -738 -508 -738q-108 0 -190 23v193z" />
    <glyph glyph-name="Emcyrillic" unicode="&#x41c;" horiz-adv-x="2018" 
d="M398 0h-214v1940h247l573 -1395l584 1395h245v-1940h-224l6 1503h-6l-125 -348l-354 -864h-254l-363 868l-115 315h-7l7 -315v-1159z" />
    <glyph glyph-name="Encyrillic" unicode="&#x41d;" horiz-adv-x="1765" 
d="M436 0h-252v1940h252v-864h892v864h252v-1940h-252v883h-892v-883z" />
    <glyph glyph-name="Ocyrillic" unicode="&#x41e;" horiz-adv-x="1881" 
d="M940 -59q-414 0 -634 319q-190 276 -190 710t190 710q220 318 634 318t634 -318q191 -276 191 -710t-191 -710q-220 -319 -634 -319zM940 136q299 0 446 283q117 222 117 551q0 328 -117 550q-147 284 -446 284q-297 0 -446 -284q-116 -222 -116 -550q0 -327 116 -550
q149 -284 446 -284z" />
    <glyph glyph-name="Pecyrillic" unicode="&#x41f;" horiz-adv-x="1765" 
d="M436 0h-252v1940h1396v-1940h-252v1726h-892v-1726z" />
    <glyph glyph-name="Ercyrillic" unicode="&#x420;" horiz-adv-x="1494" 
d="M436 0h-252v1940h540q309 0 436 -62q255 -128 255 -469q0 -314 -217 -485q-199 -158 -522 -158h-240v-766zM436 960h170q260 0 392 88q156 105 156 350q0 196 -119 278q-99 69 -306 69h-293v-785z" />
    <glyph glyph-name="Escyrillic" unicode="&#x421;" horiz-adv-x="1668" 
d="M1338 418h233v-13q0 -115 -78 -234q-154 -230 -537 -230q-427 0 -647 312q-193 271 -193 717t193 719q221 310 649 310q381 0 535 -231q78 -122 78 -233v-12h-233v12q0 139 -124 210q-100 59 -248 59q-315 0 -467 -274q-121 -217 -121 -560q0 -342 121 -561
q151 -274 466 -274q151 0 250 58q123 71 123 212v13z" />
    <glyph glyph-name="Tecyrillic" unicode="&#x422;" horiz-adv-x="1639" 
d="M699 0v1726h-660v214h1561v-214h-650v-1726h-251z" />
    <glyph glyph-name="Ucyrillic" unicode="&#x423;" horiz-adv-x="1613" 
d="M715 541l-677 1399h280l533 -1101l503 1101h234l-638 -1397q-137 -303 -222 -397q-148 -166 -403 -166q-107 0 -190 23v193q58 -15 151 -15q182 0 278 100q60 62 151 260z" />
    <glyph glyph-name="Efcyrillic" unicode="&#x424;" horiz-adv-x="2168" 
d="M2064 984q0 -384 -260 -598q-234 -192 -594 -193v-218h-252v218q-360 1 -594 193q-260 214 -260 598t260 597q234 193 594 194v190h252v-190q360 -1 594 -194q260 -213 260 -597zM1803 985q0 564 -593 595v-1192q593 31 593 597zM958 388v1192q-593 -31 -593 -595
q0 -566 593 -597z" />
    <glyph glyph-name="Khacyrillic" unicode="&#x425;" horiz-adv-x="1561" 
d="M294 0h-255l621 985l-572 955h276l439 -732l466 732h251l-595 -935l598 -1005h-272l-467 781z" />
    <glyph glyph-name="Tsecyrillic" unicode="&#x426;" horiz-adv-x="1849" 
d="M184 0v1940h252v-1726h879v1726h253v-1726h266v-757h-244v543h-1406z" />
    <glyph glyph-name="Checyrillic" unicode="&#x427;" horiz-adv-x="1708" 
d="M1524 0h-253v856q-63 -22 -205 -52q-166 -35 -251 -35q-374 0 -525 154q-146 150 -146 513v504h252v-470q0 -266 58 -361q86 -141 362 -141q222 0 455 95v877h253v-1940z" />
    <glyph glyph-name="Shacyrillic" unicode="&#x428;" horiz-adv-x="2466" 
d="M184 0v1940h252v-1726h670v1726h253v-1726h670v1726h252v-1940h-2097z" />
    <glyph glyph-name="Shchacyrillic" unicode="&#x429;" horiz-adv-x="2560" 
d="M2545 -543h-244v543h-2117v1940h252v-1726h669v1726h253v-1726h668v1726h253v-1726h266v-757z" />
    <glyph glyph-name="Hardsigncyrillic" unicode="&#x42a;" horiz-adv-x="2013" 
d="M668 1745h-629v195h881v-766h254q322 0 521 -158q218 -171 218 -485q0 -341 -255 -467q-128 -64 -437 -64h-553v1745zM1651 543q0 245 -156 350q-131 87 -391 87h-184v-786h306q207 0 307 70q118 84 118 279z" />
    <glyph glyph-name="Yericyrillic" unicode="&#x42b;" horiz-adv-x="2100" 
d="M1663 1940h252v-1940h-252v1940zM1404 531q0 -341 -255 -467q-128 -64 -436 -64h-529v1940h252v-766h229q323 0 521 -158q218 -171 218 -485zM1143 543q0 245 -157 350q-131 87 -391 87h-159v-786h282q206 0 306 70q119 84 119 279z" />
    <glyph glyph-name="Softsigncyrillic" unicode="&#x42c;" horiz-adv-x="1529" 
d="M1429 531q0 -341 -255 -467q-128 -64 -436 -64h-554v1940h252v-766h254q323 0 521 -158q218 -171 218 -485zM1168 543q0 245 -157 350q-131 87 -391 87h-184v-786h307q206 0 306 70q119 84 119 279z" />
    <glyph glyph-name="Ereversedcyrillic" unicode="&#x42d;" horiz-adv-x="1668" 
d="M1551 970q0 -446 -192 -717q-220 -312 -648 -312q-382 0 -535 230q-80 119 -80 234v13h234v-13q0 -141 123 -212q98 -58 250 -58q292 0 445 239q123 192 140 509h-802v193h800q-20 309 -143 498q-154 231 -442 231q-146 0 -248 -61q-123 -74 -123 -209v-12h-234v12
q0 111 80 233q153 231 534 231q428 0 649 -310q192 -273 192 -719z" />
    <glyph glyph-name="IUcyrillic" unicode="&#x42e;" horiz-adv-x="2560" 
d="M1619 -59q-391 0 -610 288q-191 250 -211 654h-362v-883h-252v1940h252v-864h363q25 398 215 642q217 280 605 280q414 0 634 -318q191 -276 191 -710t-191 -710q-220 -319 -634 -319zM1619 136q299 0 446 283q116 222 116 551q0 328 -116 550q-147 284 -446 284
q-298 0 -446 -284q-117 -222 -117 -550q0 -327 117 -550q148 -284 446 -284z" />
    <glyph glyph-name="IAcyrillic" unicode="&#x42f;" horiz-adv-x="1629" 
d="M979 821l-648 -821h-313l672 830q-226 36 -375 196q-155 168 -155 398q0 261 165 395q150 121 409 121h711v-1940h-252v821h-214zM1193 1015v730h-377q-393 0 -393 -339q0 -192 116 -295q109 -96 296 -96h358z" />
    <glyph glyph-name="acyrillic" unicode="&#x430;" horiz-adv-x="1416" 
d="M1045 0q-36 113 -36 194q-235 -233 -468 -233q-175 0 -287 103q-118 107 -118 280q0 240 269 370q145 69 479 132l125 24v158q0 232 -294 232q-115 0 -201 -47q-106 -59 -106 -165v-20h-253v18q0 93 79 192q156 198 490 198q335 0 460 -175q57 -81 57 -303v-543
q0 -256 49 -415h-245zM1009 705l-70 -17q-258 -65 -339 -102q-212 -93 -212 -247q0 -90 71 -149q67 -54 159 -54q102 0 194.5 59t144.5 152t52 219v139z" />
    <glyph glyph-name="becyrillic" unicode="&#x431;" horiz-adv-x="1551" 
d="M1434 679q0 -319 -164 -513q-175 -206 -489 -206q-630 0 -630 861q0 462 119 694q160 313 571 343q164 12 213 21q86 16 86 61h273q0 -176 -149 -244q-113 -51 -429 -71q-449 -29 -514 -596h8q51 142 182 249q148 118 320 118q284 0 452 -222q151 -203 151 -495z
M1191 679q0 212 -93 357q-108 167 -304 167q-199 0 -306 -165q-93 -143 -93 -359q0 -215 93 -359q107 -166 306 -166q200 0 306 170q91 144 91 355z" />
    <glyph glyph-name="vecyrillic" unicode="&#x432;" horiz-adv-x="1424" 
d="M1288 381q0 -218 -197 -328q-95 -53 -327 -53h-589v1396h591q465 0 465 -301q0 -227 -257 -361q314 -76 314 -353zM400 1218v-415h264q129 0 190 32q134 73 134 219q0 164 -244 164h-344zM625 634h-225v-456h346q290 0 290 201q0 144 -156 217q-80 38 -255 38z" />
    <glyph glyph-name="gecyrillic" unicode="&#x433;" horiz-adv-x="1125" 
d="M1110 1203h-702v-1203h-233v1396h935v-193z" />
    <glyph glyph-name="decyrillic" unicode="&#x434;" horiz-adv-x="1519" 
d="M1479 -455h-226v455h-1005v-455h-227v649h164q119 224 164 442q40 193 40 473v287h875v-1202h215v-649zM1031 194v1006l-418 1v-62q0 -569 -174 -945h592z" />
    <glyph glyph-name="iecyrillic" unicode="&#x435;" horiz-adv-x="1474" 
d="M1096 359h233v-13q0 -92 -74 -188q-150 -197 -474 -197q-315 0 -495 209q-170 198 -170 519q0 310 170 520q183 226 485 226q567 0 567 -689v-77h-992q0 -223 115 -363q123 -151 340 -151q112 0 192 40q103 50 103 151v13zM361 844h754v27q0 167 -102.5 268.5
t-266.5 101.5q-152 0 -261 -126q-94 -110 -124 -271z" />
    <glyph glyph-name="zhecyrillic" unicode="&#x436;" horiz-adv-x="2030" 
d="M899 719l-585 -719h-294l605 735l-570 661h271l573 -677v677h232v-677l573 677h271l-570 -661l605 -735h-294l-585 719v-719h-232v719z" />
    <glyph glyph-name="zecyrillic" unicode="&#x437;" horiz-adv-x="1396" 
d="M1255 411q0 -221 -181 -343q-158 -107 -390 -107q-226 0 -376 87q-184 106 -184 316v5h232v-5q0 -209 327 -209q128 0 217 56q105 67 105 189q0 248 -361 248h-136v178h156q117 0 200 63q90 70 90 184q0 93 -84 140q-67 37 -169 37q-158 0 -226 -52q-81 -64 -81 -149v-20
h-253v19q0 96 75 191q158 199 482 199q205 0 336 -69q169 -89 169 -275q0 -118 -63 -209q-66 -95 -176 -122q110 -17 190 -93q101 -97 101 -259z" />
    <glyph glyph-name="iicyrillic" unicode="&#x438;" horiz-adv-x="1519" 
d="M408 0h-233v1396h233v-1063l703 1063h233v-1396h-233v1064z" />
    <glyph glyph-name="iishortcyrillic" unicode="&#x439;" horiz-adv-x="1519" 
d="M551 1843q10 -82 65 -132q58 -53 145 -53t144 53q54 52 64 132h160q-16 -153 -110 -248q-101 -102 -258 -102t-257 101q-95 95 -113 249h160zM408 0h-233v1396h233v-1063l703 1063h233v-1396h-233v1064z" />
    <glyph glyph-name="kacyrillic" unicode="&#x43a;" horiz-adv-x="1378" 
d="M416 0h-232v1396h232v-682l628 682h274l-618 -666l658 -730h-297l-645 714v-714z" />
    <glyph glyph-name="elcyrillic" unicode="&#x43b;" horiz-adv-x="1494" 
d="M1310 0h-232v1201h-493v-638q0 -593 -424 -593q-80 0 -156 21v185q66 -12 135 -12q145 0 190 135q26 79 26 289v808h954v-1396z" />
    <glyph glyph-name="emcyrillic" unicode="&#x43c;" horiz-adv-x="1715" 
d="M383 0h-208v1396h238l445 -986l445 986h237v-1396h-207v1003l-382 -809h-196l-372 809v-1003z" />
    <glyph glyph-name="encyrillic" unicode="&#x43d;" horiz-adv-x="1494" 
d="M408 0h-233v1396h233v-583h678v583h233v-1396h-233v619h-678v-619z" />
    <glyph glyph-name="ocyrillic" unicode="&#x43e;" horiz-adv-x="1551" 
d="M776 -39q-316 0 -493 215q-167 200 -167 523q0 322 167 522q178 214 493 214t493 -215q166 -200 166 -521q0 -323 -166 -523q-178 -215 -493 -215zM776 155q208 0 320 175q97 149 97 369q0 219 -97 367q-112 175 -320 175t-321 -173q-96 -149 -96 -369t96 -369
q113 -175 321 -175z" />
    <glyph glyph-name="pecyrillic" unicode="&#x43f;" horiz-adv-x="1494" 
d="M408 0h-233v1396h1144v-1396h-233v1203h-678v-1203z" />
    <glyph glyph-name="ercyrillic" unicode="&#x440;" horiz-adv-x="1541" 
d="M398 -543h-233v1939h233v-242q165 281 456 281q284 0 439 -236q132 -203 132 -498q0 -303 -136 -506q-156 -234 -446 -234q-163 0 -269 73q-91 62 -176 210v-787zM398 698q0 -218 85 -364q105 -179 306 -179q206 0 310 175q85 143 85 364q0 232 -78 375
q-100 182 -312 182q-204 0 -310 -185q-86 -151 -86 -368z" />
    <glyph glyph-name="escyrillic" unicode="&#x441;" horiz-adv-x="1396" 
d="M1056 359h234v-13q0 -93 -70 -188q-146 -197 -461 -197q-323 0 -490 213q-153 194 -153 525t153 524q167 212 490 212q309 0 461 -189q70 -88 70 -196v-12h-234v12q0 191 -285 191q-217 0 -323 -170q-89 -141 -89 -372t89 -373q106 -171 323 -171q112 0 188 40
q97 50 97 151v13z" />
    <glyph glyph-name="tecyrillic" unicode="&#x442;" horiz-adv-x="1280" 
d="M524 1203h-499v193h1230v-193h-499v-1203h-232v1203z" />
    <glyph glyph-name="ucyrillic" unicode="&#x443;" horiz-adv-x="1464" 
d="M639 60l-600 1336h257l468 -1037l437 1037h234l-589 -1397q-125 -297 -212 -392q-138 -150 -394 -150h-175v194h131q187 0 277 95q51 55 142 260z" />
    <glyph glyph-name="efcyrillic" unicode="&#x444;" horiz-adv-x="1848" 
d="M1731 699q0 -330 -178 -530q-187 -208 -513 -208v-504h-232v504q-327 0 -513 208q-179 200 -179 530q0 329 180 529q187 207 512 207v505h232v-505q325 0 511 -207q180 -200 180 -529zM1496 699q0 224 -111 376q-125 173 -345 173v-1099q219 0 345 174q111 153 111 376z
M808 149v1099q-220 0 -345 -173q-112 -152 -112 -376q0 -223 112 -376q126 -174 345 -174z" />
    <glyph glyph-name="khacyrillic" unicode="&#x445;" horiz-adv-x="1358" 
d="M310 0h-242l485 706l-457 690h268l325 -491l336 491h240l-456 -666l480 -730h-269l-349 530z" />
    <glyph glyph-name="tsecyrillic" unicode="&#x446;" horiz-adv-x="1575" 
d="M175 0v1396h233v-1202h678v1202h233v-1202h231v-649h-226v455h-1149z" />
    <glyph glyph-name="checyrillic" unicode="&#x447;" horiz-adv-x="1424" 
d="M1249 0h-233v589q-181 -70 -397 -70q-255 0 -365 139q-99 125 -99 386v352h233v-262q0 -214 37 -290q59 -119 245 -119q183 0 346 63v608h233v-1396z" />
    <glyph glyph-name="shacyrillic" unicode="&#x448;" horiz-adv-x="2098" 
d="M175 0v1396h233v-1202h525v1202h232v-1202h525v1202h233v-1396h-1748z" />
    <glyph glyph-name="shchacyrillic" unicode="&#x449;" horiz-adv-x="2179" 
d="M2154 -455h-226v455h-1753v1396h233v-1202h525v1202h232v-1202h525v1202h233v-1202h231v-649z" />
    <glyph glyph-name="hardsigncyrillic" unicode="&#x44a;" horiz-adv-x="1708" 
d="M1376 419q0 161 -100 229q-85 57 -265 57h-271v-511h359q140 0 205 47q72 53 72 178zM508 1203h-475v193h707v-497h319q242 0 392 -118q168 -130 168 -370q0 -263 -199 -362q-97 -49 -327 -49h-585v1203z" />
    <glyph glyph-name="yericyrillic" unicode="&#x44b;" horiz-adv-x="1849" 
d="M1211 411q0 -263 -198 -362q-98 -49 -328 -49h-510v1396h233v-497h243q243 0 393 -118q167 -130 167 -370zM969 419q0 161 -100 229q-85 57 -265 57h-196v-511h283q140 0 205 47q73 53 73 178zM1441 1396h233v-1396h-233v1396z" />
    <glyph glyph-name="softsigncyrillic" unicode="&#x44c;" horiz-adv-x="1375" 
d="M1286 411q0 -263 -198 -362q-98 -49 -328 -49h-585v1396h233v-497h318q243 0 393 -118q167 -130 167 -370zM1044 419q0 161 -100 229q-85 57 -265 57h-271v-511h358q140 0 205 47q73 53 73 178z" />
    <glyph glyph-name="ereversedcyrillic" unicode="&#x44d;" horiz-adv-x="1396" 
d="M1279 699q0 -331 -151 -525q-168 -213 -492 -213q-313 0 -460 197q-71 96 -71 188v13h231q7 -204 288 -204q196 0 306 140q95 121 111 326h-546v179h544q-44 441 -415 441q-289 0 -289 -203h-230v12q0 108 71 196q152 189 460 189q323 0 490 -212q153 -193 153 -524z" />
    <glyph glyph-name="iucyrillic" unicode="&#x44e;" horiz-adv-x="2076" 
d="M1326 -39q-286 0 -455 189q-156 176 -177 469h-286v-619h-233v1396h233v-593h288q28 280 187 450q168 182 443 182q305 0 478 -221q156 -201 156 -515q0 -316 -155 -516q-171 -222 -479 -222zM1326 155q195 0 302 175q90 149 90 369q0 221 -89 367q-106 175 -303 175
q-198 0 -303 -173q-89 -148 -89 -369t89 -369q105 -175 303 -175z" />
    <glyph glyph-name="iacyrillic" unicode="&#x44f;" horiz-adv-x="1416" 
d="M824 568l-481 -568h-292l490 578q-173 32 -277 140q-111 115 -111 287q0 189 113 293q110 98 300 98h670v-1396h-232v568h-180zM1004 754v459h-371q-229 0 -229 -220q0 -239 242 -239h358z" />
    <glyph glyph-name="uni0450" unicode="&#x450;" horiz-adv-x="1474" 
d="M1096 359h233v-13q0 -92 -74 -188q-150 -197 -474 -197q-315 0 -495 209q-170 198 -170 519q0 310 170 520q183 226 485 226q567 0 567 -689v-77h-992q0 -223 115 -363q123 -151 340 -151q112 0 192 40q103 50 103 151v13zM361 844h754v27q0 167 -102.5 268.5
t-266.5 101.5q-152 0 -261 -126q-94 -110 -124 -271zM1046 1563h-212l-428 407h270z" />
    <glyph glyph-name="iocyrillic" unicode="&#x451;" horiz-adv-x="1474" 
d="M360 1610v233h233v-233h-233zM903 1610v233h233v-233h-233zM1096 359h233v-13q0 -92 -74 -188q-150 -197 -474 -197q-315 0 -495 209q-170 198 -170 519q0 310 170 520q183 226 485 226q567 0 567 -689v-77h-992q0 -223 115 -363q123 -151 340 -151q112 0 192 40
q103 50 103 151v13zM361 844h754v27q0 167 -102.5 268.5t-266.5 101.5q-152 0 -261 -126q-94 -110 -124 -271z" />
    <glyph glyph-name="djecyrillic" unicode="&#x452;" horiz-adv-x="1494" 
d="M1365 14q0 -557 -462 -557q-78 0 -197 18v190q98 -13 157 -13q155 0 216 83q54 72 54 235v381q0 205 -42 295q-62 138 -238 138q-205 0 -312 -175q-87 -145 -87 -360v-249h-233v1201h-165v195h165v622h233v-622h684v-195h-684v-483q181 280 456 280q455 0 455 -547v-437z
" />
    <glyph glyph-name="gjecyrillic" unicode="&#x453;" horiz-adv-x="1125" 
d="M361 1610l370 408h270l-427 -408h-213zM1110 1203h-702v-1203h-233v1396h935v-193z" />
    <glyph glyph-name="ecyrillic" unicode="&#x454;" horiz-adv-x="1396" 
d="M1290 346q0 -95 -70 -188q-146 -197 -461 -197q-324 0 -491 213q-152 194 -152 525t153 524q167 212 490 212q310 0 461 -189q70 -87 70 -196v-12h-230q0 203 -289 203q-371 0 -415 -441h544v-179h-546q16 -205 111 -326q110 -140 306 -140q282 0 288 204h231v-13z" />
    <glyph glyph-name="dzecyrillic" unicode="&#x455;" horiz-adv-x="1304" 
d="M98 369h232v-5q0 -209 301 -209q120 0 213 56q110 67 110 179q0 98 -94 148q-40 20 -279.5 96t-320.5 137q-116 87 -116 249q0 205 170 318q146 97 361 97q194 0 321 -74q159 -90 159 -270v-5h-234v5q0 150 -258 150q-113 0 -192 -43q-97 -54 -97 -158q0 -94 114 -145
q26 -11 290 -89q225 -66 300 -123q111 -84 111 -254q0 -229 -169 -355q-150 -113 -387 -113q-324 0 -468 194q-67 90 -67 209v5z" />
    <glyph glyph-name="icyrillic" unicode="&#x456;" horiz-adv-x="601" 
d="M184 1396h232v-1396h-232v1396zM184 1706v234h232v-234h-232z" />
    <glyph glyph-name="yicyrillic" unicode="&#x457;" horiz-adv-x="601" 
d="M184 1396h232v-1396h-232v1396zM-88 1610v233h233v-233h-233zM455 1610v233h234v-233h-234z" />
    <glyph glyph-name="jecyrillic" unicode="&#x458;" horiz-adv-x="708" 
d="M281 1396h234v-1396q0 -211 -50 -315q-54 -108 -171 -170q-109 -58 -236 -58q-94 0 -203 22v185q125 -13 160 -13q163 0 221 98q45 73 45 251v1396zM281 1716v224h234v-224h-234z" />
    <glyph glyph-name="ljecyrillic" unicode="&#x459;" horiz-adv-x="2128" 
d="M2039 386q0 -248 -185 -340q-93 -46 -316 -46h-535v1201h-418v-638q0 -593 -424 -593q-80 0 -156 21v185q66 -12 135 -12q145 0 190 135q26 77 26 289v808h879v-547h269q235 0 377 -113q158 -122 158 -350zM1796 394q0 147 -88 207q-79 54 -252 54h-221v-461h309
q132 0 190 42q62 45 62 158z" />
    <glyph glyph-name="njecyrillic" unicode="&#x45a;" horiz-adv-x="2128" 
d="M2039 386q0 -248 -185 -340q-93 -46 -316 -46h-535v655h-595v-655h-233v1396h233v-547h595v547h232v-547h269q235 0 377 -113q158 -122 158 -350zM1796 394q0 147 -88 207q-79 54 -252 54h-221v-461h309q132 0 190 42q62 45 62 158z" />
    <glyph glyph-name="tshecyrillic" unicode="&#x45b;" horiz-adv-x="1494" 
d="M1365 0h-232v351q0 205 -42 295q-62 138 -238 138q-205 0 -312 -175q-87 -145 -87 -360v-249h-233v1201h-165v195h165v622h233v-622h684v-195h-684v-483q181 280 456 280q455 0 455 -547v-451z" />
    <glyph glyph-name="kjecyrillic" unicode="&#x45c;" horiz-adv-x="1378" 
d="M524 1610l370 408h270l-428 -408h-212zM416 0h-232v1396h232v-682l628 682h274l-618 -666l658 -730h-297l-645 714v-714z" />
    <glyph glyph-name="uni045D" unicode="&#x45d;" horiz-adv-x="1519" 
d="M408 0h-233v1396h233v-1063l703 1063h233v-1396h-233v1064zM1079 1524h-213l-427 407h270z" />
    <glyph glyph-name="ushortcyrillic" unicode="&#x45e;" horiz-adv-x="1464" 
d="M554 1843q10 -82 65 -132q57 -53 145 -53q86 0 144 53q53 52 63 132h160q-16 -153 -110 -248q-101 -102 -257 -102q-158 0 -258 101q-95 95 -112 249h160zM639 60l-600 1336h257l468 -1037l437 1037h234l-589 -1397q-125 -297 -212 -392q-138 -150 -394 -150h-175v194
h131q187 0 277 95q51 55 142 260z" />
    <glyph glyph-name="dzhecyrillic" unicode="&#x45f;" horiz-adv-x="1494" 
d="M860 0v-455h-226v455h-459v1396h233v-1202h678v1202h233v-1396h-459z" />
    <glyph glyph-name="Gheupturncyrillic" unicode="&#x490;" horiz-adv-x="1319" 
d="M1280 1726h-844v-1726h-252v1940h852v480h244v-694z" />
    <glyph glyph-name="gheupturncyrillic" unicode="&#x491;" horiz-adv-x="1125" 
d="M1110 1203h-702v-1203h-233v1396h709v408h226v-601z" />
    <glyph glyph-name="palochkacyrillic" unicode="&#x4c0;" horiz-adv-x="620" 
d="M436 0h-252v1940h252v-1940z" />
    <glyph glyph-name="Zhebrevecyrillic" unicode="&#x4c1;" horiz-adv-x="2560" 
d="M1406 1940v-927l714 927h276l-711 -910l835 -1030h-305l-809 1013v-1013h-252v1013l-809 -1013h-305l835 1030l-711 910h276l714 -927v927h252zM1071 2475q12 -96 73 -169t137 -73q77 0 137 74t71 168h160q-15 -139 -70.5 -224.5t-134.5 -134t-163 -48.5
q-83 0 -162.5 48.5t-135 134t-72.5 224.5h160z" />
    <glyph glyph-name="zhebrevecyrillic" unicode="&#x4c2;" horiz-adv-x="2030" 
d="M899 719l-585 -719h-294l605 735l-570 661h271l573 -677v677h232v-677l573 677h271l-570 -661l605 -735h-294l-585 719v-719h-232v719zM806 1931q12 -96 73 -169t137 -73q77 0 137 74.5t71 167.5h160q-15 -138 -70.5 -224t-134.5 -134.5t-163 -48.5q-83 0 -162.5 48.5
t-135 134.5t-72.5 224h160z" />
    <glyph glyph-name="Abrevecyrillic" unicode="&#x4d0;" horiz-adv-x="1861" 
d="M273 0h-234l795 1940h255l734 -1940h-273l-201 534h-856zM569 728h705l-340 901zM721 2475q12 -96 73 -169t137 -73q77 0 137 74t71 168h160q-15 -139 -70.5 -224.5t-134.5 -134t-163 -48.5q-83 0 -162.5 48.5t-135 134t-72.5 224.5h160z" />
    <glyph glyph-name="abrevecyrillic" unicode="&#x4d1;" horiz-adv-x="1416" 
d="M1045 0q-36 113 -36 194q-235 -233 -468 -233q-175 0 -287 103q-118 107 -118 280q0 240 269 370q145 69 479 132l125 24v158q0 232 -294 232q-115 0 -201 -47q-106 -59 -106 -165v-20h-253v18q0 93 79 192q156 198 490 198q335 0 460 -175q57 -81 57 -303v-543
q0 -256 49 -415h-245zM1009 705l-70 -17q-258 -65 -339 -102q-212 -93 -212 -247q0 -90 71 -149q67 -54 159 -54q102 0 194.5 59t144.5 152t52 219v139zM504 1971q11 -96 72.5 -169t137.5 -73t136 74.5t71 167.5h160q-15 -138 -70.5 -224t-134 -134.5t-162.5 -48.5
t-163.5 48.5t-135 134.5t-71.5 224h160z" />
    <glyph glyph-name="Adieresiscyrillic" unicode="&#x4d2;" horiz-adv-x="1861" 
d="M273 0h-234l795 1940h255l734 -1940h-273l-201 534h-856zM569 728h705l-340 901zM543 2068v232h232v-232h-232zM1085 2068v232h234v-232h-234z" />
    <glyph glyph-name="adieresiscyrillic" unicode="&#x4d3;" horiz-adv-x="1416" 
d="M1045 0q-36 113 -36 194q-235 -233 -468 -233q-175 0 -287 103q-118 107 -118 280q0 240 269 370q145 69 479 132l125 24v158q0 232 -294 232q-115 0 -201 -47q-106 -59 -106 -165v-20h-253v18q0 93 79 192q156 198 490 198q335 0 460 -175q57 -81 57 -303v-543
q0 -256 49 -415h-245zM1009 705l-70 -17q-258 -65 -339 -102q-212 -93 -212 -247q0 -90 71 -149q67 -54 159 -54q102 0 194.5 59t144.5 152t52 219v139zM325 1564v232h233v-232h-233zM868 1564v232h233v-232h-233z" />
    <glyph glyph-name="Aiecyrillic" unicode="&#x4d4;" horiz-adv-x="2540" 
d="M1252 0v535h-645l-350 -535h-257l1252 1939h1095v-213h-844v-611h738v-195h-738v-707h912v-213h-1163zM1252 727v806l-523 -806h523z" />
    <glyph glyph-name="aiecyrillic" unicode="&#x4d5;" horiz-adv-x="2377" 
d="M1202 1180q58 102 123.5 151t156.5 76.5t192 27.5q247 0 407 -163t160 -527v-76h-991l-2 -44q0 -175 122.5 -322.5t333.5 -147.5q161 0 227 69t66 122v14h244v-14q0 -91 -77.5 -188.5t-204 -146.5t-267.5 -49q-155 0 -305.5 64t-245.5 267q-126 -182 -269 -256.5
t-309 -74.5q-197 0 -311.5 106.5t-114.5 275.5q0 114 56 200.5t196.5 155t498.5 144.5l149 30v58q0 197 -89.5 263.5t-224.5 66.5q-152 0 -233.5 -64.5t-81.5 -150.5v-20h-251v18q0 94 76 188.5t207 148t275 53.5q137 0 268.5 -49.5t218.5 -205.5zM1037 707l-87 -22
q-289 -74 -379.5 -119.5t-131.5 -104.5t-41 -123q0 -101 76.5 -151t162.5 -50q96 0 196.5 64t152 183.5t51.5 260.5v62zM1266 844h751v30q0 84 -48 181.5t-134.5 142t-184.5 44.5q-137 0 -247.5 -110.5t-136.5 -287.5z" />
    <glyph glyph-name="Iebrevecyrillic" unicode="&#x4d6;" horiz-adv-x="1474" 
d="M184 0v1940h1096v-214h-844v-611h737v-194h-737v-707h912v-214h-1164zM556 2475q12 -96 73 -169t137 -73q77 0 137 74t71 168h160q-15 -139 -70.5 -224.5t-134.5 -134t-163 -48.5q-83 0 -162.5 48.5t-135 134t-72.5 224.5h160z" />
    <glyph glyph-name="iebrevecyrillic" unicode="&#x4d7;" horiz-adv-x="1474" 
d="M1096 359h233v-13q0 -92 -74 -188q-150 -197 -474 -197q-315 0 -495 209q-170 198 -170 519q0 310 170 520q183 226 485 226q567 0 567 -689v-77h-992q0 -223 115 -363q123 -151 340 -151q112 0 192 40q103 50 103 151v13zM361 844h754v27q0 167 -102.5 268.5
t-266.5 101.5q-152 0 -261 -126q-94 -110 -124 -271zM518 1970q11 -96 72 -169t138 -73q76 0 136 74t71 168h160q-15 -139 -70.5 -224.5t-134.5 -134t-162 -48.5q-84 0 -163.5 48.5t-135 134t-71.5 224.5h160z" />
    <glyph glyph-name="Zhedieresiscyrillic" unicode="&#x4dc;" horiz-adv-x="2560" 
d="M1406 1940v-927l714 927h276l-711 -910l835 -1030h-305l-809 1013v-1013h-252v1013l-809 -1013h-305l835 1030l-711 910h276l714 -927v927h252zM893 2068v232h232v-232h-232zM1435 2068v232h234v-232h-234z" />
    <glyph glyph-name="zhedieresiscyrillic" unicode="&#x4dd;" horiz-adv-x="2030" 
d="M899 719l-585 -719h-294l605 735l-570 661h271l573 -677v677h232v-677l573 677h271l-570 -661l605 -735h-294l-585 719v-719h-232v719zM628 1524v232h232v-232h-232zM1170 1524v232h234v-232h-234z" />
    <glyph glyph-name="Zedieresiscyrillic" unicode="&#x4de;" horiz-adv-x="1590" 
d="M1454 559q0 -283 -193 -454q-183 -164 -470 -164q-288 0 -462 99q-218 123 -218 384v12h253v-12q0 -288 416 -288q194 0 303.5 109.5t109.5 297.5q0 205 -167 305q-141 85 -377 85h-155v193h182q165 0 297 103q141 112 141 279q0 140 -99 220q-94 76 -242 76
q-157 0 -257 -56q-115 -64 -115 -180v-13h-235v13q0 225 187 336q160 94 432 94q236 0 399 -108q189 -125 189 -351q0 -185 -110 -314q-102 -120 -280 -171q182 -24 316 -145q155 -141 155 -350zM395 2125v233h233v-233h-233zM938 2125v233h233v-233h-233z" />
    <glyph glyph-name="zedieresiscyrillic" unicode="&#x4df;" horiz-adv-x="1396" 
d="M1255 411q0 -221 -181 -343q-158 -107 -390 -107q-226 0 -376 87q-184 106 -184 316v5h232v-5q0 -209 327 -209q128 0 217 56q105 67 105 189q0 248 -361 248h-136v178h156q117 0 200 63q90 70 90 184q0 93 -84 140q-67 37 -169 37q-158 0 -226 -52q-81 -64 -81 -149v-20
h-253v19q0 96 75 191q158 199 482 199q205 0 336 -69q169 -89 169 -275q0 -118 -63 -209q-66 -95 -176 -122q110 -17 190 -93q101 -97 101 -259zM301 1565v233h233v-233h-233zM844 1565v233h234v-233h-234z" />
    <glyph glyph-name="Imacroncyrillic" unicode="&#x4e2;" horiz-adv-x="1801" 
d="M1616 0h-247l10 1584l-954 -1584h-241v1940h247l-12 -1589l946 1589h251v-1940zM551 2068v155h699v-155h-699z" />
    <glyph glyph-name="imacroncyrillic" unicode="&#x4e3;" horiz-adv-x="1519" 
d="M408 0h-233v1396h233v-1063l703 1063h233v-1396h-233v1064zM410 1524v155h699v-155h-699z" />
    <glyph glyph-name="Idieresiscyrillic" unicode="&#x4e4;" horiz-adv-x="1801" 
d="M1616 0h-247l10 1584l-954 -1584h-241v1940h247l-12 -1589l946 1589h251v-1940zM513 2068v232h232v-232h-232zM1055 2068v232h234v-232h-234z" />
    <glyph glyph-name="idieresiscyrillic" unicode="&#x4e5;" horiz-adv-x="1519" 
d="M408 0h-233v1396h233v-1063l703 1063h233v-1396h-233v1064zM371 1524v232h233v-232h-233zM914 1524v232h234v-232h-234z" />
    <glyph glyph-name="Odieresiscyrillic" unicode="&#x4e6;" horiz-adv-x="1881" 
d="M940 -59q-414 0 -634 319q-190 276 -190 710t190 710q220 318 634 318t634 -318q191 -276 191 -710t-191 -710q-220 -319 -634 -319zM940 136q299 0 446 283q117 222 117 551q0 328 -117 550q-147 284 -446 284q-297 0 -446 -284q-116 -222 -116 -550q0 -327 116 -550
q149 -284 446 -284zM553 2125v233h232v-233h-232zM1095 2125v233h234v-233h-234z" />
    <glyph glyph-name="odieresiscyrillic" unicode="&#x4e7;" horiz-adv-x="1551" 
d="M776 -39q-316 0 -493 215q-167 200 -167 523q0 322 167 522q178 214 493 214t493 -215q166 -200 166 -521q0 -323 -166 -523q-178 -215 -493 -215zM776 155q208 0 320 175q97 149 97 369q0 219 -97 367q-112 175 -320 175t-321 -173q-96 -149 -96 -369t96 -369
q113 -175 321 -175zM388 1563v232h232v-232h-232zM930 1563v232h234v-232h-234z" />
    <glyph glyph-name="uni04EC" unicode="&#x4ec;" horiz-adv-x="1668" 
d="M1551 970q0 -446 -192 -717q-220 -312 -648 -312q-382 0 -535 230q-80 119 -80 234v13h234v-13q0 -141 123 -212q98 -58 250 -58q292 0 445 239q123 192 140 509h-802v193h800q-20 309 -143 498q-154 231 -442 231q-146 0 -248 -61q-123 -74 -123 -209v-12h-234v12
q0 111 80 233q153 231 534 231q428 0 649 -310q192 -273 192 -719zM436 2126v233h233v-233h-233zM979 2126v233h234v-233h-234z" />
    <glyph glyph-name="uni04ED" unicode="&#x4ed;" horiz-adv-x="1396" 
d="M1279 699q0 -331 -151 -525q-168 -213 -492 -213q-313 0 -460 197q-71 96 -71 188v13h231q7 -204 288 -204q196 0 306 140q95 121 111 326h-546v179h544q-44 441 -415 441q-289 0 -289 -203h-230v12q0 108 71 196q152 189 460 189q323 0 490 -212q153 -193 153 -524z
M304 1563v232h232v-232h-232zM846 1563v232h234v-232h-234z" />
    <glyph glyph-name="Umacroncyrillic" unicode="&#x4ee;" horiz-adv-x="1613" 
d="M715 541l-677 1399h280l533 -1101l503 1101h234l-638 -1397q-137 -303 -222 -397q-148 -166 -403 -166q-107 0 -190 23v193q58 -15 151 -15q182 0 278 100q60 62 151 260zM464 2068v155h699v-155h-699z" />
    <glyph glyph-name="umacroncyrillic" unicode="&#x4ef;" horiz-adv-x="1464" 
d="M639 60l-600 1336h257l468 -1037l437 1037h234l-589 -1397q-125 -297 -212 -392q-138 -150 -394 -150h-175v194h131q187 0 277 95q51 55 142 260zM388 1524v155h698v-155h-698z" />
    <glyph glyph-name="Udieresiscyrillic" unicode="&#x4f0;" horiz-adv-x="1613" 
d="M715 541l-677 1399h280l533 -1101l503 1101h234l-638 -1397q-137 -303 -222 -397q-148 -166 -403 -166q-107 0 -190 23v193q58 -15 151 -15q182 0 278 100q60 62 151 260zM425 2068v232h233v-232h-233zM968 2068v232h233v-232h-233z" />
    <glyph glyph-name="udieresiscyrillic" unicode="&#x4f1;" horiz-adv-x="1464" 
d="M639 60l-600 1336h257l468 -1037l437 1037h234l-589 -1397q-125 -297 -212 -392q-138 -150 -394 -150h-175v194h131q187 0 277 95q51 55 142 260zM349 1524v232h232v-232h-232zM891 1524v232h234v-232h-234z" />
    <glyph glyph-name="Uhungarumlautcyrillic" unicode="&#x4f2;" horiz-adv-x="1613" 
d="M715 541l-677 1399h280l533 -1101l503 1101h234l-638 -1397q-137 -303 -222 -397q-148 -166 -403 -166q-107 0 -190 23v193q58 -15 151 -15q182 0 278 100q60 62 151 260zM619 2068h-145l177 407h154zM961 2068h-147l181 407h158z" />
    <glyph glyph-name="uhungarumlautcyrillic" unicode="&#x4f3;" horiz-adv-x="1464" 
d="M639 60l-600 1336h257l468 -1037l437 1037h234l-589 -1397q-125 -297 -212 -392q-138 -150 -394 -150h-175v194h131q187 0 277 95q51 55 142 260zM543 1524h-145l177 407h154zM885 1524h-147l181 407h157z" />
    <glyph glyph-name="Chedieresiscyrillic" unicode="&#x4f4;" horiz-adv-x="1708" 
d="M1524 0h-253v856q-63 -22 -205 -52q-166 -35 -251 -35q-374 0 -525 154q-146 150 -146 513v504h252v-470q0 -266 58 -361q86 -141 362 -141q222 0 455 95v877h253v-1940zM446 2068v232h233v-232h-233zM989 2068v232h234v-232h-234z" />
    <glyph glyph-name="chedieresiscyrillic" unicode="&#x4f5;" horiz-adv-x="1424" 
d="M1249 0h-233v589q-181 -70 -397 -70q-255 0 -365 139q-99 125 -99 386v352h233v-262q0 -214 37 -290q59 -119 245 -119q183 0 346 63v608h233v-1396zM314 1524v232h232v-232h-232zM856 1524v232h234v-232h-234z" />
    <glyph glyph-name="Yerudieresiscyrillic" unicode="&#x4f8;" horiz-adv-x="2100" 
d="M1663 1940h252v-1940h-252v1940zM1404 531q0 -341 -255 -467q-128 -64 -436 -64h-529v1940h252v-766h229q323 0 521 -158q218 -171 218 -485zM1143 543q0 245 -157 350q-131 87 -391 87h-159v-786h282q206 0 306 70q119 84 119 279zM661 2068v232h233v-232h-233z
M1204 2068v232h234v-232h-234z" />
    <glyph glyph-name="yerudieresiscyrillic" unicode="&#x4f9;" horiz-adv-x="1849" 
d="M1211 411q0 -263 -198 -362q-98 -49 -328 -49h-510v1396h233v-497h243q243 0 393 -118q167 -130 167 -370zM969 419q0 161 -100 229q-85 57 -265 57h-196v-511h283q140 0 205 47q73 53 73 178zM1441 1396h233v-1396h-233v1396zM536 1524v232h233v-232h-233zM1079 1524
v232h234v-232h-234z" />
    <glyph glyph-name="kokaithai" unicode="&#xe01;" horiz-adv-x="1536" 
d="M1091 0v958q0 151 -66 236q-85 104 -305 104q-82 0 -147 -17q-55 -14 -118 -50q-72 -40 -102 -68q-37 -36 -61 -59l365 -56l-17 -114q-75 0 -112 -38q-67 -55 -67 -157v-739h-236v739q0 87 39 138q47 58 94 65q18 2 22 16l-287 34l15 153q44 18 105 85q82 90 208.5 158
t298.5 68q209 0 336 -54q75 -32 135 -89q55 -51 93 -123q27 -52 35 -99q9 -55 9 -125v-966h-237z" />
    <glyph glyph-name="khokhaithai" unicode="&#xe02;" horiz-adv-x="1465" 
d="M1270 1430v-1155q0 -111 -52 -185q-89 -90 -234 -90h-724v178h146v280q0 107 130 265q107 130 142 219q25 66 25 143q0 86 -51 148q-55 69 -138 69h-18q-9 0 -17 1q-122 0 -144 -59q112 0 161 -78q51 -82 51 -150q0 -63 -35 -125q-38 -67 -94 -86q-70 -26 -118 -26
q-77 0 -151 54q-77 58 -87 133q-10 57 -10 84q0 180 130 296q113 102 329 102q160 0 271 -88q137 -108 137 -280q0 -200 -151 -393q-78 -100 -87 -116q-39 -64 -39 -137v-256h289q38 0 79 41q17 32 17 90v1121h243zM204 1010q0 -42 28.5 -73.5t70.5 -31.5q105 0 105 105
t-105 105q-41 0 -70 -32t-29 -73z" />
    <glyph glyph-name="khokhuatthai" unicode="&#xe03;" horiz-adv-x="1456" 
d="M1257 1430v-1155q0 -105 -54 -185q-79 -90 -232 -90h-722v178h145v280q0 105 129 260q111 132 146 224q25 63 25 143q0 137 -78 187q-68 -52 -141 -52q-86 0 -148 52q-43 -18 -61 -49q-19 -20 -30 -70q31 11 67 11q119 0 175 -87q43 -68 43 -134q0 -153 -129 -200
q-53 -19 -94 -19q-83 0 -155 56.5t-87 137.5q-14 72 -14 130q0 160 93 277q87 110 189 128q65 -102 143 -102q84 0 175 102q69 -15 149 -84q116 -101 116 -289q0 -204 -160 -409q-66 -84 -80 -108q-33 -58 -33 -129v-256h285q42 0 80 41q19 30 19 90v1121h239zM196 945
q0 -40 31 -70.5t71 -30.5q96 0 96 101q0 99 -96 99q-40 0 -71 -29.5t-31 -69.5z" />
    <glyph glyph-name="khokhwaithai" unicode="&#xe04;" horiz-adv-x="1637" 
d="M572 0h-284q0 9 1.5 28.5t1.5 29.5q0 123 -29 295q-33 131 -93 396q-14 67 -14 156q0 259 187 413q168 138 461 138q314 0 473 -131q154 -128 154 -367v-958h-240v971q0 147 -90 234q-97 93 -301 93q-169 0 -281 -98.5t-112 -292.5q0 -92 12 -148q9 -39 25 -119
q7 -44 14 -113q2 -35 4 -54q0 62 25 171q14 66 48 173q30 113 78 180q56 80 173 80q198 0 260 -139q24 -56 24 -106q0 -108 -59 -172q-80 -85 -202 -85q-68 0 -129 41q-75 -183 -95 -466zM812 934q-109 0 -109 -109q0 -44 32 -75.5t77 -31.5q42 0 74.5 32.5t32.5 74.5
q0 46 -31 77.5t-76 31.5z" />
    <glyph glyph-name="khokhonthai" unicode="&#xe05;" horiz-adv-x="1611" 
d="M262 0q2 54 2 62q0 133 -25 288q-33 137 -91 414q-13 67 -13 153q0 117 46 231q52 124 138 189q131 98 248 116q25 4 100 -62t118 -66q49 0 128 64t97 64q141 0 267 -140q126 -143 126 -355v-958h-236v971q0 146 -82 232q-16 10 -51 34q-9 6 -23 6q-11 0 -94.5 -43.5
t-145.5 -43.5q-60 0 -135 42t-82 42q-17 0 -56 -26q-19 -14 -43 -43q-75 -93 -75 -264q0 -96 13 -151q9 -38 28 -116q11 -59 17 -114q2 -34 3 -53q0 78 61 322q69 281 260 282q6 0 15 1h11q167 0 231 -141q25 -56 25 -105q0 -108 -60 -172q-81 -85 -202 -85q-66 0 -125 41
q-76 -195 -100 -471q-8 -93 -11 -145h-284zM788 934q-46 0 -77.5 -31.5t-31.5 -77.5q0 -43 32.5 -75t76.5 -32t76 31.5t32 75.5q0 109 -108 109z" />
    <glyph glyph-name="khorakhangthai" unicode="&#xe06;" horiz-adv-x="1626" 
d="M720 593q121 -7 234 -77q71 -44 118 -98l84 -100q28 8 27 62q-1 52 -1 37v1013h240v-1159q0 -150 -54 -212q-62 -70 -160 -70q-44 0 -98 69q-34 53 -69 106q-123 185 -222 233q-46 20 -99 26v-230q0 -133 -93 -182q-63 -33 -162 -33q-55 0 -95 11q-112 33 -174 157
q-32 65 -32 147q0 76 32 139q53 103 131 146q58 32 154 35q1 21 15 62q6 10 87 77q147 125 147 333q0 154 -79 191q-63 -41 -140 -41q-79 0 -131 41q-36 -7 -56 -39q-23 -19 -23 -58q31 11 66 11q117 0 181 -100q35 -54 35 -118q0 -63 -36 -120q-37 -61 -94 -83
q-53 -19 -94 -19q-82 0 -152.5 56.5t-86.5 137.5q-15 72 -15 129q0 140 67 244q73 111 184 136q61 -78 151 -84q36 -2 87 22q46 20 77 62q75 -14 154 -83q120 -105 120 -290q0 -105 -41 -204q-44 -108 -101 -158q-32 -29 -79 -88q-2 -8 -4 -18q-1 -10 0 -19zM260 969
q0 -99 96 -99q40 0 71 29.5t31 69.5t-31 68t-71 28q-96 0 -96 -96zM332 291q0 -54 21 -95q22 -54 68 -54q60 0 60 65v227q-11 5 -27 5q-57 0 -98 -62q-24 -35 -24 -86z" />
    <glyph glyph-name="ngonguthai" unicode="&#xe07;" horiz-adv-x="1220" 
d="M762 960q-61 -6 -70 -6q-104 0 -177.5 69.5t-73.5 173.5q0 81 54 155q56 79 134 89q62 7 86 7q134 0 211 -88q73 -84 73 -207v-1153h-305q-12 24 -43 79q-10 18 -79 119q-25 40 -83 126q-77 108 -188 225q-31 32 -90 89l-4 4q-87 84 -117 101q-38 22 -52 30l67 106
q50 0 287 -209q86 -76 175 -166q51 -55 134 -165l61 -83v704zM580 1197q0 -46 33 -77t79 -31q42 0 74.5 33t32.5 75q0 43 -32 77t-75 34q-47 0 -79.5 -32t-32.5 -79z" />
    <glyph glyph-name="chochanthai" unicode="&#xe08;" horiz-adv-x="1351" 
d="M578 169l-41 377q-51 -27 -108 -27q-73 0 -147 49q-80 51 -92 121q-10 55 -10 78q0 180 185 240q45 14 89 14q102 0 165 -50q56 -36 87 -90q35 -62 38 -108l47 -577q17 -61 70 -61q45 0 62 30q7 13 8 31l53 749q4 57 -9 132q-23 128 -154 187q-79 34 -202 34
q-182 0 -295 -78q-50 -36 -82 -74q-28 -42 -55 -84l-125 96q11 44 66 105q60 70 134 112q63 35 163 60q88 21 202 21q418 0 555 -258q43 -82 43 -177v-18q-2 -12 -2 -19l-67 -748q0 -90 -71 -186q-42 -57 -122 -64l-92 -8q-14 -1 -26 -1q-106 0 -180 51q-87 59 -87 141z
M324 747q8 -93 106 -93q45 0 76.5 34t31.5 80q0 51 -42 82q-35 26 -78 26h-10q-87 -20 -87 -111q0 -7 3 -18z" />
    <glyph glyph-name="chochingthai" unicode="&#xe09;" horiz-adv-x="1562" 
d="M1104 945q0 145 -62 226q-99 127 -339 127q-200 0 -326 -77q-79 -49 -147 -159l-131 102l87 107q67 65 143 104q71 36 174 60q91 21 206 21q291 0 460.5 -121t169.5 -351v-395q0 -58 -41 -87q-21 -11 -46 -20l-34 -12q59 -12 109 -64q65 -69 74 -161q0 -173 -147 -239
q-47 -22 -90 -27q-139 0 -210 85q-61 73 -61 146q0 89 26 117q-90 -21 -168 -123q-64 -85 -109 -204h-236v496q-34 -12 -71 -12q-104 0 -174.5 72.5t-70.5 176.5q0 81 51 155q55 79 134 89q60 7 82 7q135 0 206 -79q79 -86 79 -219v-394q44 69 134 130q73 48 203 92
q125 42 125 102v329zM225 733q0 -108 110 -108q46 0 77 31t31 77q0 44 -31.5 75.5t-76.5 31.5q-44 0 -77 -31.5t-33 -75.5zM1150 339q-114 0 -114 -117q0 -106 105 -106q114 0 114 106q12 117 -105 117z" />
    <glyph glyph-name="chochangthai" unicode="&#xe0a;" horiz-adv-x="1500" 
d="M1310 896v-621q0 -113 -53 -185q-82 -90 -230 -90h-778v178h145v280q0 105 129 260q111 132 146 224q25 63 25 143q0 93 -57.5 155.5t-148.5 62.5h-16q-128 0 -148 -59q108 0 170 -94q45 -69 45 -138q0 -68 -39 -127q-39 -63 -102 -85q-58 -21 -106 -21q-79 0 -154 58
t-87 133q-10 62 -10 89q0 169 131 287q111 102 327 102q267 0 372 -209q36 -73 36 -159q0 -204 -160 -409q-66 -84 -80 -108q-33 -58 -33 -129v-256h337q42 0 80 41q23 30 23 90v585q0 48 -9 77q0 58 -32 103q-34 58 -102 58l-29 103q57 5 123 37q17 7 48 24q17 12 44 40
q67 70 67 173h275q-2 -36 -18 -114q-26 -77 -76.5 -122t-115.5 -65q-26 -10 -58 -17l-61 -12q29 0 78 -38q33 -20 53 -50q35 -44 41 -99q6 -22 7 -56zM196 1010q0 -43 29 -74t73 -31q42 0 73 31.5t31 73.5t-31 73.5t-73 31.5q-44 0 -73 -31t-29 -74z" />
    <glyph glyph-name="sosothai" unicode="&#xe0b;" horiz-adv-x="1512" 
d="M616 1272q-68 -52 -141 -52q-86 0 -148 52q-43 -18 -61 -49q-19 -20 -30 -70q31 11 67 11q119 0 175 -87q43 -68 43 -134q0 -153 -129 -200q-53 -19 -94 -19q-83 0 -155 56.5t-87 137.5q-14 72 -14 130q0 160 93 277q87 110 189 128q65 -102 143 -102q84 0 175 102
q69 -15 149 -84q116 -101 116 -289q0 -204 -160 -409q-66 -84 -80 -108q-33 -58 -33 -129v-256h337q42 0 80 41q23 30 23 90v585q0 48 -9 77q0 58 -32 103q-34 58 -102 58l-29 103q57 5 123 37q17 7 48 24q17 12 44 40q67 70 67 173h275q-2 -36 -18 -114q-26 -77 -76.5 -122
t-115.5 -65q-26 -10 -58 -17l-61 -12q29 0 78 -38q33 -20 53 -50q35 -44 41 -99q6 -22 7 -56l1 -40v-621q0 -113 -53 -185q-82 -90 -230 -90h-778v178h145v280q0 105 129 260q111 132 146 224q25 63 25 143q0 137 -78 187zM196 945q0 -40 31 -70.5t71 -30.5q96 0 96 101
q0 99 -96 99q-40 0 -71 -29.5t-31 -69.5z" />
    <glyph glyph-name="chochoethai" unicode="&#xe0c;" horiz-adv-x="2095" 
d="M1652 1430h239v-1226q0 -121 -43 -164q-51 -53 -137 -53q-40 0 -69.5 38.5t-53.5 88.5q-72 149 -123 221q-69 96 -157 114v-256q0 -135 -90 -182q-63 -33 -149 -33q-115 0 -184 66q-94 88 -94 235q0 91 32 168q43 104 125 146q52 26 124 26v339q0 147 -65 232
q-39 51 -114.5 79.5t-194.5 28.5q-149 0 -266 -67q-139 -80 -161 -127l363 -56l-18 -114q-48 0 -77 -13q-18 -9 -32 -25q-66 -41 -66 -137v-292q28 8 70 8q98 0 163 -73t65 -172q0 -81 -44 -149q-46 -74 -123 -90q-62 -13 -91 -13q-197 0 -258 184q-19 56 -19 113v464
q0 91 41 140q39 56 89 63q18 2 22 16l-289 34l21 153q34 14 93 78q86 94 215.5 163.5t301.5 69.5q209 0 335 -54q151 -66 228 -212q47 -89 47 -224v-362q94 -17 166 -73q117 -93 178 -219v1118zM934 327q0 -76 14 -123q20 -60 64 -69q60 0 60 72v254q-11 3 -24 3
q-35 0 -63 -24q-32 -27 -51 -113zM601 230q0 45 -31.5 77t-75.5 32q-46 0 -79 -31.5t-33 -77.5q0 -110 112 -110q45 0 76 32.5t31 77.5z" />
    <glyph glyph-name="yoyingthai" unicode="&#xe0d;" horiz-adv-x="2086" 
d="M1284 -344q28 -71 160 -71q152 15 195 119q28 68 28 164v24h236q0 -200 -111 -325q-115 -130 -312 -130q-158 0 -274 45q-154 62 -181 191q-7 32 -7 50q0 73 43.5 125.5t114.5 52.5q175 0 175 -161q0 -84 -67 -84zM213 739q0 85 44 140.5t88 62.5q15 2 19 6l6 10l-288 34
l17 153q36 14 97 78q99 103 211 164q125 69 302 69q212 0 336 -54q149 -65 234 -224q43 -81 43 -212v-785h214q78 0 104.5 29t26.5 102v1118h236v-1226q0 -101 -55.5 -152.5t-178.5 -51.5h-589v958q0 144 -68 236q-79 104 -303 104q-150 0 -264 -63q-61 -35 -95 -64
q-24 -23 -73 -67l365 -56l-17 -114q-68 0 -115 -40q-55 -47 -55 -135v-292q28 8 71 8q106 0 176.5 -70t70.5 -175q0 -98 -63.5 -167t-161.5 -78q-27 -7 -54 -7q-120 0 -204 92q-77 80 -77 205v464zM634 230q0 46 -31.5 77.5t-76.5 31.5t-77 -32t-32 -77t31.5 -77.5
t77.5 -32.5q108 0 108 110z" />
    <glyph glyph-name="dochadathai" unicode="&#xe0e;" horiz-adv-x="1693" 
d="M1272 958q0 149 -65 234q-83 106 -302 106q-153 0 -276 -68q-66 -36 -109 -79l-47 -47l365 -56l-21 -114q-63 0 -108 -38q-64 -55 -64 -157v-464q0 -123 -82 -213q-75 -83 -197 -83q-137 0 -213 85q-63 68 -63 166q0 105 70 175t175 70q47 0 71 -8v272q0 85 44 140.5
t90 62.5q16 2 23 16l-288 34l17 153q36 16 98 76q79 77 96 91q125 97 256 127q80 17 163 17q209 0 333 -54q153 -66 230 -212q44 -82 44 -224v-1546h-333q-44 76 -112 137q-63 55 -150 99q-34 -117 -109 -170q-105 -75 -245 -75q-106 0 -169 43q-81 56 -81 164
q0 136 116 202q97 56 199 56q69 0 134 -28q11 29 11 76v76h211v-105l-15 -99q95 -35 146 -71q90 -62 157 -148v1381zM335 120q46 0 79 32.5t33 77.5q0 46 -33 77.5t-79 31.5q-44 0 -77 -32t-33 -77q0 -46 31.5 -78t78.5 -32zM537 -283q-50 -20 -50 -85q0 -28 15 -53
q26 -30 79 -30q48 0 85 22q53 45 67 141q-58 27 -109 27q-48 0 -87 -22z" />
    <glyph glyph-name="topatakthai" unicode="&#xe0f;" horiz-adv-x="1693" 
d="M1272 -380v1338q0 149 -65 234q-83 106 -302 106q-153 0 -276 -68q-66 -36 -109 -79l-47 -47l365 -56l-21 -114q-63 0 -108 -38q-64 -55 -64 -157v-464q0 -123 -82 -213q-75 -83 -197 -83q-137 0 -213 85q-63 68 -63 166q0 105 70 175t175 70q47 0 71 -8v272
q0 85 44 140.5t90 62.5q16 2 23 16l-288 34l17 153q36 16 98 76q79 77 96 91q125 97 256 127q80 17 163 17q209 0 333 -54q153 -66 230 -212q44 -82 44 -224v-1546h-292l-140 159l-135 -159h-133l-41 81l-51 76q-55 -84 -123 -114q-100 -44 -177 -44q-124 0 -198 91
q-41 50 -41 122q0 135 111 197q77 43 162 43q105 0 214 -68q17 43 26 91q0 50 9 96h202q-3 -81 -26 -159q-26 -89 -71 -133l79 -90l190 210zM335 120q46 0 79 32.5t33 77.5q0 46 -33 77.5t-79 31.5q-44 0 -77 -32t-33 -77q0 -46 31.5 -78t78.5 -32zM461 -275
q-108 0 -108 -95q0 -71 108 -71q83 8 137 114q-68 52 -137 52z" />
    </font>
</defs>
</svg>
